<svg height="512" viewBox="0 0 64 64" width="512" xmlns="http://www.w3.org/2000/svg"><g id="Fill_Outline" data-name="Fill Outline"><g id="Color"><path d="m25.541 33a13.5 13.5 0 0 1 -15.014-8.435l-.476-1.239a2.068 2.068 0 0 0 -1.931-1.326 2.069 2.069 0 0 0 -1.995 1.524l-.925 3.376a62.532 62.532 0 0 0 .341 34.1h27.683l.317-30z" fill="#d0d8da"/><path d="m6.31 33.46a55.99 55.99 0 0 0 .24 23.03l1 4.51h25.67l.32-30-8 2a13.238 13.238 0 0 1 -6.69-.49 1.546 1.546 0 0 1 -1.4.89 1.674 1.674 0 0 1 -.49-.08 11.315 11.315 0 0 1 -6.11-4.9l-.09-.15a1.548 1.548 0 0 1 .47-2.09l.04-.03a12.776 12.776 0 0 1 -.74-1.59l-.48-1.23a2.064 2.064 0 0 0 -3.92.19l-.93 3.38c-.17.61-.32 1.22-.47 1.84a5 5 0 0 1 1.58 4.72z" fill="#93999a"/><path d="m29.265 61 .221-24.863-3.1.775-.128.024a17.479 17.479 0 0 1 -17.6-7.393 76.54 76.54 0 0 0 -.046 31.457z" fill="#656b76"/><rect fill="#e9f1f2" height="4" rx="2" transform="matrix(-1 0 0 -1 17.082 46)" width="8" x="4.541" y="21"/><path d="m10.541 21-.222-.886a7.752 7.752 0 0 1 .873-5.866l1.349-2.248-1.409.6a7.749 7.749 0 0 0 -4.591 8.4z" fill="#e9f1f2"/><path d="m6.54 21h4l-.22-.89a7.715 7.715 0 0 1 .87-5.86l.5-.83a7.661 7.661 0 0 0 -2.75 3.57 2.993 2.993 0 0 1 -2.47 1.98 7.707 7.707 0 0 0 .07 2.03z" fill="#d0d8da"/><path d="m4.54 23a2.015 2.015 0 0 0 2 2h4a2 2 0 0 0 1.42-3.41 1.613 1.613 0 0 0 -.28-.24 3 3 0 0 1 -2.68 1.65z" fill="#d0d8da"/><path d="m8.65 29.54a17.624 17.624 0 0 0 14.47 7.68 18.419 18.419 0 0 0 3.14-.28l.12-.03 3.11-.77-.22 24.86h-20.66a76.658 76.658 0 0 1 .04-31.46zm3.23 27.46a13.538 13.538 0 0 0 13.54-13.42v-.125a2.237 2.237 0 0 0 -2.278-2.235h-.022a21.417 21.417 0 0 1 -11.76-3.52 77.823 77.823 0 0 0 .52 19.3z" fill="#464a51"/><path d="m38.459 33a13.5 13.5 0 0 0 15.014-8.435l.476-1.239a2.068 2.068 0 0 1 1.931-1.326 2.069 2.069 0 0 1 1.995 1.524l.925 3.376a62.532 62.532 0 0 1 -.341 34.1h-27.683l-.317-30z" fill="#d0d8da"/><path d="m57.69 33.46a56 56 0 0 1 1.08 10.95 55.949 55.949 0 0 1 -1.32 12.08l-1 4.51h-25.67l-.32-30 8 2a13.238 13.238 0 0 0 6.69-.49 1.546 1.546 0 0 0 1.4.89 1.674 1.674 0 0 0 .49-.08 11.315 11.315 0 0 0 6.11-4.9l.09-.15a1.548 1.548 0 0 0 -.47-2.09l-.04-.03a12.776 12.776 0 0 0 .74-1.59l.48-1.23a2.064 2.064 0 0 1 3.92.19l.93 3.38c.17.61.32 1.22.47 1.84a5 5 0 0 0 -1.58 4.72z" fill="#93999a"/><path d="m34.735 61-.221-24.863 3.1.775.128.024a17.479 17.479 0 0 0 17.6-7.393 76.54 76.54 0 0 1 .046 31.457z" fill="#656b76"/><rect fill="#e9f1f2" height="4" rx="2" width="8" x="51.459" y="21"/><path d="m53.459 21 .222-.886a7.752 7.752 0 0 0 -.873-5.866l-1.349-2.248 1.409.6a7.749 7.749 0 0 1 4.591 8.4z" fill="#e9f1f2"/><path d="m57.46 21h-4l.22-.89a7.715 7.715 0 0 0 -.87-5.86l-.5-.83a7.661 7.661 0 0 1 2.75 3.57 2.993 2.993 0 0 0 2.47 1.98 7.707 7.707 0 0 1 -.07 2.03z" fill="#d0d8da"/><path d="m59.46 23a2.015 2.015 0 0 1 -2 2h-4a2 2 0 0 1 -1.42-3.41 1.613 1.613 0 0 1 .28-.24 3 3 0 0 0 2.68 1.65z" fill="#d0d8da"/><path d="m55.35 29.54a17.624 17.624 0 0 1 -14.47 7.68 18.419 18.419 0 0 1 -3.14-.28l-.12-.03-3.11-.77.22 24.86h20.66a76.658 76.658 0 0 0 -.04-31.46zm-3.23 27.46a13.538 13.538 0 0 1 -13.54-13.42v-.125a2.237 2.237 0 0 1 2.278-2.235h.023a21.417 21.417 0 0 0 11.759-3.52 77.823 77.823 0 0 1 -.52 19.3z" fill="#464a51"/><path d="m44 45h-3a4 4 0 0 1 -4-4v-5h-10v5a4 4 0 0 1 -4 4h-3a8 8 0 0 0 -8 8v8h40v-8a8 8 0 0 0 -8-8z" fill="#ef5350"/><path d="m37 36v4.4a10.745 10.745 0 0 1 -7.8 3.6 10.625 10.625 0 0 1 -3.16-.41 3.957 3.957 0 0 0 .96-2.59v-5z" fill="#e53935"/><path d="m37 36v4.4a10.745 10.745 0 0 1 -7.8 3.6 10.625 10.625 0 0 1 -3.16-.41 3.957 3.957 0 0 0 .96-2.59v-5z" fill="#e53935"/><path d="m43 25v5.639a11.236 11.236 0 0 1 -10.8 11.361 10.994 10.994 0 0 1 -11.2-11v-6a10.983 10.983 0 0 1 6.262-9.927 2.832 2.832 0 0 1 2.974.323 2.8 2.8 0 0 0 1.738.6h.052a2.8 2.8 0 0 0 1.738-.6 2.835 2.835 0 0 1 2.982-.32 10.995 10.995 0 0 1 6.254 9.924z" fill="#ff7373"/><path d="m41.51 19.47-.46 1.09a2.733 2.733 0 0 1 -5.24-1.08 2.794 2.794 0 0 1 .2-1.01l1.1-2.74c.05-.13.11-.26.17-.38a10.886 10.886 0 0 1 2.5 1.87 11.138 11.138 0 0 1 1.73 2.25z" fill="#ef5350"/><path d="m40.26 38.11a10.819 10.819 0 0 1 -8.06 3.89 11.006 11.006 0 0 1 -11.2-11v-6a11 11 0 0 1 6.26-9.93 1.755 1.755 0 0 1 .32-.12 9.827 9.827 0 0 0 -1.27 1.83l.68 1.69a2.72 2.72 0 0 1 -1.52 3.54 2.542 2.542 0 0 1 -.47.14v5.85a11.006 11.006 0 0 0 11.2 11 10.6 10.6 0 0 0 4.06-.89z" fill="#ef5350"/><path d="m36.012 17.47 1.094-2.736a6.13 6.13 0 0 1 6.894-3.734l.3-1.209a8.966 8.966 0 0 1 8.7-6.791l-.414.31a8.969 8.969 0 0 0 -3.586 7.173v1.864a3.094 3.094 0 0 1 -3.6 3.053 3.1 3.1 0 0 0 -3.353 1.834l-.995 2.322a2.725 2.725 0 0 1 -3.518 1.457 2.725 2.725 0 0 1 -1.522-3.543z" fill="#e9f1f2"/><path d="m27.988 17.47-1.094-2.736a6.13 6.13 0 0 0 -6.894-3.734l-.3-1.209a8.966 8.966 0 0 0 -8.7-6.791l.414.31a8.969 8.969 0 0 1 3.586 7.173v1.864a3.094 3.094 0 0 0 3.6 3.053 3.1 3.1 0 0 1 3.353 1.834l1 2.322a2.725 2.725 0 0 0 3.518 1.457 2.725 2.725 0 0 0 1.517-3.543z" fill="#e9f1f2"/><path d="m34.757 30.243a2 2 0 0 1 0-2.829c.781-.781 4.243-1.414 4.243-1.414s-.081.441-.22 1.045a4.131 4.131 0 0 1 -4.023 3.2z" fill="#e53935"/><path d="m29.243 30.243a2 2 0 0 0 0-2.829c-.781-.781-4.243-1.414-4.243-1.414s.081.441.22 1.045a4.131 4.131 0 0 0 4.023 3.2z" fill="#e53935"/><path d="m47 22a0 0 0 0 1 0 0v4a4 4 0 0 1 -4 4 0 0 0 0 1 0 0v-4a4 4 0 0 1 4-4z" fill="#ff7373"/><path d="m17 22a4 4 0 0 1 4 4v4a0 0 0 0 1 0 0 4 4 0 0 1 -4-4v-4a0 0 0 0 1 0 0z" fill="#ef5350" transform="matrix(-1 0 0 -1 38 52)"/><path d="m45 47.248a4.775 4.775 0 0 1 -4.756 4.752h-2.638a6.737 6.737 0 0 0 -5.606 3 6.737 6.737 0 0 0 -5.606-3h-2.657a4.908 4.908 0 0 1 -4.737-4.936v-.064l.027.027a6.738 6.738 0 0 0 4.764 1.973h2.6a6.737 6.737 0 0 1 5.609 3 6.737 6.737 0 0 1 5.606-3h2.6a6.738 6.738 0 0 0 4.764-1.973l.03-.027z" fill="#e53935"/><path d="m53 3-.41.31a9.047 9.047 0 0 0 -3.59 7.215v1.825a3.1 3.1 0 0 1 -3.6 3.05 3.037 3.037 0 0 0 -.52-.04 3.085 3.085 0 0 0 -2.84 1.87l-.99 2.33a2.728 2.728 0 0 1 -3.52 1.45 2.67 2.67 0 0 1 -1.51-1.51l.01.01a2.728 2.728 0 0 0 3.52-1.45l.99-2.33a3.085 3.085 0 0 1 2.84-1.87 3.037 3.037 0 0 1 .52.04 3.1 3.1 0 0 0 3.6-3.05v-1.87a9.049 9.049 0 0 1 .064-1.069 5.549 5.549 0 0 1 5.394-4.911z" fill="#d0d8da"/><path d="m28.18 18.6a2.728 2.728 0 0 1 -5.23.96l-.99-2.33a3.085 3.085 0 0 0 -2.84-1.87 3.037 3.037 0 0 0 -.52.04 3.1 3.1 0 0 1 -3.6-3.05v-1.87a8.955 8.955 0 0 0 -3.554-7.143l-.446-.337h.039a5.052 5.052 0 0 1 4.912 4.543 8.841 8.841 0 0 1 .049.937v1.87a3.1 3.1 0 0 0 3.6 3.05 3.037 3.037 0 0 1 .52-.04 3.085 3.085 0 0 1 2.84 1.87l.99 2.33a2.728 2.728 0 0 0 3.52 1.45 3.292 3.292 0 0 0 .71-.41z" fill="#d0d8da"/><path d="m46.2 28.39a3.963 3.963 0 0 1 -3.2 1.61v-4a3.98 3.98 0 0 1 2-3.46v3.46a2.964 2.964 0 0 0 1.2 2.39z" fill="#ef5350"/><g fill="#e53935"><path d="m17.8 28.39a3.963 3.963 0 0 0 3.2 1.61v-4a3.98 3.98 0 0 0 -2-3.46v3.46a2.964 2.964 0 0 1 -1.2 2.39z"/><path d="m44 57v-2a2 2 0 0 0 -2 2h-16a7 7 0 0 1 -7-7 7.963 7.963 0 0 1 1.76-5h-.76a8 8 0 0 0 -8 8v8h40v-4z"/></g></g><g id="Outline_copy" fill="#323232" data-name="Outline copy"><path d="m5.541 62a1 1 0 0 1 -.959-.718 63.6 63.6 0 0 1 -.766-33.011 1 1 0 0 1 1.944.475 61.594 61.594 0 0 0 .74 31.972 1 1 0 0 1 -.677 1.241.987.987 0 0 1 -.282.041z"/><path d="m61.98 41.977a.988.988 0 0 0 -1.023-.977 1 1 0 0 0 -.977 1.023 61.1 61.1 0 0 1 -2.479 18.7 1 1 0 0 0 .677 1.241.987.987 0 0 0 .282.036 1 1 0 0 0 .959-.718 63.1 63.1 0 0 0 2.561-19.305z"/><path d="m11.555 45.164a1 1 0 0 0 .985.836.916.916 0 0 0 .164-.014 1 1 0 0 0 .823-1.15 14.482 14.482 0 0 1 1.253-8.636 18.662 18.662 0 0 0 2.806 1.157 7.94 7.94 0 0 0 .005 4.957 1 1 0 1 0 1.9-.628 5.921 5.921 0 0 1 .237-4.314 1.036 1.036 0 0 0 .231-.505 1.024 1.024 0 0 0 -.784-1.139 16.616 16.616 0 0 1 -9.7-6.753 1 1 0 0 0 -1.8.33 68.778 68.778 0 0 0 -1.655 14.681 1 1 0 0 0 .986 1.014h.014a1 1 0 0 0 1-.986 71.013 71.013 0 0 1 1.154-12.167 18.669 18.669 0 0 0 3.869 3.36 16.481 16.481 0 0 0 -1.488 9.957z"/><path d="m8.05 47.972a1.014 1.014 0 0 0 -1.028-.972 1 1 0 0 0 -.972 1.028 66.045 66.045 0 0 0 1.588 13.2 1 1 0 0 0 .971.772 1.038 1.038 0 0 0 .234-.027 1 1 0 0 0 .74-1.2 64.153 64.153 0 0 1 -1.533-12.801z"/><path d="m56.318 29.307a1 1 0 0 0 -1.8-.328 16.6 16.6 0 0 1 -9.754 6.766l-.042.011a1 1 0 0 0 -.422 1.678 5.924 5.924 0 0 1 .207 4.252 1 1 0 1 0 1.9.628 7.944 7.944 0 0 0 .006-4.956 18.631 18.631 0 0 0 2.808-1.158 14.485 14.485 0 0 1 1.252 8.635 1 1 0 0 0 .823 1.15.916.916 0 0 0 .164.015 1 1 0 0 0 .985-.836 16.485 16.485 0 0 0 -1.487-9.956 18.561 18.561 0 0 0 3.866-3.357c1.685 8.737 1.551 20.74-.409 28.916a1 1 0 0 0 .739 1.206 1.06 1.06 0 0 0 .235.027 1 1 0 0 0 .971-.767 76.947 76.947 0 0 0 -.042-31.926z"/><path d="m44 44h-3a2.972 2.972 0 0 1 -1.777-.583 1 1 0 1 0 -1.188 1.609 4.96 4.96 0 0 0 2.965.974h3a7.008 7.008 0 0 1 7 7v8a1 1 0 0 0 2 0v-8a9.01 9.01 0 0 0 -9-9z"/><path d="m43.545 33.952a14.56 14.56 0 0 0 10.375-7.952h3.539.053l.323 1.169a60.523 60.523 0 0 1 1.928 10.931 1 1 0 0 0 1 .917h.083a1 1 0 0 0 .915-1.079 62.633 62.633 0 0 0 -1.993-11.305l-.375-1.355a2.977 2.977 0 0 0 -.844-5.067 8.719 8.719 0 0 0 -5.283-8.526l-1.409-.6a1 1 0 0 0 -1.257 1.43l1.348 2.247a6.707 6.707 0 0 1 .761 5.109l-.064.255a2.981 2.981 0 0 0 -.758 5.419 12.537 12.537 0 0 1 -7.946 6.264c.027-.3.038-.6.044-.909a5.007 5.007 0 0 0 4.015-4.9v-4a1 1 0 0 0 -1-1 4.958 4.958 0 0 0 -3.316 1.287 12.02 12.02 0 0 0 -1.308-3.287l.586-1.368a2.085 2.085 0 0 1 2.27-1.241 4.1 4.1 0 0 0 4.768-4.044v-1.864a8.006 8.006 0 0 1 3.186-6.373l.414-.31a1 1 0 0 0 -.6-1.8 9.916 9.916 0 0 0 -8.893 5.466 1 1 0 1 0 1.786.9 7.928 7.928 0 0 1 4.023-3.754 10.009 10.009 0 0 0 -1.916 5.871v1.864a2.094 2.094 0 0 1 -2.439 2.066 4.086 4.086 0 0 0 -4.437 2.426l-1 2.322a1.726 1.726 0 0 1 -3.189-1.32l1.095-2.735a5.132 5.132 0 0 1 5.77-3.126 1 1 0 1 0 .392-1.96 7.126 7.126 0 0 0 -7.81 3.882 3.788 3.788 0 0 0 -3.242.71 1.922 1.922 0 0 1 -2.288 0 3.788 3.788 0 0 0 -3.259-.7 7.1 7.1 0 0 0 -6.839-4.012l-.087-.346a9.947 9.947 0 0 0 -9.667-7.554 1 1 0 0 0 -.6 1.8l.414.31a8.006 8.006 0 0 1 3.186 6.373v1.864a4.1 4.1 0 0 0 4.768 4.039 2.09 2.09 0 0 1 2.27 1.241l.583 1.359a11.887 11.887 0 0 0 -1.307 3.3 4.964 4.964 0 0 0 -3.314-1.286 1 1 0 0 0 -1 1v4a5.009 5.009 0 0 0 4 4.9v.1c0 .27.022.537.039.8a12.551 12.551 0 0 1 -7.929-6.259 2.98 2.98 0 0 0 -.757-5.419l-.064-.254a6.709 6.709 0 0 1 .761-5.11l1.35-2.243a1 1 0 0 0 -1.251-1.434l-1.409.6a8.719 8.719 0 0 0 -5.283 8.526 3 3 0 0 0 1.084 5.793h3.538a14.573 14.573 0 0 0 10.295 7.938 11.892 11.892 0 0 0 3.213 5.623 12.053 12.053 0 0 0 2.376 1.8 2.994 2.994 0 0 1 -2.963 2.639h-3a9.01 9.01 0 0 0 -9 9v8a1 1 0 0 0 2 0v-8a7.008 7.008 0 0 1 7-7h3a5 5 0 0 0 4.824-3.755 11.98 11.98 0 0 0 4.176.755h.216a12.122 12.122 0 0 0 11.329-9.048zm13.015-13.952h-1.828a8.676 8.676 0 0 0 -.665-5.519 6.734 6.734 0 0 1 2.493 5.519zm-3.1 2h4a1 1 0 0 1 0 2h-4a1 1 0 0 1 0-2zm-43.527-7.519a8.676 8.676 0 0 0 -.665 5.519h-1.828a6.734 6.734 0 0 1 2.493-5.519zm-4.392 8.519a1 1 0 0 1 1-1h4a1 1 0 0 1 0 2h-4a1 1 0 0 1 -1-1zm40.459.171v2.829a3.006 3.006 0 0 1 -2 2.829v-2.829a3.006 3.006 0 0 1 2-2.829zm-26.881-8.815a4.142 4.142 0 0 0 -.68.057 2.094 2.094 0 0 1 -2.439-2.066v-1.864a10.01 10.01 0 0 0 -1.912-5.863 7.95 7.95 0 0 1 4.64 5.414l.3 1.209a1 1 0 0 0 1.166.737 5.131 5.131 0 0 1 5.769 3.126l1.095 2.735a1.726 1.726 0 0 1 -3.189 1.32l-.995-2.322a4.085 4.085 0 0 0 -3.755-2.483zm-1.119 11.644v-2.829a3.006 3.006 0 0 1 2 2.829v2.829a3.006 3.006 0 0 1 -2-2.829zm14.178 15a9.994 9.994 0 0 1 -10.178-10v-6a10 10 0 0 1 .807-3.907 3.684 3.684 0 0 0 2.635 1.119 3.738 3.738 0 0 0 3.475-5.112l-.517-1.288a1.783 1.783 0 0 1 1.214.369 3.88 3.88 0 0 0 4.771 0 1.755 1.755 0 0 1 1.209-.362l-.511 1.281a3.73 3.73 0 0 0 2.076 4.842 3.768 3.768 0 0 0 1.4.271 3.688 3.688 0 0 0 2.63-1.114 9.946 9.946 0 0 1 .811 3.901v5.639a10.234 10.234 0 0 1 -9.822 10.361z"/><path d="m38.82 25.016c-1.133.208-3.866.787-4.769 1.691a3 3 0 0 0 0 4.243 1 1 0 0 0 .707.293 5.106 5.106 0 0 0 5-3.974c.144-.628.228-1.088.228-1.088a1 1 0 0 0 -1.163-1.165zm-3.574 4.189a1 1 0 0 1 .218-1.083 7.366 7.366 0 0 1 2.181-.8 3.106 3.106 0 0 1 -2.399 1.883z"/><path d="m29.949 30.95a3 3 0 0 0 0-4.243c-.9-.9-3.636-1.483-4.769-1.691a1 1 0 0 0 -1.163 1.165s.084.46.228 1.089a5.106 5.106 0 0 0 5 3.973 1 1 0 0 0 .704-.293zm-1.2-1.745a3.11 3.11 0 0 1 -2.4-1.883 7.321 7.321 0 0 1 2.181.8 1 1 0 0 1 .224 1.083z"/><path d="m37.492 33.13a1 1 0 0 0 -1.007.013 8.7 8.7 0 0 1 -8.97 0 1 1 0 0 0 -1.515.857v2a1 1 0 0 0 2 0v-.388a10.685 10.685 0 0 0 8 0v.388a1 1 0 0 0 2 0v-2a1 1 0 0 0 -.508-.87z"/><path d="m32 24.413a2.409 2.409 0 0 0 1.707-.705 1 1 0 0 0 -1.414-1.416.412.412 0 0 1 -.586 0 1 1 0 0 0 -1.414 1.416 2.409 2.409 0 0 0 1.707.705z"/><circle cx="32" cy="20" r="1"/><path d="m29.948 44.684a1 1 0 1 0 -1.9.632l1 3a1 1 0 1 0 1.9-.632z"/><path d="m35.316 44.051a1 1 0 0 0 -1.264.633l-1 3a1 1 0 1 0 1.9.632l1-3a1 1 0 0 0 -.636-1.265z"/><path d="m44 62a1 1 0 0 1 -1-1v-5a1 1 0 0 1 2 0v5a1 1 0 0 1 -1 1z"/><path d="m19 62a1 1 0 0 1 -1-1v-5a1 1 0 0 1 2 0v5a1 1 0 0 1 -1 1z"/><path d="m45.69 48.3a1.015 1.015 0 0 0 -1.423.017 5.706 5.706 0 0 1 -4.058 1.683h-2.609a7.719 7.719 0 0 0 -5.6 2.4 7.719 7.719 0 0 0 -5.6-2.4h-2.6a5.706 5.706 0 0 1 -4.058-1.68 1.015 1.015 0 0 0 -1.432-.02.983.983 0 0 0 -.024 1.4l.026.027a7.7 7.7 0 0 0 5.479 2.273h2.6a5.724 5.724 0 0 1 4.773 2.555 1 1 0 0 0 1.664 0 5.724 5.724 0 0 1 4.772-2.555h2.6a7.7 7.7 0 0 0 5.478-2.272l.027-.027a.983.983 0 0 0 -.015-1.401z"/></g></g></svg>