<svg viewBox="0 0 512 512.00269" xmlns="http://www.w3.org/2000/svg"><path d="m181 240.003906h150v121h-150zm0 0" fill="#ff9f00"/><path d="m256 240.003906h75v121h-75zm0 0" fill="#ff7816"/><path d="m151 331.003906h210v91h-210zm0 0" fill="#fdbf00"/><path d="m256 331.003906h105v91h-105zm0 0" fill="#ff9f00"/><path d="m121 392.003906h270v90h-270zm0 0" fill="#ffd400"/><path d="m256 392.003906h135v90h-135zm0 0" fill="#fdbf00"/><path d="m331 120.003906c0-44.402344-32.398438-81.601562-75-88.5-4.796875-1.199218-9.898438-1.5-15-1.5-49.5 0-90 40.496094-90 90 0 2.097656 0 4.199219.300781 6-27.300781 11.699219-45.300781 38.398438-45.300781 69 0 41.398438 33.601562 75 75 75h150c41.402344 0 75-33.601562 75-75 0-41.402344-33.597656-75-75-75zm0 0" fill="#ede9e8"/><path d="m451 180.003906h61v30h-61zm0 0" fill="#fdbf00"/><path d="m0 180.003906h61v30h-61zm0 0" fill="#ffd400"/><path d="m26.152344 83.554688 55.429687 22.96875-11.484375 27.710937-55.429687-22.964844zm0 0" fill="#ffd400"/><path d="m485.847656 83.542969 11.484375 27.714843-55.429687 22.96875-11.484375-27.714843zm0 0" fill="#fdbf00"/><path d="m425.699219 0 21.210937 21.210938-42.421875 42.421874-21.210937-21.210937zm0 0" fill="#fdbf00"/><path d="m86.300781.00390625 42.421875 42.42187475-21.210937 21.210938-42.421875-42.421875zm0 0" fill="#ffd400"/><path d="m331 270.003906h-75v-238.5c42.601562 6.898438 75 44.097656 75 88.5 41.402344 0 75 33.597656 75 75 0 41.398438-33.597656 75-75 75zm0 0" fill="#dfd7d5"/><path d="m91 452.003906h330v60h-330zm0 0" fill="#ffe470"/><path d="m256 452.003906h165v60h-165zm0 0" fill="#ffd400"/></svg>