<?xml version="1.0" encoding="iso-8859-1"?>
<!-- Generator: Adobe Illustrator 19.0.0, SVG Export Plug-In . SVG Version: 6.00 Build 0)  -->
<svg version="1.1" id="Capa_1" xmlns="http://www.w3.org/2000/svg" xmlns:xlink="http://www.w3.org/1999/xlink" x="0px" y="0px"
	 viewBox="0 0 510.972 510.972" style="enable-background:new 0 0 510.972 510.972;" xml:space="preserve">
<path style="fill:#ED5565;" d="M424.857,376.947c-0.32-17.021,2.879-35.148,11.342-53.682
	c19.337-42.411,29.235-82.587,30.835-119.253c3.432-71.966-24.603-130.278-73.886-164.942
	c-35.701-25.242-82.59-38.019-136.747-34.505C196.572,8.318,127.882,31.96,55.675,80.607l92.816,67.493
	c20.288-10.542,43.37-16.533,67.894-16.533c7.746,0,15.257,0.558,22.683,1.677c19.493,3.034,37.785,9.907,53.994,19.731
	c29.953,18.21,52.965,46.806,63.9,80.831c4.72,14.38,7.192,29.634,7.192,45.528c0,24.126-5.749,46.81-15.976,66.935
	c0,0,0,4.157,1.279,11.427c4.47,25.96,25.156,91.374,120.531,141.616l4.313-10.944C474.303,488.367,425.661,440.364,424.857,376.947
	z"/>
<g style="opacity:0.2;">
	<path d="M424.857,376.947c-0.32-17.021,2.879-35.148,11.342-53.682c19.337-42.411,29.235-82.587,30.835-119.253
		c3.432-71.966-24.603-130.278-73.886-164.942c-35.701-25.242-82.59-38.019-136.747-34.505
		C200.012,8.103,135.753,29.304,68.093,72.463l4.906,3.347c59.977-34.665,116.873-52.099,167.427-55.27
		c54.158-3.514,101.045,9.263,136.748,34.505c49.283,34.665,76.756,92.953,73.885,164.942
		c-2.238,56.101-15.039,73.948-25.998,119.252C419.584,361.877,424.857,376.947,424.857,376.947z"/>
</g>
<g style="opacity:0.3;">
	<path style="fill:#FFFFFF;" d="M365.434,341.72C365.777,334.341,365.434,341.72,365.434,341.72
		c10.226-20.133,14.695-54.236,14.695-78.358c0-15.898-2.473-31.151-7.191-45.531c-10.937-34.025-33.947-62.621-63.9-80.831
		c-16.21-9.825-34.501-16.697-53.994-19.731c-7.426-1.119-14.938-1.677-22.684-1.677c-24.524,0-61.919,2.438-82.208,12.98
		L68.101,72.459c-6.693,4.119-5.671,3.597-12.426,8.147l92.816,67.493c20.288-10.542,43.37-16.533,67.894-16.533
		c7.746,0,15.257,0.558,22.683,1.677c19.493,3.034,37.785,9.907,53.994,19.731c29.953,18.21,52.965,46.806,63.9,80.831
		c4.72,14.38,7.192,29.634,7.192,45.528c0,24.126-5.749,46.81-15.976,66.935c0,0,0,4.157,1.279,11.427
		c4.47,25.96,25.156,91.374,120.531,141.616C469.99,499.311,362.236,410.13,365.434,341.72z"/>
</g>
<path style="fill:#AAB2BD;" d="M216.385,155.529c68.37,0,123.807,55.433,123.807,123.804c0,30.117-10.78,57.754-28.674,79.235
	c-16.935,20.608-27.239,60.547,28.674,92.497c0,0-95.85,8.791-95.85-71.085h-0.078c6.95-12.784,12.457-26.365,16.052-40.741
	c-66.052-36.021-123.65-100.321-154.797-141.136C144.256,163.595,179.88,155.529,216.385,155.529z"/>
<g style="opacity:0.2;">
	<path d="M311.518,358.569c17.894-21.481,28.674-49.118,28.674-79.235c0-68.371-55.437-123.804-123.807-123.804
		c-3.534,0-7.059,0.105-10.585,0.273c65.85,2.843,118.417,56.982,118.417,123.531c0,30.117-10.779,57.754-28.674,79.235
		c-16.935,20.608-27.238,60.547,28.674,92.497c0,0-0.194,0.016-0.476,0.039c9.782,0.562,16.451-0.039,16.451-0.039
		C284.279,419.116,294.584,379.177,311.518,358.569z"/>
</g>
<path style="fill:#CCD1D9;" d="M260.316,339.24c-3.596,14.376-9.102,27.957-16.052,40.741
	c-42.418,79.392-135.711,126.997-135.711,126.997H84.59V347.227c0-8.783,7.106-15.975,15.975-15.975h31.95v-23.963l-55.913-7.987
	L52.64,379.177l-15.975,7.988l44.493-225.646c0.796,3.117,9.579,17.173,24.36,36.584
	C136.666,238.919,194.264,303.218,260.316,339.24z"/>
<g style="opacity:0.7;">
	<path style="fill:#FFFFFF;" d="M57.235,363.858l36.007-182.587c-7.263-10.421-11.545-17.637-12.083-19.751L36.665,387.166
		l15.975-7.988L57.235,363.858z"/>
	<path style="fill:#FFFFFF;" d="M116.541,331.253h-15.975c-8.869,0-15.975,7.191-15.975,15.975v159.751h15.975V347.227
		C100.566,338.444,107.672,331.253,116.541,331.253z"/>
</g>
<g style="opacity:0.2;">
	<path d="M105.519,198.104c-4.734-6.217-8.854-11.888-12.293-16.821l-4.642,23.549c0.32,0.418,0.64,0.835,0.96,1.26
		c31.146,40.815,88.744,105.115,154.798,141.136c-3.596,14.376-9.104,27.957-16.053,40.741
		c-32.27,60.398-93.94,102.372-121.624,119.01h1.888c0,0,93.292-47.605,135.711-126.997c6.95-12.784,12.457-26.365,16.052-40.741
		C194.264,303.218,136.666,238.919,105.519,198.104z"/>
</g>
<g style="opacity:0.2;">
	<path d="M121.494,190.116c-0.827-1.088-1.568-2.095-2.356-3.147c-4.501,3.37-9.041,7.055-13.62,11.135
		c31.147,40.815,88.745,105.115,154.797,141.136c-3.596,14.376-9.102,27.957-16.052,40.741h0.078c0,5.562,0.507,10.663,1.373,15.397
		c5.265-7.457,10.171-15.241,14.523-23.385c6.951-12.785,12.457-26.365,16.054-40.741
		C210.238,295.23,152.641,230.932,121.494,190.116z"/>
</g>
<g>
	<path style="fill:#3A3847;" d="M340.192,455.059c-0.679,0-1.357-0.163-1.981-0.522c-25.102-14.345-39.656-31.568-43.269-51.178
		c-4.188-22.793,8.034-40.687,13.487-47.325c1.42-1.7,3.924-1.95,5.624-0.546c1.708,1.396,1.95,3.916,0.554,5.616
		c-4.751,5.772-15.398,21.311-11.81,40.812c3.167,17.192,16.411,32.559,39.376,45.687c1.919,1.093,2.582,3.534,1.49,5.444
		C342.923,454.341,341.573,455.059,340.192,455.059z"/>
	<path style="fill:#3A3847;" d="M108.553,510.972H84.59c-2.208,0-3.994-1.786-3.994-3.994V347.227c0-2.207,1.786-3.993,3.994-3.993
		s3.994,1.786,3.994,3.993v155.758h18.986c9.313-4.953,93.963-51.498,133.167-124.892c7.059-12.972,12.34-26.365,15.702-39.82
		c0.53-2.138,2.722-3.448,4.844-2.902c2.146,0.53,3.439,2.699,2.909,4.836c-3.533,14.111-9.056,28.137-16.419,41.678
		c-42.504,79.556-136.459,128.176-137.403,128.651C109.809,510.824,109.185,510.972,108.553,510.972z"/>
	<path style="fill:#3A3847;" d="M36.665,391.159c-0.858,0-1.708-0.272-2.418-0.812c-1.217-0.928-1.794-2.457-1.498-3.954
		l44.493-225.646c0.421-2.168,2.551-3.561,4.688-3.147c2.16,0.429,3.572,2.527,3.144,4.692L42.156,379.958l7.153-3.58l23.471-78.222
		c0.562-1.889,2.489-3.074,4.384-2.809l55.913,7.987c1.974,0.281,3.433,1.966,3.433,3.955v23.963c0,2.207-1.787,3.993-3.994,3.993
		s-3.994-1.786-3.994-3.993v-20.499l-49.08-7.014l-22.98,76.584c-0.312,1.062-1.053,1.936-2.036,2.427l-15.975,7.987
		C37.89,391.019,37.274,391.159,36.665,391.159z"/>
	<path style="fill:#3A3847;" d="M81.166,165.436c-0.188,0-0.375-0.012-0.554-0.039c-2.192-0.304-3.713-2.32-3.409-4.505
		c0.305-2.184,2.52-3.946,4.54-3.686c2.192,0.305,3.752,2.04,3.448,4.224l-0.078,0.562C84.84,163.989,83.124,165.436,81.166,165.436
		z"/>
	<path style="fill:#3A3847;" d="M469.99,503.304c-0.64,0-1.279-0.155-1.864-0.46c-97.005-51.1-118.059-118.058-122.606-144.47
		c-1.318-7.512-1.333-11.92-1.333-12.106c0-2.2,1.786-3.986,3.985-3.986h0.008c2.2,0,3.986,1.778,3.994,3.979
		c0,0.039,0.031,3.978,1.217,10.741c4.29,24.906,24.025,87.527,114.524,136.678l1.731-4.376
		c-9.165-9.728-48.05-54.345-48.783-112.31c-0.358-18.963,3.581-37.605,11.701-55.383c18.596-40.788,28.854-80.411,30.476-117.774
		c3.3-69.088-22.34-126.436-72.192-161.499c-36.007-25.464-82.356-37.16-134.19-33.787c-62.675,3.932-131.396,29.993-198.752,75.367
		c-1.825,1.217-4.306,0.761-5.546-1.08c-1.232-1.829-0.749-4.31,1.084-5.542c68.526-46.171,138.628-72.7,202.708-76.717
		c53.627-3.471,101.779,8.701,139.306,35.23c52.153,36.685,78.994,96.49,75.562,168.394c-1.669,38.374-12.16,78.999-31.186,120.723
		c-7.621,16.685-11.318,34.157-10.982,51.942c0.771,61.1,47.785,108.191,48.261,108.659c1.139,1.123,1.497,2.815,0.904,4.306
		l-4.313,10.943c-0.413,1.054-1.256,1.889-2.324,2.278C470.925,503.226,470.458,503.304,469.99,503.304z"/>
	<path style="fill:#3A3847;" d="M148.491,152.093c-0.819,0-1.639-0.25-2.348-0.765L53.326,83.836
		c-1.786-1.295-2.176-3.795-0.881-5.577c1.295-1.794,3.799-2.176,5.577-0.881l92.816,67.493c1.786,1.295,2.176,3.795,0.881,5.577
		C150.941,151.524,149.724,152.093,148.491,152.093z"/>
	<path style="fill:#3A3847;" d="M132.516,335.246h-31.95c-2.208,0-3.994-1.786-3.994-3.993c0-2.208,1.786-3.994,3.994-3.994h31.95
		c2.208,0,3.994,1.786,3.994,3.994C136.51,333.46,134.723,335.246,132.516,335.246z"/>
	<path style="fill:#3A3847;" d="M84.59,351.221c-2.208,0-3.994-1.786-3.994-3.994c0-11.006,8.955-19.969,19.969-19.969
		c2.208,0,3.994,1.786,3.994,3.994c0,2.207-1.787,3.993-3.994,3.993c-6.607,0-11.981,5.375-11.981,11.981
		C88.584,349.435,86.798,351.221,84.59,351.221z"/>
	<path style="fill:#3A3847;" d="M260.316,343.234c-0.646,0-1.303-0.156-1.91-0.484c-73.472-40.07-133.612-112.809-156.062-142.224
		c-13.377-17.57-23.916-33.557-25.055-38.019c-0.07-0.266-0.109-0.538-0.125-0.815c-0.093-1.045,0.102-2.204,0.624-2.976
		c0.741-1.104,2.114-1.829,3.448-1.829c2.207,0,3.994,1.786,3.994,3.994c0,0.062,0,0.121-0.008,0.183
		c1.427,3.319,9.033,15.655,23.471,34.622c22.138,29.002,81.412,100.714,153.534,140.052c1.935,1.053,2.652,3.479,1.6,5.413
		C263.101,342.485,261.728,343.234,260.316,343.234z"/>
	<path style="fill:#3A3847;" d="M311.518,362.563c-0.905,0-1.81-0.305-2.559-0.921c-1.692-1.412-1.919-3.932-0.507-5.624
		c17.894-21.489,27.746-48.721,27.746-76.685c0-66.062-53.745-119.811-119.813-119.811c-30.437,0-67.099,4.938-108.207,41.564
		c-1.662,1.459-4.181,1.318-5.64-0.327c-1.467-1.646-1.326-4.169,0.32-5.64c43.113-38.405,81.583-43.585,113.526-43.585
		c70.468,0,127.801,57.333,127.801,127.798c0,29.828-10.515,58.877-29.603,81.794C313.796,362.072,312.657,362.563,311.518,362.563z
		"/>
	<path style="fill:#3A3847;" d="M348.179,350.261c-0.608,0-1.232-0.14-1.81-0.429c-1.966-0.998-2.753-3.409-1.747-5.374
		c10.312-20.297,15.538-42.208,15.538-65.125c0-15.242-2.355-30.146-6.989-44.284c-10.53-32.758-32.613-60.687-62.184-78.663
		c-16.233-9.84-33.908-16.299-52.536-19.197c-7.27-1.096-14.493-1.63-22.067-1.63c-23.292,0-45.515,5.409-66.053,16.084
		c-1.942,1.006-4.36,0.258-5.383-1.704c-1.021-1.958-0.257-4.368,1.701-5.386c28.417-14.766,61.974-19.942,93.011-15.261
		c19.68,3.065,38.338,9.883,55.468,20.265c31.217,18.978,54.524,48.463,65.632,83.027c4.898,14.918,7.387,30.656,7.387,46.749
		c0,24.188-5.522,47.316-16.412,68.744C351.035,349.466,349.631,350.261,348.179,350.261z"/>
	<path style="fill:#3A3847;" d="M331.643,455.372c-15.624,0-48.222-2.621-70.103-22.59c-14.063-12.832-21.193-30.601-21.193-52.801
		c0-2.208,1.786-3.993,3.994-3.993c2.207,0,3.994,1.785,3.994,3.993c0,19.868,6.256,35.647,18.588,46.903
		c26.482,24.158,72.465,20.258,72.902,20.203c2.145-0.219,4.142,1.412,4.345,3.619c0.202,2.192-1.42,4.135-3.612,4.338
		C340.059,455.09,336.759,455.372,331.643,455.372z"/>
	<path style="fill:#3A3847;" d="M216.385,119.585c-2.208,0-3.994-1.786-3.994-3.994v-89.86c0-2.208,1.786-3.994,3.994-3.994
		s3.994,1.787,3.994,3.994v89.86C220.379,117.799,218.593,119.585,216.385,119.585z"/>
	<path style="fill:#3A3847;" d="M190.737,121.582c-1.927,0-3.627-1.404-3.939-3.37L173.936,36.98
		c-0.343-2.176,1.146-4.224,3.323-4.567c2.129-0.347,4.22,1.135,4.571,3.319l12.863,81.233c0.343,2.176-1.146,4.224-3.323,4.567
		C191.159,121.567,190.948,121.582,190.737,121.582z"/>
	<path style="fill:#3A3847;" d="M165.745,127.573c-1.685,0-3.253-1.073-3.799-2.761l-23.72-73.168
		c-0.679-2.098,0.468-4.353,2.566-5.031c2.145-0.686,4.353,0.472,5.031,2.566l23.721,73.167c0.679,2.098-0.468,4.353-2.566,5.031
		C166.565,127.51,166.151,127.573,165.745,127.573z"/>
	<path style="fill:#3A3847;" d="M134.193,121.902c-1.451,0-2.855-0.795-3.557-2.18L104.755,69c-1.006-1.962-0.226-4.368,1.739-5.371
		c1.966-0.991,4.384-0.226,5.375,1.744l25.882,50.722c1.006,1.962,0.226,4.368-1.74,5.37
		C135.425,121.762,134.809,121.902,134.193,121.902z"/>
	<path style="fill:#3A3847;" d="M417.509,429.42c-0.819,0-1.639-0.241-2.348-0.756l-35.781-25.96
		c-1.785-1.295-2.176-3.799-0.881-5.577c1.295-1.795,3.799-2.185,5.577-0.89l35.78,25.96c1.786,1.295,2.176,3.791,0.881,5.577
		C419.959,428.85,418.742,429.42,417.509,429.42z"/>
	<path style="fill:#3A3847;" d="M408.882,381.339c-0.609,0-1.225-0.141-1.811-0.437l-43.768-22.2
		c-1.966-0.999-2.754-3.401-1.755-5.366c1.014-1.966,3.401-2.754,5.374-1.756l43.768,22.2c1.967,0.998,2.754,3.401,1.756,5.366
		C411.737,380.535,410.333,381.339,408.882,381.339z"/>
	<path style="fill:#3A3847;" d="M412.556,347.072c-0.414,0-0.827-0.062-1.24-0.195l-40.414-13.183
		c-2.098-0.687-3.237-2.94-2.559-5.031c0.687-2.106,2.934-3.237,5.039-2.566l40.414,13.183c2.098,0.687,3.236,2.94,2.559,5.031
		C415.8,346.003,414.241,347.072,412.556,347.072z"/>
	<path style="fill:#3A3847;" d="M423.672,316.159c-0.211,0-0.422-0.016-0.632-0.055l-45.53-7.185
		c-2.177-0.343-3.667-2.387-3.323-4.57c0.343-2.185,2.426-3.697,4.571-3.315l45.53,7.185c2.177,0.343,3.666,2.387,3.323,4.57
		C427.298,314.755,425.598,316.159,423.672,316.159z"/>
	<path style="fill:#3A3847;" d="M436.363,283.327H380.13c-2.207,0-3.993-1.786-3.993-3.993c0-2.208,1.786-3.994,3.993-3.994h56.233
		c2.207,0,3.993,1.786,3.993,3.994C440.356,281.541,438.57,283.327,436.363,283.327z"/>
	<path style="fill:#3A3847;" d="M378.125,257.691c-1.926,0-3.627-1.401-3.938-3.366c-0.344-2.18,1.139-4.224,3.323-4.571
		l67.816-10.784c2.129-0.378,4.22,1.135,4.57,3.315c0.344,2.18-1.139,4.224-3.322,4.571l-67.816,10.785
		C378.547,257.675,378.336,257.691,378.125,257.691z"/>
	<path style="fill:#3A3847;" d="M372.142,232.691c-1.685,0-3.253-1.073-3.799-2.762c-0.679-2.098,0.469-4.349,2.566-5.031
		l78.76-25.562c2.099-0.683,4.354,0.472,5.031,2.566c0.679,2.099-0.468,4.349-2.566,5.031l-78.76,25.562
		C372.969,232.628,372.548,232.691,372.142,232.691z"/>
	<path style="fill:#3A3847;" d="M362.236,208.966c-1.451,0-2.855-0.796-3.557-2.181c-1.007-1.966-0.219-4.372,1.747-5.37
		l86.584-44.092c1.942-0.982,4.368-0.222,5.366,1.743c1.006,1.966,0.219,4.372-1.747,5.371l-86.584,44.091
		C363.468,208.825,362.852,208.966,362.236,208.966z"/>
	<path style="fill:#3A3847;" d="M348.819,187.082c-1.232,0-2.449-0.569-3.229-1.646c-1.295-1.786-0.904-4.282,0.882-5.581
		l88.425-64.22c1.771-1.283,4.274-0.905,5.577,0.885c1.295,1.786,0.905,4.282-0.882,5.581l-88.424,64.221
		C350.458,186.836,349.638,187.082,348.819,187.082z"/>
	<path style="fill:#3A3847;" d="M332.127,167.589c-1.021,0-2.044-0.391-2.824-1.17c-1.56-1.56-1.56-4.087,0-5.647l82.668-82.668
		c1.561-1.56,4.088-1.56,5.648,0c1.56,1.561,1.56,4.088,0,5.647l-82.669,82.668C334.17,167.198,333.148,167.589,332.127,167.589z"/>
	<path style="fill:#3A3847;" d="M312.555,150.896c-0.819,0-1.638-0.249-2.348-0.764c-1.786-1.295-2.177-3.795-0.882-5.577
		l69.728-95.929c1.303-1.79,3.799-2.168,5.577-0.881c1.786,1.295,2.177,3.795,0.882,5.577l-69.728,95.929
		C315.005,150.326,313.788,150.896,312.555,150.896z"/>
	<path style="fill:#3A3847;" d="M290.668,137.48c-0.616,0-1.232-0.141-1.817-0.437c-1.958-1.002-2.746-3.405-1.739-5.371
		l52.16-102.321c0.999-1.974,3.417-2.734,5.375-1.743c1.958,1.002,2.746,3.405,1.739,5.37l-52.161,102.321
		C293.523,136.684,292.119,137.48,290.668,137.48z"/>
	<path style="fill:#3A3847;" d="M266.947,127.573c-0.406,0-0.827-0.062-1.232-0.195c-2.099-0.683-3.245-2.937-2.566-5.035
		l33.229-102.239c0.679-2.087,2.94-3.245,5.031-2.562c2.099,0.683,3.245,2.937,2.566,5.035l-33.229,102.239
		C270.199,126.5,268.632,127.573,266.947,127.573z"/>
	<path style="fill:#3A3847;" d="M242.033,121.582c-0.21,0-0.421-0.016-0.632-0.051c-2.176-0.343-3.667-2.387-3.323-4.567
		l15.413-97.45c0.344-2.181,2.441-3.678,4.571-3.319c2.176,0.343,3.666,2.387,3.323,4.567l-15.414,97.45
		C245.66,120.178,243.96,121.582,242.033,121.582z"/>
</g>
<g>
</g>
<g>
</g>
<g>
</g>
<g>
</g>
<g>
</g>
<g>
</g>
<g>
</g>
<g>
</g>
<g>
</g>
<g>
</g>
<g>
</g>
<g>
</g>
<g>
</g>
<g>
</g>
<g>
</g>
</svg>
