<svg height="512pt" viewBox="-63 0 512 512" width="512pt" xmlns="http://www.w3.org/2000/svg"><path d="m379.203125 63.117188v327.582031c0 23.480469-10.214844 45.796875-27.984375 61.144531l-38.132812 32.9375c-14.675782 12.671875-33.417969 19.644531-52.808594 19.644531h-133.777344c-19.390625 0-38.132812-6.972656-52.804688-19.644531l-38.136718-32.9375c-17.769532-15.347656-27.984375-37.664062-27.984375-61.144531v-327.582031zm0 0" fill="#c8d2dc"/><path d="m7.574219 63.117188v32.878906l18.425781 9.613281c8.617188 4.496094 18.308594 6.871094 28.027344 6.871094s19.410156-2.375 28.027344-6.871094l9.085937-4.742187c2.871094-1.496094 6.101563-2.289063 9.339844-2.289063 3.242187 0 6.46875.792969 9.34375 2.289063l18.425781 9.617187c11.707031 6.109375 25.660156 6.109375 37.371094 0l9.082031-4.742187c11.707031-6.105469 25.660156-6.105469 37.371094 0l9.082031 4.742187c11.707031 6.109375 25.664062 6.105469 37.371094 0l18.425781-9.617187c2.871094-1.496094 6.101563-2.289063 9.34375-2.289063 3.238281 0 6.46875.792969 9.339844 2.289063l9.085937 4.742187c8.613282 4.496094 18.308594 6.871094 28.027344 6.871094 3.476562 0 6.949219-.304688 10.371094-.90625 6.179687-1.085938 11.84375 3.660156 11.84375 9.9375v269.191406c0 23.476563-10.210938 45.792969-27.984375 61.140625l-38.132813 32.9375c-14.675781 12.671875-33.417968 19.644531-52.808594 19.644531h24.238282c19.390625 0 38.132812-6.972656 52.804687-19.644531l38.136719-32.9375c17.769531-15.34375 27.984375-37.664062 27.984375-61.140625v-327.585937zm0 0" fill="#b9c3cd"/><path d="m193.390625 37.871094h169.65625l-3.117187-4.453125c-11.335938-16.195313-29.867188-25.84375-49.640626-25.84375h-233.800781c-19.773437 0-38.300781 9.648437-49.640625 25.84375l-3.117187 4.453125zm0 0" fill="#c8d2dc"/><path d="m359.929688 33.417969c-11.335938-16.195313-29.867188-25.84375-49.640626-25.84375h-33.324218c19.773437 0 38.300781 9.648437 49.640625 25.84375l3.117187 4.453125h33.324219zm0 0" fill="#b9c3cd"/><path d="m7.574219 52.007812v21.207032l27.769531 14.488281c11.707031 6.109375 25.660156 6.109375 37.371094 0l9.082031-4.738281c11.707031-6.109375 25.660156-6.109375 37.367187 0l27.769532 14.488281 46.457031-24.238281 46.453125 24.238281 27.769531-14.488281c11.707031-6.109375 25.660157-6.109375 37.367188 0l9.085937 4.738281c11.707032 6.109375 25.660156 6.109375 37.367188 0l27.769531-14.488281v-21.207032c0-7.808593-6.328125-14.136718-14.136719-14.136718h-343.355468c-7.808594 0-14.136719 6.328125-14.136719 14.136718zm0 0" fill="#a2abb8"/><path d="m365.066406 37.871094h-24.238281c7.808594 0 14.140625 6.328125 14.140625 14.136718v8.964844c0 7.523438-4.183594 14.425782-10.855469 17.90625l-16.914062 8.824219c-2.125 1.109375-4.324219 2.011719-6.566407 2.714844 10.128907 3.1875 21.21875 2.285156 30.800782-2.714844l27.769531-14.488281v-21.207032c0-7.808593-6.328125-14.136718-14.136719-14.136718zm0 0" fill="#909ba6"/><path d="m379.203125 256v-82.808594h-154.507813c0-24.402344 0-49.484375 0-49.484375l15.148438-26.253906-46.453125-24.238281-46.457031 24.238281 15.148437 26.253906v49.484375h-154.507812v82.808594h154.507812v161.578125l-15.148437 26.257813 46.457031 34.335937 46.453125-34.335937-15.148438-26.257813v-161.578125zm0 0" fill="#ffe046"/><path d="m379.203125 256v-82.808594h-154.507813c0-24.402344 0-49.484375 0-49.484375l15.148438-26.253906-46.453125-24.238281-46.457031 24.238281 9.507812 16.476563c3.15625-.765626 6.238282-1.910157 9.179688-3.445313l9.082031-4.738281c5.855469-3.054688 12.269531-4.582032 18.6875-4.582032v377.007813l46.453125-34.335937-15.148438-26.257813v-161.578125zm0 0" fill="#ffd508"/><path d="m244.890625 199.449219h103.007813v30.292969h-103.007813zm0 0" fill="#5f6c75"/><path d="m141.886719 229.742188h-103.007813v-30.292969h103.007813zm0 0" fill="#5f6c75"/><path d="m65.136719 63.117188c0 5.578124-4.519531 10.097656-10.097657 10.097656-5.578124 0-10.101562-4.519532-10.101562-10.097656 0-5.578126 4.523438-10.101563 10.101562-10.101563 5.578126 0 10.097657 4.523437 10.097657 10.101563zm0 0"/><path d="m158.042969 63.117188c0 5.578124-4.519531 10.097656-10.097657 10.097656-5.578124 0-10.097656-4.519532-10.097656-10.097656 0-5.578126 4.519532-10.101563 10.097656-10.101563 5.578126 0 10.097657 4.523437 10.097657 10.101563zm0 0"/><path d="m341.839844 63.117188c0 5.578124-4.523438 10.097656-10.101563 10.097656-5.574219 0-10.097656-4.519532-10.097656-10.097656 0-5.578126 4.523437-10.101563 10.097656-10.101563 5.578125 0 10.101563 4.523437 10.101563 10.101563zm0 0"/><path d="m248.933594 63.117188c0 5.578124-4.523438 10.097656-10.101563 10.097656s-10.097656-4.519532-10.097656-10.097656c0-5.578126 4.519531-10.101563 10.097656-10.101563s10.101563 4.523437 10.101563 10.101563zm0 0"/><path d="m367.058594 30.398438-.921875-1.324219c-12.746094-18.207031-33.621094-29.074219-55.847657-29.074219h-233.800781c-22.222656 0-43.101562 10.867188-55.84375 29.074219l-.925781 1.324219c-11.039062 1.011718-19.71875 10.3125-19.71875 21.609374v65.199219c0 4.183594 3.390625 7.574219 7.574219 7.574219 4.183593 0 7.574219-3.390625 7.574219-7.574219v-31.496093l16.691406 8.707031c13.894531 7.25 30.484375 7.25 44.378906 0l9.082031-4.738281c9.507813-4.960938 20.855469-4.960938 30.363281 0l25.8125 13.46875 13.035157 22.589843v39.878907h-139.363281v-13.128907c0-4.179687-3.390626-7.574219-7.574219-7.574219-4.183594 0-7.574219 3.394532-7.574219 7.574219v238.214844c0 25.699219 11.15625 50.074219 30.605469 66.875l38.136719 32.9375c16.046874 13.851563 36.558593 21.484375 57.757812 21.484375h133.777344c21.199218 0 41.710937-7.632812 57.757812-21.488281l38.136719-32.9375c19.449219-16.796875 30.605469-41.171875 30.605469-66.875v-66.449219c0-4.183594-3.390625-7.574219-7.574219-7.574219s-7.574219 3.390625-7.574219 7.574219v66.453125c0 21.292969-9.242187 41.492187-25.359375 55.410156l-38.136719 32.933594c-13.292968 11.480469-30.289062 17.804687-47.855468 17.804687h-133.777344c-17.566406 0-34.5625-6.320312-47.855469-17.800781l-38.136719-32.9375c-16.117187-13.917969-25.359374-34.117187-25.359374-55.410156v-127.128906h139.359374v151.976562l-14.132812 24.5c-1.925781 3.335938-1.039062 7.585938 2.058594 9.875l46.453125 34.335938c1.339843.988281 2.921875 1.480469 4.503906 1.480469s3.164063-.492188 4.5-1.480469l46.453125-34.335938c3.097656-2.289062 3.984375-6.539062 2.058594-9.875l-14.132813-24.5v-151.976562h139.359375v25.246093c0 4.183594 3.390625 7.574219 7.574219 7.574219s7.574219-3.390625 7.574219-7.574219v-236.8125c0-11.296874-8.679688-20.601562-19.71875-21.609374zm4.570312 135.21875h-139.359375v-39.882813l13.03125-22.589844 25.8125-13.464843c9.507813-4.960938 20.859375-4.960938 30.363281 0l9.085938 4.738281c13.894531 7.25 30.484375 7.25 44.375 0l16.691406-8.707031zm-293.335937-89.367188-9.082031 4.738281c-9.507813 4.960938-20.859376 4.960938-30.363282 0l-23.699218-12.363281v-16.617188c0-3.617187 2.945312-6.5625 6.5625-6.5625h248.933593c4.179688 0 7.574219-3.390624 7.574219-7.574218s-3.394531-7.574219-7.574219-7.574219h-231.253906c9.820313-9.613281 23.113281-15.148437 37.097656-15.148437h233.804688c13.980469 0 27.277343 5.535156 37.09375 15.148437h-41.207031c-4.183594 0-7.574219 3.390625-7.574219 7.574219s3.390625 7.574218 7.574219 7.574218h58.886718c3.621094 0 6.566406 2.945313 6.566406 6.5625v16.617188l-23.699218 12.363281c-9.507813 4.960938-20.859375 4.960938-30.363282 0l-9.085937-4.742187c-13.890625-7.246094-30.480469-7.246094-44.375 0l-24.265625 12.664062-42.953125-22.410156c-2.195313-1.144531-4.8125-1.144531-7.003906 0l-42.953125 22.410156-24.261719-12.664062c-13.894531-7.246094-30.484375-7.246094-44.378906.003906zm146.402343 172.175781c-4.183593 0-7.574218 3.390625-7.574218 7.574219v161.578125c0 1.328125.351562 2.632813 1.011718 3.785156l11.769532 20.398438-36.511719 26.988281-36.515625-26.988281 11.769531-20.398438c.664063-1.152343 1.011719-2.457031 1.011719-3.785156v-161.578125c0-4.183594-3.390625-7.574219-7.574219-7.574219h-146.933593v-67.660156h146.933593c4.183594 0 7.574219-3.390625 7.574219-7.574219v-49.484375c0-1.328125-.347656-2.632812-1.011719-3.785156l-11.199219-19.410156 35.945313-18.753907 35.941406 18.753907-11.199219 19.410156c-.664062 1.152344-1.011718 2.457031-1.011718 3.785156v49.484375c0 4.183594 3.390625 7.574219 7.574218 7.574219h146.933594v67.660156zm0 0"/><path d="m347.898438 191.875h-103.007813c-4.179687 0-7.574219 3.390625-7.574219 7.574219v30.292969c0 4.183593 3.394532 7.574218 7.574219 7.574218h103.007813c4.183593 0 7.574218-3.390625 7.574218-7.574218v-30.292969c0-4.183594-3.390625-7.574219-7.574218-7.574219zm-7.574219 30.296875h-87.859375v-15.148437h87.859375zm0 0"/><path d="m141.886719 191.875h-103.007813c-4.183594 0-7.574218 3.390625-7.574218 7.574219v30.292969c0 4.183593 3.390624 7.574218 7.574218 7.574218h103.007813c4.183593 0 7.574219-3.390625 7.574219-7.574218v-30.292969c0-4.183594-3.390626-7.574219-7.574219-7.574219zm-7.574219 30.296875h-87.859375v-15.148437h87.859375zm0 0"/><path d="m53.523438 286.296875c0-4.183594-3.390626-7.574219-7.574219-7.574219-4.183594 0-7.574219 3.390625-7.574219 7.574219v20.195313c0 4.183593 3.390625 7.574218 7.574219 7.574218 4.183593 0 7.574219-3.390625 7.574219-7.574218zm0 0"/><path d="m93.917969 286.296875c0-4.183594-3.390625-7.574219-7.574219-7.574219s-7.574219 3.390625-7.574219 7.574219v20.195313c0 4.183593 3.390625 7.574218 7.574219 7.574218s7.574219-3.390625 7.574219-7.574218zm0 0"/><path d="m134.3125 286.296875c0-4.183594-3.390625-7.574219-7.574219-7.574219-4.183593 0-7.574219 3.390625-7.574219 7.574219v20.195313c0 4.183593 3.390626 7.574218 7.574219 7.574218 4.183594 0 7.574219-3.390625 7.574219-7.574218zm0 0"/><path d="m58.570312 341.839844v20.195312c0 4.183594 3.394532 7.574219 7.574219 7.574219 4.183594 0 7.574219-3.390625 7.574219-7.574219v-20.195312c0-4.183594-3.390625-7.574219-7.574219-7.574219-4.179687 0-7.574219 3.390625-7.574219 7.574219zm0 0"/><path d="m98.96875 341.839844v20.195312c0 4.183594 3.390625 7.574219 7.570312 7.574219 4.183594 0 7.574219-3.390625 7.574219-7.574219v-20.195312c0-4.183594-3.390625-7.574219-7.574219-7.574219-4.179687 0-7.570312 3.390625-7.570312 7.574219zm0 0"/><path d="m45.949219 389.808594c-4.183594 0-7.574219 3.390625-7.574219 7.574218v20.195313c0 4.183594 3.390625 7.574219 7.574219 7.574219 4.183593 0 7.574219-3.390625 7.574219-7.574219v-20.195313c0-4.1875-3.390626-7.574218-7.574219-7.574218zm0 0"/><path d="m86.34375 389.808594c-4.183594 0-7.574219 3.390625-7.574219 7.574218v20.195313c0 4.183594 3.390625 7.574219 7.574219 7.574219s7.574219-3.390625 7.574219-7.574219v-20.195313c0-4.1875-3.390625-7.574218-7.574219-7.574218zm0 0"/><path d="m126.738281 389.808594c-4.183593 0-7.574219 3.390625-7.574219 7.574218v20.195313c0 4.183594 3.390626 7.574219 7.574219 7.574219 4.183594 0 7.574219-3.390625 7.574219-7.574219v-20.195313c0-4.1875-3.390625-7.574218-7.574219-7.574218zm0 0"/><path d="m348.402344 286.296875c0-4.183594-3.390625-7.574219-7.574219-7.574219s-7.574219 3.390625-7.574219 7.574219v20.195313c0 4.183593 3.390625 7.574218 7.574219 7.574218s7.574219-3.390625 7.574219-7.574218zm0 0"/><path d="m308.007812 286.296875c0-4.183594-3.390624-7.574219-7.574218-7.574219s-7.574219 3.390625-7.574219 7.574219v20.195313c0 4.183593 3.390625 7.574218 7.574219 7.574218s7.574218-3.390625 7.574218-7.574218zm0 0"/><path d="m267.613281 286.296875c0-4.183594-3.390625-7.574219-7.574219-7.574219-4.183593 0-7.574218 3.390625-7.574218 7.574219v20.195313c0 4.183593 3.390625 7.574218 7.574218 7.574218 4.183594 0 7.574219-3.390625 7.574219-7.574218zm0 0"/><path d="m313.058594 341.839844v20.195312c0 4.183594 3.390625 7.574219 7.574218 7.574219 4.183594 0 7.574219-3.390625 7.574219-7.574219v-20.195312c0-4.183594-3.390625-7.574219-7.574219-7.574219-4.183593 0-7.574218 3.390625-7.574218 7.574219zm0 0"/><path d="m272.664062 341.839844v20.195312c0 4.183594 3.390626 7.574219 7.574219 7.574219 4.183594 0 7.574219-3.390625 7.574219-7.574219v-20.195312c0-4.183594-3.390625-7.574219-7.574219-7.574219-4.183593 0-7.574219 3.390625-7.574219 7.574219zm0 0"/><path d="m340.828125 389.808594c-4.183594 0-7.574219 3.390625-7.574219 7.574218v20.195313c0 4.183594 3.390625 7.574219 7.574219 7.574219s7.574219-3.390625 7.574219-7.574219v-20.195313c0-4.1875-3.390625-7.574218-7.574219-7.574218zm0 0"/><path d="m300.433594 389.808594c-4.183594 0-7.574219 3.390625-7.574219 7.574218v20.195313c0 4.183594 3.390625 7.574219 7.574219 7.574219s7.574218-3.390625 7.574218-7.574219v-20.195313c0-4.1875-3.390624-7.574218-7.574218-7.574218zm0 0"/><path d="m260.039062 389.808594c-4.183593 0-7.574218 3.390625-7.574218 7.574218v20.195313c0 4.183594 3.390625 7.574219 7.574218 7.574219 4.183594 0 7.574219-3.390625 7.574219-7.574219v-20.195313c0-4.1875-3.390625-7.574218-7.574219-7.574218zm0 0"/></svg>