<?xml version="1.0" encoding="iso-8859-1"?>
<!-- Generator: Adobe Illustrator 19.0.0, SVG Export Plug-In . SVG Version: 6.00 Build 0)  -->
<svg version="1.1" id="Capa_1" xmlns="http://www.w3.org/2000/svg" xmlns:xlink="http://www.w3.org/1999/xlink" x="0px" y="0px"
	 viewBox="0 0 512 512" style="enable-background:new 0 0 512 512;" xml:space="preserve">
<g>
	<g>
		<g>
			
				<rect x="341.346" y="160.953" transform="matrix(-0.9662 0.2579 -0.2579 -0.9662 748.2239 255.7582)" width="31.984" height="32"/>
			<polygon points="141.872,480 47.248,480 166.72,32 302.112,32 313.04,72.896 343.952,64.656 326.72,0 142.112,0 5.584,512 
				167.28,512 189.68,416 234.416,416 234.416,384 164.272,384 			"/>
			<rect x="324.843" y="99.152" transform="matrix(-0.9664 0.2572 -0.2572 -0.9664 699.8367 138.7653)" width="32" height="32"/>
			<polygon points="252.96,96 215.872,96 156.144,320 234.416,320 234.416,288 197.808,288 234.416,150.672 246.544,196.128 
				277.44,187.872 			"/>
			<path d="M410.416,224h-144v96h128c8.837,0,16,7.163,16,16v16h-64c-44.183,0-80,35.817-80,80c0,44.183,35.817,80,80,80h160V320
				C506.363,267.003,463.413,224.053,410.416,224z M474.416,480h-128c-26.51,0-48-21.49-48-48c0-26.51,21.49-48,48-48h96v-48
				c0-26.51-21.49-48-48-48h-96v-32h112c35.346,0,64,28.654,64,64V480z"/>
			<rect x="346.416" y="416" width="96" height="32"/>
		</g>
	</g>
</g>
<g>
</g>
<g>
</g>
<g>
</g>
<g>
</g>
<g>
</g>
<g>
</g>
<g>
</g>
<g>
</g>
<g>
</g>
<g>
</g>
<g>
</g>
<g>
</g>
<g>
</g>
<g>
</g>
<g>
</g>
</svg>
