<?xml version="1.0" encoding="UTF-8" standalone="no"?>
<!-- Created with Inkscape (http://www.inkscape.org/) -->

<svg
   xmlns:dc="http://purl.org/dc/elements/1.1/"
   xmlns:cc="http://creativecommons.org/ns#"
   xmlns:rdf="http://www.w3.org/1999/02/22-rdf-syntax-ns#"
   xmlns:svg="http://www.w3.org/2000/svg"
   xmlns="http://www.w3.org/2000/svg"
   xmlns:sodipodi="http://sodipodi.sourceforge.net/DTD/sodipodi-0.dtd"
   xmlns:inkscape="http://www.inkscape.org/namespaces/inkscape"
   width="64"
   height="63.999626"
   viewBox="0 0 16.933332 16.933235"
   version="1.1"
   id="svg5379"
   inkscape:version="0.92.3 (2405546, 2018-03-11)"
   sodipodi:docname="icon64.svg">
  <defs
     id="defs5373" />
  <sodipodi:namedview
     id="base"
     pagecolor="#ffffff"
     bordercolor="#666666"
     borderopacity="1.0"
     inkscape:pageopacity="0.0"
     inkscape:pageshadow="2"
     inkscape:zoom="5.3268163"
     inkscape:cx="-38.201126"
     inkscape:cy="17.035488"
     inkscape:document-units="mm"
     inkscape:current-layer="layer1"
     showgrid="false"
     fit-margin-top="0"
     fit-margin-left="0"
     fit-margin-right="0"
     fit-margin-bottom="0"
     inkscape:window-width="1920"
     inkscape:window-height="1057"
     inkscape:window-x="-8"
     inkscape:window-y="-8"
     inkscape:window-maximized="1"
     units="px" />
  <metadata
     id="metadata5376">
    <rdf:RDF>
      <cc:Work
         rdf:about="">
        <dc:format>image/svg+xml</dc:format>
        <dc:type
           rdf:resource="http://purl.org/dc/dcmitype/StillImage" />
        <dc:title />
      </cc:Work>
    </rdf:RDF>
  </metadata>
  <g
     inkscape:label="Livello 1"
     inkscape:groupmode="layer"
     id="layer1"
     transform="translate(-3.7211197,64.246093)">
    <g
       id="g844">
      <path
         style="opacity:1;fill:#267cb9;fill-opacity:1;stroke:#267cb9;stroke-width:0.047;stroke-linecap:round;stroke-linejoin:round;stroke-miterlimit:4;stroke-dasharray:none;stroke-opacity:1"
         d="M 7.5340536,-50.715739 C 3.8357838,-53.20377 3.0829198,-58.72964 6.010407,-61.899023 c 1.4683303,-1.589663 3.2806794,-2.393169 5.289334,-2.345024 0.731266,0.01755 0.993906,0.07481 1.928853,0.42067 0.646932,0.239394 1.343597,0.567196 1.731874,0.815108 l 0.649564,0.414735 1.143036,-0.143618 c 0.628671,-0.07899 1.158007,-0.111317 1.176302,-0.07184 0.01831,0.0395 -0.152921,0.371955 -0.380475,0.738846 l -0.413768,0.667055 0.252636,0.679968 0.252654,0.679961 0.621101,0.238243 c 0.341606,0.131035 0.716068,0.307212 0.832136,0.391478 0.205943,0.14951 0.189833,0.163554 -0.667357,0.581611 -0.742297,0.362032 -0.897062,0.479376 -0.99895,0.757404 -0.06632,0.180946 -0.265502,0.508363 -0.442656,0.72758 -1.263001,1.048966 -1.229098,0.90291 -1.969779,1.007927 -0.753917,0.04143 -1.543442,-0.323512 -2.365055,-1.093211 -1.725244,-1.61625 -1.927039,-1.730418 -3.0801286,-1.74259 -0.862003,-0.009 -1.5164483,0.491521 -2.1034078,1.609024 -0.1803589,0.343394 -0.3271033,0.460486 -0.9104909,0.726547 -0.3825008,0.17446 -0.6866245,0.360334 -0.6758051,0.413068 0.010843,0.05275 0.3032556,0.200135 0.6498654,0.327547 l 0.630179,0.23169 0.3312647,0.737012 0.3312825,0.737008 -0.2490591,0.441289 c -0.1369686,0.242715 -0.2955761,0.560392 -0.3524177,0.705974 l -0.1033225,0.264657 0.9499896,-0.141447 c 0.5224969,-0.0778 1.0320879,-0.111367 1.1324139,-0.0746 0.100344,0.03677 0.485337,0.278343 0.8555566,0.536837 0.789933,0.551537 2.146487,1.094274 3.06746,1.227256 0.807281,0.11657 2.00472,0.01024 2.776006,-0.246497 0.801878,-0.266916 1.990854,-1.134515 2.536277,-1.850734 0.395691,-0.519595 1.001063,-1.67719 1.510996,-2.889287 l 0.214262,-0.509279 -0.01584,0.421702 c -0.0087,0.231933 -0.13876,0.833531 -0.289066,1.336879 -0.704197,2.358474 -2.180638,4.087693 -4.343953,5.087657 -1.458337,0.674102 -2.658151,0.857643 -4.432482,0.67805 -1.050864,-0.106367 -2.6131818,-0.684233 -3.5453834,-1.311372 z"
         id="path5230-1"
         inkscape:connector-curvature="0"
         sodipodi:nodetypes="csssscscscccssssccsssssccccsccsssssssccssscc" />
      <path
         sodipodi:nodetypes="ccccscccccccscccscc"
         d="m 8.9725384,-49.94545 c -0.6146241,0 -1.1515673,-0.309975 -1.4387265,-0.770472 l -0.976525,0.523414 c -0.056808,0.03046 -0.074829,0.09873 -0.039628,0.150115 0.515527,0.752918 1.422333,1.252563 2.4548975,1.252563 1.0756136,0 2.0147686,-0.542156 2.5172916,-1.348013 l -0.982376,-0.526242 c -0.05266,-0.0282 -0.119644,-0.01365 -0.153434,0.03325 -0.297879,0.413274 -0.8054299,0.685391 -1.3814816,0.685391 z m 3.4947416,-3.412882 c 0.05631,-0.03016 0.07458,-0.09761 0.04045,-0.148931 -0.731291,-1.098809 -2.041051,-1.831092 -3.5351696,-1.831092 -1.5365897,0 -2.8782111,0.774506 -3.5961408,1.925712 l 0.9810345,0.525524 c 0.053686,0.02875 0.1220822,0.01301 0.155145,-0.03562 0.5146307,-0.757055 1.4240073,-1.259996 2.4599613,-1.259996 1.0756136,0 2.0147676,0.542167 2.5172916,1.348014 z"
         id="path2-3"
         inkscape:connector-curvature="0"
         style="clip-rule:evenodd;fill:#aaeeff;fill-opacity:1;fill-rule:evenodd;stroke:#267cb9;stroke-width:0.047;stroke-opacity:1;stroke-miterlimit:4;stroke-dasharray:none" />
      <path
         d="m 8.9725384,-48.78983 c -1.0325644,0 -1.9393706,-0.499645 -2.4548976,-1.252563 -0.035124,-0.0513 -0.017107,-0.119703 0.039628,-0.150115 l 0.9768079,-0.523234 c -0.1413548,-0.226676 -0.2222622,-0.489836 -0.2222622,-0.770535 0,-0.846897 0.7391314,-1.540827 1.6607058,-1.540827 0.5760517,0 1.0836027,0.272118 1.3814817,0.685381 0.03376,0.04681 0.100858,0.0614 0.153434,0.03325 l 0.982377,-0.526242 c -0.502524,-0.805847 -1.441679,-1.348013 -2.5172927,-1.348013 -1.0359495,0 -1.9453307,0.502941 -2.4599614,1.259994 -0.033031,0.04859 -0.1015312,0.06435 -0.1551404,0.03562 l -0.9810392,-0.525532 c -0.3533756,0.566675 -0.5556327,1.224618 -0.5556327,1.926366 0,2.117266 1.8478351,3.852089 4.1517735,3.852089 1.4941189,0 2.8038779,-0.732281 3.5351709,-1.831103 0.03412,-0.05127 0.01578,-0.118796 -0.04045,-0.148942 l -0.977449,-0.52361 c -0.502523,0.805857 -1.441678,1.348013 -2.517292,1.348013 z"
         id="path4-9"
         inkscape:connector-curvature="0"
         style="clip-rule:evenodd;fill:#5fbcd3;fill-opacity:1;fill-rule:evenodd;stroke:#267cb9;stroke-width:0.047;stroke-opacity:1;stroke-miterlimit:4;stroke-dasharray:none" />
      <path
         style="clip-rule:evenodd;fill:#5fbcd3;fill-opacity:1;fill-rule:evenodd;stroke:#267cb9;stroke-width:0.047;stroke-opacity:1;stroke-miterlimit:4;stroke-dasharray:none"
         inkscape:connector-curvature="0"
         id="path8-5"
         d="m 14.87272,-49.492276 3.19934,0.0082 -1.593042,-3.099006 z m 2.326824,-5.396551 3.018365,5.871709 c 0.315954,0.614686 -0.08397,1.384273 -0.71859,1.382654 l -6.06176,-0.01546 c -0.634585,-0.0017 -1.031249,-0.773238 -0.712665,-1.386305 l 3.043482,-5.856248 c 0.318103,-0.612063 1.115678,-0.61003 1.431168,0.0037 z" />
      <path
         inkscape:connector-curvature="0"
         id="rect1139"
         d="m 16.485182,-55.342017 c -0.120956,-3.12e-4 -0.241707,0.02985 -0.352949,0.08733 l 3.794083,7.497216 c 0.363487,-0.245477 0.527828,-0.791742 0.291454,-1.251603 l -3.018419,-5.871476 c -0.157745,-0.306865 -0.435576,-0.460754 -0.714169,-0.46147 z"
         style="opacity:1;fill:#aaeeff;fill-opacity:1;stroke:#267cb9;stroke-width:0.047;stroke-linecap:round;stroke-linejoin:round;stroke-miterlimit:4;stroke-dasharray:none;stroke-dashoffset:0;stroke-opacity:1;paint-order:fill markers stroke" />
      <path
         sodipodi:nodetypes="ccccc"
         inkscape:connector-curvature="0"
         id="path5230-1-4"
         d="m 18.094402,-53.148063 c -0.379114,0.383536 -0.875274,0.768407 -1.360123,1.060918 l 0.487309,0.947745 c 0.467017,-0.376426 0.884748,-0.801316 1.249536,-1.274857 z"
         style="opacity:1;fill:#267cb9;fill-opacity:1;stroke:#267cb9;stroke-width:0.04664591;stroke-linecap:round;stroke-linejoin:round;stroke-miterlimit:4;stroke-dasharray:none;stroke-opacity:1" />
      <path
         inkscape:connector-curvature="0"
         id="path1217"
         d="m 18.00798,-49.608616 0.06408,0.12454 -3.199288,-0.0083 1.130681,-2.175578 h -0.001 l -1.493448,2.862358 h 3.918108 z"
         style="opacity:1;fill:#aaeeff;fill-opacity:1;stroke:#267cb9;stroke-width:0.047;stroke-linecap:round;stroke-linejoin:round;stroke-miterlimit:4;stroke-dasharray:none;stroke-dashoffset:0;stroke-opacity:1;paint-order:fill markers stroke" />
      <path
         sodipodi:nodetypes="ccccscccccccc"
         inkscape:connector-curvature="0"
         id="path2-3-72"
         d="m 7.5094455,-55.08986 c -0.9023809,0.315416 -1.6560847,0.912165 -2.133276,1.677236 -0.043971,0.0705 -0.085873,0.14223 -0.1250613,0.215468 0.5512239,0.970272 1.314888,1.830275 2.2826261,2.481234 -0.1413598,-0.226652 -0.2222156,-0.489742 -0.2222156,-0.770412 0,-0.846805 0.7393313,-1.540824 1.6609368,-1.540824 0.8370322,0.132592 1.2437905,0.402351 0.2279008,-0.169481 -0.1003294,-0.03677 -0.6102708,-0.0034 -1.1327857,0.0744 l -0.9498455,0.141578 0.1033565,-0.264555 c 0.056842,-0.145566 0.2154724,-0.463652 0.3524451,-0.706341 l 0.2490895,-0.441269 z"
         style="clip-rule:evenodd;fill:#267cb9;fill-opacity:1;fill-rule:evenodd;stroke:#267cb9;stroke-width:0.04699827;stroke-miterlimit:4;stroke-dasharray:none;stroke-opacity:1" />
    </g>
  </g>
</svg>
