<?xml version="1.0" encoding="UTF-8" standalone="no"?>
<svg
   xmlns:dc="http://purl.org/dc/elements/1.1/"
   xmlns:cc="http://creativecommons.org/ns#"
   xmlns:rdf="http://www.w3.org/1999/02/22-rdf-syntax-ns#"
   xmlns:svg="http://www.w3.org/2000/svg"
   xmlns="http://www.w3.org/2000/svg"
   xmlns:sodipodi="http://sodipodi.sourceforge.net/DTD/sodipodi-0.dtd"
   xmlns:inkscape="http://www.inkscape.org/namespaces/inkscape"
   version="1.1"
   id="svg582"
   sodipodi:docname="scribblePlatformer_vector - Copia.svg"
   inkscape:version="0.92.3 (2405546, 2018-03-11)">
  <metadata
     id="metadata586">
    <rdf:RDF>
      <cc:Work
         rdf:about="">
        <dc:format>image/svg+xml</dc:format>
        <dc:type
           rdf:resource="http://purl.org/dc/dcmitype/StillImage" />
      </cc:Work>
    </rdf:RDF>
  </metadata>
  <sodipodi:namedview
     pagecolor="#ffffff"
     bordercolor="#666666"
     borderopacity="1"
     objecttolerance="10"
     gridtolerance="10"
     guidetolerance="10"
     inkscape:pageopacity="0"
     inkscape:pageshadow="2"
     inkscape:window-width="1920"
     inkscape:window-height="1057"
     id="namedview584"
     showgrid="false"
     inkscape:zoom="0.59"
     inkscape:cx="422.16151"
     inkscape:cy="494.45295"
     inkscape:window-x="-8"
     inkscape:window-y="-8"
     inkscape:window-maximized="1"
     inkscape:current-layer="svg582" />
  <defs
     id="defs2" />
  <g
     id="g2283"
     transform="matrix(1.0564062,0,0,1.0443378,476.09337,-116.96739)"
     inkscape:export-xdpi="96"
     inkscape:export-ydpi="96">
    <path
       d="m 153.33898,-86.30508 v 60 h -60 v -60 h 60"
       id="path36"
       inkscape:connector-curvature="0"
       style="fill:#ffffff;stroke:none" />
    <path
       d="m 93.33898,-86.30508 q 2.65,1.9 2.9,2.65 0.3,0.75 1.75,2.05 l 2.85,2.8 h 3.95 l 4.35,0.05 4.15,-0.15 3.6,0.05 3.85,0.35 3.6,-0.25 3.95,-0.4 4.85,0.55 q 2.45,0.4 4,0.05 l 3.85,-0.15 2.7,0.15 2.15,-0.25 q 1.35,-1.4 2.3,-3.1 0.95,-1.65 2.1,-2.1 1.2,-0.4 3.1,-2.3 m -7.5,7.5 q -0.05,2 -0.5,3.7 -0.45,1.75 0,4 0.5,2.3 0.5,3.9 l -0.15,4 -0.35,4.4 q -0.25,2.05 0.1,3.8 0.4,1.8 0.4,3.6 v 3.95 q 0,2.15 -0.5,4.65 -0.5,2.55 -0.4,4.4 l 0.35,3.15 q 0.25,1.35 0.55,1.45 1.45,1.4 2.35,2.85 0.9,1.45 2.05,2.2 1.2,0.75 3.1,2.45 m -25.1,-45.3 q 0.75,1.85 0.2,3.95 -0.55,2.15 -0.7,4.35 l -0.25,4 q -0.05,1.75 0.8,2.6 0.85,0.9 -0.05,2.35 l -4.05,-0.2 -2.95,-0.2 -2.75,0.4 q -0.15,-2.05 0.3,-4.05 0.45,-2 0.15,-4 l -0.8,-3.9 q -0.5,-1.9 -0.25,-3 l 0.6,-2.3 4.1,0.25 3.2,-0.35 2.45,0.1 m 0.15,25.55 q -0.15,1.45 -2,2.9 -1.8,1.5 -3.8,1.35 -2,-0.15 -2.9,-1.45 -0.85,-1.25 -0.65,-3.25 0.25,-1.95 1.8,-2.85 1.6,-0.9 3.35,-0.85 1.8,0.1 2.5,0.85 0.7,0.8 1.7,3.3 m 17.45,12.25 -4.45,0.05 -4.05,0.1 -3.45,0.45 -4,-0.1 -4,-0.3 -4,0.2 -4.15,-0.25 -4.05,0.15 q -1.85,0.3 -4.05,0 l -4.15,-0.3 h -2.4 -2.25 l -2.8,2.7 -2.15,2.15 -2.55,2.65 m 7.5,-7.5 v -4.1 l -0.05,-3.95 -0.1,-3.8 q -0.1,-1.8 0.15,-3.75 0.25,-1.9 -0.2,-4.5 -0.4,-2.55 -0.4,-4.4 0,-1.8 0.35,-3.45 l 0.4,-4 q 0.05,-2.35 -0.55,-4.25 -0.55,-1.9 -0.25,-3.85 l 0.5,-2.8 0.15,-2.15"
       id="path38"
       inkscape:connector-curvature="0"
       style="fill:none;stroke:#b2b7bb;stroke-width:2;stroke-linecap:round;stroke-linejoin:round" />
    <path
       d="m 153.33898,-86.30508 v 4 q 0,2.8 0.3,4.75 0.3,2 -0.45,3.65 -0.75,1.7 -0.65,3.3 0.1,1.6 0.75,4.2 0.65,2.65 0.35,3.9 -0.3,1.3 -0.1,3.95 l 0.4,4.9 q 0.15,2.25 -0.2,4.2 -0.35,2 -0.4,3.55 l 0.05,3.6 q 0.1,2 -0.35,4.45 -0.45,2.45 0.4,4 0.85,1.55 0.4,2.15 -0.4,0.65 -0.5,5.4 l -3.75,-0.35 -3.7,0.45 q -1.8,0.4 -4.4,0 l -4.75,-0.2 -3.55,0.15 -3.65,-0.3 -4.7,-0.4 -3.95,0.45 -4,0.15 -3.85,-0.2 -3.85,0.6 q -2.5,0.45 -3.8,0.05 l -3.7,-0.6 q -2.35,-0.2 -3.7,0.45 l -4.65,-0.25 q -0.2,-2.25 -0.1,-4.15 l 0.05,-3.9 -0.25,-4 q -0.2,-1.95 0.05,-3.95 l 0.65,-4.05 q 0.35,-2 -0.4,-4 -0.7,-2 -0.1,-4.4 0.6,-2.35 0.55,-3.9 -0.05,-1.55 -0.6,-3.6 -0.5,-2.05 -0.25,-4.25 l 0.3,-3.95 -0.1,-4.2 q -0.1,-2.5 0.25,-4.25 l 0.55,-2.55 q 0.15,-0.75 -0.6,-4.85 l 3.9,0.05 4.5,0.05 4.2,0.2 q 1.7,0.25 3.85,-0.05 l 4,0.1 3.85,-0.25 3.8,-0.4 4,0.25 3.95,0.25 q 1.75,0.25 3.55,0.05 l 4.1,0.1 4.2,0.4 4.3,-0.5 3.05,-0.55 4.75,0.3"
       id="path40"
       inkscape:connector-curvature="0"
       style="fill:none;stroke:#2a2a2a;stroke-width:2;stroke-linecap:round;stroke-linejoin:round" />
  </g>
  <g
     id="g2273"
     transform="matrix(1.0564062,0,0,1.0443378,505.67274,-116.96739)"
     inkscape:export-xdpi="96"
     inkscape:export-ydpi="96">
    <path
       d="m 5.33898,-86.30508 v 60 h -60 v -60 h 60"
       id="path42"
       inkscape:connector-curvature="0"
       style="fill:#ffffff;stroke:none" />
    <path
       d="m -54.66102,-65.85508 q 1.65,0.1 3.35,1.35 1.7,1.3 3.65,1.95 l 3.85,1.05 3.7,0.55 3.9,-0.25 4.35,-0.65 q 2.25,-0.2 3.7,-2.05 1.45,-1.85 2.9,-2.4 l 3.65,-1.8 q 2.2,-1.25 4.15,-2 1.95,-0.7 3.9,-0.65 h 4.05 l 4.15,0.3 q 2.05,0.35 4.35,1.55 2.3,1.2 3.15,1.35 0.85,0.2 3.2,1.7"
       id="path44"
       inkscape:connector-curvature="0"
       style="fill:none;stroke:#b2b7bb;stroke-width:2;stroke-linecap:round;stroke-linejoin:round" />
    <path
       d="m 5.33898,-86.30508 v 4.35 q 0.1,1.8 0.5,3.7 0.45,1.95 0.05,4.2 l -0.45,2.85 -0.1,1.35 q 0.4,2.9 0.2,4.2 l -0.1,3.55 q 0.1,2.2 -0.4,4.3 -0.5,2.1 -0.05,3.95 0.45,1.9 0.35,4.25 -0.05,2.4 0.15,4.15 0.2,1.75 -0.25,3.65 -0.45,1.95 -0.6,3.95 -0.15,2 0.2,4.05 l 0.3,3.1 0.2,4.4 q -2.35,-0.95 -4.15,-0.75 l -4.25,0.2 -4,0.35 -3.4,0.3 -4.35,-0.5 q -2.55,-0.35 -4.45,0.05 l -3.3,0.45 -3.85,-0.5 -4.15,0.3 q -1.75,0.75 -3.75,0.35 -2,-0.35 -4.15,0.05 -2.15,0.4 -4,0.05 l -4.05,-0.3 -3.25,0.15 -4.9,-0.2 -0.1,-4.1 -0.2,-3.85 q -0.1,-1.85 0.15,-4 l 0.4,-4.1 -0.15,-4.35 -0.65,-4.1 q -0.3,-1.7 0.35,-3.8 0.7,-2.05 0.05,-3.85 -0.6,-1.75 0,-3.9 0.65,-2.1 0.35,-2.6 -0.3,-0.45 -0.2,-4.9 -0.3,-1.95 -0.15,-4.5 v -4.15 l -0.35,-3.5 q -0.25,-1.85 0.2,-2.8 0.45,-0.9 0.3,-1.5 2.05,-0.05 3.9,0.05 l 4.2,0.25 3.95,0.2 3.85,-0.25 4,-0.25 3.9,-0.2 3.95,-0.4 3.75,0.2 4.25,0.4 4.5,0.15 q 2.15,0.2 4.2,0 l 3.8,-0.65 q 1.7,-0.4 3.85,0 l 3,0.4 4.9,0.1 m -60,16.45 q 1.35,1 3.25,1.3 1.95,0.35 3.7,1.4 1.75,1.05 3.45,1.55 l 4.2,0.6 4.4,-0.45 3.9,-1.05 q 2,-0.4 3.7,-1.75 1.7,-1.35 3.4,-2.45 1.75,-1.05 3.55,-1.25 1.8,-0.15 4.15,-1.05 l 4,-1.2 3.65,-0.65 q 2.1,-0.3 4.3,-0.05 2.25,0.25 3.8,1.25 l 2.85,1.7 3.7,2.1"
       id="path46"
       inkscape:connector-curvature="0"
       style="fill:none;stroke:#2a2a2a;stroke-width:2;stroke-linecap:round;stroke-linejoin:round" />
  </g>
  <g
     id="g2268"
     transform="matrix(1.0564062,0,0,1.0443378,520.46243,-116.96739)"
     inkscape:export-xdpi="96"
     inkscape:export-ydpi="96">
    <path
       d="m -128.66102,-26.30508 v -60 h 60 v 60 h -60"
       id="path48"
       inkscape:connector-curvature="0"
       style="fill:#ffffff;stroke:none" />
    <path
       d="m -128.66102,-67.55508 q 0.9,1.85 2.25,3.1 l 2.75,2.8 2.3,2.65 q 0.9,1.2 2.7,2.7 l 2.45,-2.95 2.4,-2.6 2.55,-3.15 q 0.95,-1.15 2.6,-2.55 l 3.05,3.05 q 1.6,1.5 2.5,3.35 0.95,1.9 2.05,2.25 1.15,0.4 2.4,2.6 2.15,-1.35 2.95,-2.95 0.85,-1.55 1.85,-3 1.05,-1.45 2.05,-2.05 1.05,-0.6 3.15,-3.25 l 2.4,2.65 2.9,3.25 2.05,2.65 q 0.65,1.1 2.65,2.7 2.05,-1.5 2.75,-3 0.75,-1.45 1.85,-3.15 1.15,-1.65 2.5,-2.15 1.4,-0.5 2.9,-2.95"
       id="path50"
       inkscape:connector-curvature="0"
       style="fill:none;stroke:#b2b7bb;stroke-width:2;stroke-linecap:round;stroke-linejoin:round" />
    <path
       d="m -68.66102,-86.30508 q -0.5,1.35 -0.4,3.6 0.1,2.25 0.35,3.9 l 0.15,3.35 -0.1,1.9 0.1,4.7 -0.2,3.85 q -0.1,2 0.4,4.15 0.5,2.15 -0.05,3.65 -0.55,1.5 -0.4,3.25 l 0.1,4.05 v 3.95 l -0.05,4.5 -0.1,4.4 -0.15,3.55 q -0.1,1.95 0.35,3.2 0.5,1.25 0,4 l -4.05,0.3 -4,-0.1 -3.9,-0.2 -3.9,0.25 -4,-0.1 -3.65,0.3 q -1.7,0.45 -4.3,-0.05 l -4.8,-0.4 -3.8,-0.3 -3.5,0.1 -4.4,0.35 -4.15,0.1 -3.85,0.1 q -2.1,-0.1 -2.9,-0.6 l -4.8,0.25 q 0.75,-2.15 0.5,-4.2 l -0.4,-3.75 -0.2,-4.3 -0.25,-4.05 q -0.15,-1.45 0.6,-3.55 0.75,-2.1 0.25,-4.1 -0.5,-1.95 -0.6,-3.8 -0.05,-1.85 0.3,-4.35 0.35,-2.5 0.05,-4.2 -0.3,-1.65 -0.15,-3.7 0.2,-2 -0.05,-2.9 -0.25,-0.85 -0.05,-4.35 l 0.05,-3.6 -0.2,-3.95 q -0.1,-2.3 0.2,-3.05 0.3,-0.7 -0.05,-2.15 l 3.9,0.2 4.2,-0.4 3.8,0.35 4.3,-0.05 3.85,-0.35 3.75,0.45 3.95,0.15 3.85,-0.5 3.8,0.1 4.15,0.1 q 2.45,-0.1 4.25,0.05 l 4.35,0.45 q 2.55,0.3 4.2,-0.4 l 2.3,-0.7 5.35,0.55 m -60,12.75 q 1.55,1.55 2.75,3.4 1.25,1.85 2.45,3.05 l 2.2,2.2 2.6,2.6 q 2.1,-1 2.95,-2.85 0.9,-1.8 2.3,-3.55 l 1.9,-2.65 q 0.55,-0.9 2.85,-2.2 l 2.8,2.7 q 1.5,1.25 2.7,3.1 l 1.85,2.55 2.65,2.9 q 1.4,-0.9 2.3,-2.6 0.9,-1.65 2.15,-3.3 1.25,-1.65 2.35,-2.2 1.15,-0.5 3.2,-3.15 l 2.65,3.5 q 1.1,1.8 2.9,2.85 1.8,1.05 2.25,2.2 0.5,1.15 2.2,2.7 1.3,-2.3 2.65,-3.3 1.4,-0.95 2.5,-2.85 1.1,-1.9 1.95,-2.2 0.9,-0.25 2.9,-2.9"
       id="path52"
       inkscape:connector-curvature="0"
       style="fill:none;stroke:#2a2a2a;stroke-width:2;stroke-linecap:round;stroke-linejoin:round" />
  </g>
  <g
     id="g2278"
     transform="matrix(1.0564062,0,0,1.0443378,490.88305,-116.96739)"
     inkscape:export-xdpi="96"
     inkscape:export-ydpi="96">
    <path
       d="m 79.33898,-86.30508 v 60 h -60 v -60 h 60"
       id="path54"
       inkscape:connector-curvature="0"
       style="fill:#ffffff;stroke:none" />
    <path
       d="m 79.33898,-86.30508 q -0.5,1.35 -0.4,3.6 0.1,2.25 0.35,3.9 0.25,1.65 0.15,4.35 l -0.1,4.4 v 3.7 l 0.25,4.2 0.3,4 -0.2,3.8 -0.55,3.65 q -0.35,1.65 -0.1,3.7 l 0.3,4.5 v 4.4 l 0.05,3.9 -0.05,2.85 v 5.05 l -3.85,-0.25 -4.25,0.2 -4.1,0.05 -4.1,-0.05 -3.45,0.15 q -1.8,0.2 -4.45,0 l -4.15,-0.2 -3.95,0.05 -4.1,0.05 -3.3,0.15 -3.6,-0.2 q -2,-0.35 -4.3,0.05 l -4.25,0.45 -3.05,-0.05 -5.1,-0.4 v -4 q 0,-1.2 0.3,-3.25 0.3,-2 -0.45,-4.35 -0.75,-2.3 -0.65,-4.7 0.1,-2.4 0.75,-3.8 0.65,-1.35 0.35,-4.1 -0.3,-2.7 -0.1,-4.05 l 0.4,-3.1 q 0.15,-1.75 -0.2,-3.8 -0.35,-2 -0.4,-4.45 l 0.05,-4.4 q 0.1,-2 -0.35,-3.55 -0.45,-1.55 0.4,-4 0.85,-2.45 0.4,-3.85 -0.4,-1.35 -0.5,-4.6 l 3.7,-0.25 4.25,0.65 4.05,0.35 q 2,-0.2 4.5,0 2.5,0.2 4,0 l 3.45,-0.2 4,-0.65 4.05,-0.25 4,0.8 4.05,0.5 q 2.05,0.05 3.7,-0.65 1.7,-0.7 3.85,-0.45 2.15,0.3 4.7,-0.05 l 3.1,-0.2 4.6,0.4"
       id="path56"
       inkscape:connector-curvature="0"
       style="fill:none;stroke:#2a2a2a;stroke-width:2;stroke-linecap:round;stroke-linejoin:round" />
    <path
       d="m 69.33898,-76.30508 q -0.15,2.25 0.05,4.1 l 0.05,3.5 q -0.1,1.65 0.1,4.2 0.25,2.55 0,3.95 -0.2,1.45 -0.25,3.85 l 0.05,4.7 -0.05,3.8 -0.3,3.7 q -0.2,2.15 0.2,3.3 0.4,1.2 0.15,4.9 l -4,-0.3 q -2,-0.2 -3.85,0 l -4.3,0.25 -4.2,-0.1 -3.95,0.1 -3.95,0.2 -4.1,-0.1 -4.4,0.1 -2.95,-0.05 -4.3,-0.1 q 0.15,-1.95 -0.2,-4 l -0.35,-4.05 0.1,-3.85 0.3,-3.85 0.2,-4.55 -0.1,-4.05 q -0.2,-1.55 -0.25,-3.45 l 0.15,-4.15 0.3,-2.95 -0.15,-5.1 q 1.8,0.9 3.9,0.9 l 4.35,-0.5 4,-0.25 3.4,0.35 4.5,-0.2 4.2,-0.5 3.9,-0.2 4.15,0.3 2.65,0.25 4.95,-0.15"
       id="path58"
       inkscape:connector-curvature="0"
       style="fill:none;stroke:#b2b7bb;stroke-width:2;stroke-linecap:round;stroke-linejoin:round" />
  </g>
  <g
     id="g2298"
     transform="matrix(1.0564062,0,0,1.0443378,431.72431,-116.96739)"
     inkscape:export-xdpi="96"
     inkscape:export-ydpi="96">
    <path
       d="m 375.33898,-86.30508 v 60 h -60 v -60 h 60"
       id="path60"
       inkscape:connector-curvature="0"
       style="fill:#ffffff;stroke:none" />
    <path
       d="m 375.33898,-86.30508 q -0.5,1.65 -0.3,3.75 l 0.25,4.65 0.05,4.35 q 0,1.8 0.5,4 0.5,2.2 0,4 -0.5,1.8 -0.55,3.8 v 3.35 l 0.05,3.75 v 4.8 l 0.05,4.5 q 0.05,2.05 -0.3,3.35 -0.3,1.3 -0.15,3.55 0.15,2.3 0.7,3.95 0.6,1.65 0.1,2.8 -0.5,1.15 -0.4,5.4 l -4,-0.1 q -2.2,0.4 -4.1,0 l -4.35,-0.15 -3.9,0.55 -3.75,-0.3 -4.15,-0.25 -3.6,0.25 -3.7,-0.55 q -1.9,-0.45 -4.3,0.05 -2.4,0.55 -4.65,0 l -3.95,0.1 -4.1,0.5 -4.25,-0.45 -2.15,0.1 -5.05,0.25 -0.05,-3.7 v -4.1 l 0.1,-4.2 0.1,-3.75 v -4.1 q 0.05,-2.15 0.35,-3.7 0.3,-1.55 -0.3,-4.05 l -0.8,-4.4 q -0.25,-1.95 0.2,-4.3 l 0.5,-3.9 q 0,-1.55 -0.4,-3.65 -0.4,-2.1 -0.15,-3.9 0.3,-1.8 0.15,-3.9 -0.1,-2.1 0.1,-3.6 l 0.2,-4.75 q 1.5,-0.65 3.6,-0.4 l 4.35,-0.1 4.15,0.35 q 1.9,0.7 3.9,0.4 l 4,-0.3 4.25,0.2 q 2.25,0.2 4.3,0 l 3.8,-0.2 3.45,-0.35 3.9,-0.3 4.3,0.5 4,0.4 4.05,-0.1 2.95,-0.15 5,0.05"
       id="path62"
       inkscape:connector-curvature="0"
       style="fill:none;stroke:#2a2a2a;stroke-width:2;stroke-linecap:round;stroke-linejoin:round" />
    <path
       d="m 365.33898,-76.30508 q -0.2,1.85 0.15,4.4 0.35,2.55 0,4.05 -0.3,1.5 0.2,3.75 0.55,2.25 0.1,4 -0.4,1.8 -0.45,3.3 l 0.15,3.9 v 4.65 l -0.55,4.3 q -0.4,2.1 -0.35,2.85 l 0.75,4.8 -3.55,0.25 -3.1,-0.25 -3.55,0.25 -3.15,-0.25 -2.6,-0.05 -4.05,0.05 q -2.1,0.85 -3,0.4 -0.85,-0.45 -3.65,-0.4 l -2.6,-0.05 -4.1,0.05 h -3.2 -3.45 q 0.15,-1.95 -0.2,-4 l -0.35,-4.05 0.1,-3.85 0.3,-3.85 0.2,-4.55 -0.1,-4.05 q -0.2,-1.55 -0.25,-3.45 l 0.15,-4.15 0.3,-2.95 -0.15,-5.1 3.05,0.1 3.6,-0.1 3.05,0.1 3.65,-0.1 3,0.2 3.65,-0.2 3,0.2 3.65,-0.2 q 2.1,0.85 2.6,0.35 l 4.1,-0.35 2.85,0.55 q 1.05,0.3 3.8,-0.55 m -20,0 q 0.2,1.6 0,4.2 l -0.35,3.8 q -0.15,1.2 0.1,3.85 l 0.25,4.55 -0.45,3.8 q -0.4,1.95 0,3.55 0.4,1.65 -0.05,3.8 -0.4,2.2 -0.15,4.35 l 0.15,2.7 q -0.1,0.5 0.5,5.4 m 6.65,-40 q 0.1,2.85 -0.4,4.35 -0.5,1.55 -0.4,3.7 0.1,2.15 0.8,4.1 0.75,2 0.3,3.95 -0.45,2 0,3.9 0.5,1.9 -0.25,4.3 -0.7,2.4 -0.4,3.8 0.3,1.45 0.4,3.85 v 3.15 q -0.1,0.75 -0.05,4.9 m 6.7,-40 q -0.2,2.25 -0.15,4.55 l 0.1,3.75 0.05,3.85 -0.1,4.2 q -0.1,1.85 0.4,3.75 0.5,1.95 0.2,3.55 l -0.6,4.3 q -0.3,2.65 -0.05,4.4 l 0.65,2.8 q 0.35,1.1 -0.5,4.85 m -26.7,-40 q -0.15,2.25 0.05,4.1 l 0.05,3.5 q -0.1,1.65 0.1,4.2 0.25,2.55 0,3.95 -0.2,1.45 -0.25,3.85 l 0.05,4.7 -0.05,3.8 -0.3,3.7 q -0.2,2.15 0.2,3.3 0.4,1.2 0.15,4.9 m 6.7,-40 q 0.2,1.6 0,4.2 l -0.35,3.8 q -0.15,1.2 0.1,3.85 l 0.25,4.55 q 0,1.9 -0.45,3.8 -0.4,1.95 0,3.55 0.4,1.65 -0.05,3.8 -0.4,2.2 -0.15,4.35 l 0.15,2.7 q -0.1,0.5 0.5,5.4"
       id="path64"
       inkscape:connector-curvature="0"
       style="fill:none;stroke:#b2b7bb;stroke-width:2;stroke-linecap:round;stroke-linejoin:round" />
  </g>
  <g
     id="g2263"
     transform="matrix(1.0564062,0,0,1.0443378,-18.018247,0.74186714)"
     inkscape:export-xdpi="96"
     inkscape:export-ydpi="96">
    <path
       d="m 381.06779,-199.01694 v 60 h -60 v -60 h 60"
       id="path66"
       inkscape:connector-curvature="0"
       style="fill:#ffffff;stroke:none" />
    <path
       d="m 381.06779,-139.01694 h -4.5 l -3.95,0.35 q -1.55,0.25 -3.6,-0.05 l -4.2,-0.4 -4,0.4 -3.8,0.1 -4.25,-0.45 h -4.2 l -3.9,0.05 h -3.8 l -4.15,-0.05 -4,0.05 -4.15,0.05 -3,0.05 -4.5,-0.1 q -0.35,-2.95 -0.15,-4.75 0.2,-1.75 -0.25,-3.8 -0.4,-2.05 0,-3.65 0.4,-1.55 0.6,-3.7 0.2,-2.1 -0.35,-4.5 -0.55,-2.35 -0.45,-3.95 0.15,-1.55 0.7,-3.55 0.6,-2 0.15,-4.5 -0.4,-2.45 -0.15,-3.7 l 0.25,-3.65 -0.15,-3.95 q -0.15,-1.6 0,-3.95 0.2,-2.35 -0.05,-4.3 l -0.25,-2.85 0.1,-5.2 3.75,0.1 4.1,-0.05 4.3,0.2 q 2.1,0.3 3.5,0 l 4.05,-0.35 4.45,-0.15 3.4,0.25 4.45,0.2 4.45,-0.4 q 1.5,-0.15 3.4,0 l 3.95,-0.05 4.55,0.45 4.1,0.65 2.55,-0.45 5,-0.4 -0.15,4.25 q -0.2,2 0.2,3.9 0.4,1.95 0.15,4.1 l -0.35,3.95 -0.3,3.45 q -0.2,1.65 0.25,4.4 0.45,2.75 0.2,4.45 -0.2,1.7 -0.1,3.8 0.1,2.1 0.35,3.75 l 0.4,3.7 -0.05,4.2 -0.25,4.15 q -0.1,1.9 0.25,3.85 0.4,2 0.1,2.65 -0.25,0.7 -0.7,5.4"
       id="path68"
       inkscape:connector-curvature="0"
       style="fill:none;stroke:#2a2a2a;stroke-width:2;stroke-linecap:round;stroke-linejoin:round" />
  </g>
  <g
     id="g2313"
     transform="matrix(1.0564062,0,0,1.0443378,520.25115,-131.2226)"
     inkscape:export-xdpi="96"
     inkscape:export-ydpi="96">
    <path
       d="m -68.66102,47.69492 h -60 v -60 l 60,60"
       id="path74"
       inkscape:connector-curvature="0"
       style="fill:#ffffff;stroke:none" />
    <path
       d="m -128.66102,-4.30508 2.7,2.65 2.7,2.75 2.75,2.95 2.75,2.5 2.95,2.6 3.05,2.9 2.7,3 q 1.35,1.6 3.25,2.85 1.9,1.3 2.55,3.2 0.7,1.95 2.25,3.25 l 2.7,2.4 2.9,2.95 3.15,3.15 2.6,2.45 2.8,2.2 q 1.6,1.15 2.8,2.55 l 3.1,2.95 q 1.85,1.5 2,2.3 0.2,0.8 2.3,2.4"
       id="path76"
       inkscape:connector-curvature="0"
       style="fill:none;stroke:#b2b7bb;stroke-width:2;stroke-linecap:round;stroke-linejoin:round" />
    <path
       d="m -68.66102,47.69492 -4.05,-0.05 -3.95,0.25 q -2,0.25 -4,0 l -4,-0.2 -3.85,0.1 -4,-0.2 -4.15,-0.6 -4.2,0.2 -4.35,0.4 -3.8,0.35 q -1.6,0.45 -3.5,0 l -4,-0.4 -4.5,0.35 -2.75,0.05 -4.9,-0.25 q -0.2,-2 -0.1,-4.05 0.15,-2.05 -0.3,-4.05 -0.45,-1.95 0,-4.1 0.5,-2.15 0.6,-4.05 l 0.2,-3.9 q 0.15,-2 -0.15,-3.6 -0.25,-1.6 -0.15,-3.9 v -4.35 l -0.15,-4.5 0.05,-3.8 0.5,-3.55 q 0.45,-2.2 0.35,-4.65 -0.1,-2.45 -0.4,-3.6 -0.3,-1.1 0,-2.4 0.35,-1.3 -0.45,-5.5 l 2.4,2.45 2.75,3.05 q 1.75,2.05 3.1,2.65 1.4,0.65 3,2.85 1.6,2.2 2.85,3.3 l 2.85,2.4 3.25,2.65 2.95,2.85 2.15,3 q 0.85,1.55 2.45,2.55 1.65,1 3.1,2.7 l 2.45,3.25 q 1,1.55 2.65,2.95 l 2.8,2.4 2.95,2.7 3.2,3.05 2.75,2.8 2.7,3.2 2.7,3.1 2.85,2.15 q 1.5,0.75 2.3,1.7 l 1.8,2.25"
       id="path78"
       inkscape:connector-curvature="0"
       style="fill:none;stroke:#2a2a2a;stroke-width:2;stroke-linecap:round;stroke-linejoin:round" />
  </g>
  <g
     id="g2303"
     transform="matrix(1.0564062,0,0,1.0443378,416.93462,-116.96739)"
     inkscape:export-xdpi="96"
     inkscape:export-ydpi="96">
    <path
       d="m 449.33898,-26.30508 h -60 v -55 l 2.85,1.6 q 10.15,5.3 19.5,2.35 3.9,-1.2 7.65,-3.95 l 1.85,-1.05 q 4.85,-2.75 9.45,-3.6 l 3.35,-0.35 h 1.4 q 2.3,0.05 4.65,0.65 l 2.3,0.7 q 2.7,0.9 5.35,2.6 l 1.65,1.05 v 55"
       id="path90"
       inkscape:connector-curvature="0"
       style="fill:#ffffff;stroke:none" />
    <path
       d="m 389.33898,-72.35508 q 1.4,1.7 3.15,2.95 l 3.1,2 3.2,2.25 q 1.9,1.55 3.8,1.65 l 3.5,-0.2 3.9,-1.1 q 2.25,-0.8 3.65,-1.95 l 2.45,-2 3.25,-3.6 q 0.8,-1.55 2.1,-2.75 1.3,-1.2 3.6,-2.15 l 4,-1.5 3.5,-1.35 q 1.85,-0.75 3.9,-0.65 2.1,0.15 3.6,0.8 1.55,0.65 3.4,2.25 l 3.35,2.75 2.55,2.6"
       id="path92"
       inkscape:connector-curvature="0"
       style="fill:none;stroke:#b2b7bb;stroke-width:2;stroke-linecap:round;stroke-linejoin:round" />
    <path
       d="m 435.38898,-86.30508 3.7,0.4 q 2.25,0.55 4.15,1.85 1.9,1.35 3,1.65 l 3.1,1.1 -0.15,3.75 v 3.8 l 0.15,3.75 0.15,4.8 q 0.2,2.6 -0.1,4.55 l -0.65,3.65 q -0.3,1.65 0.05,3.75 l 0.95,4.05 q 0.6,1.95 -0.2,4.3 -0.8,2.4 -0.5,3.8 0.3,1.4 0.25,3.5 -0.05,2.15 -0.5,4 -0.4,1.9 0.05,3.05 0.5,1.2 0.5,4.25 l -4.6,-0.55 q -2.2,0.05 -3.65,0.65 l -3.6,0.35 q -2.15,-0.2 -4.25,-0.8 l -4.35,-0.2 -3.85,0.55 -3.65,0.45 -4.05,-0.4 -3.65,-0.8 -3.6,0.4 q -1.95,0.55 -4,-0.05 l -4.4,-0.1 -4.7,0.5 -3.1,0.3 -4.55,-0.3 v -4.1 l 0.05,-4.45 q 0.05,-2.4 -0.45,-3.95 -0.5,-1.55 -0.05,-3.6 0.45,-2 0.15,-4.1 -0.3,-2.1 0,-3.85 0.3,-1.75 0,-3.35 -0.3,-1.6 0.35,-4.1 0.65,-2.5 0.45,-4.4 l -0.35,-4.1 -0.15,-4.25 v -3.9 l -0.05,-2.85 0.05,-4 3.35,1.95 3.55,1.25 3.9,0.8 4.1,0.8 4.15,0.2 q 2.1,-0.4 3.9,-1.25 l 3.55,-2 q 1.8,-1.15 3.2,-1.95 1.4,-0.75 3.9,-1.75 l 4.05,-1.6 q 1.5,-0.6 2.75,-0.45 1.3,0.2 4.25,-1 -0.4,0.8 1.4,0"
       id="path94"
       inkscape:connector-curvature="0"
       style="fill:none;stroke:#2a2a2a;stroke-width:2;stroke-linecap:round;stroke-linejoin:round" />
  </g>
  <g
     id="g2348"
     transform="matrix(1.0564062,0,0,1.0443378,432.62225,-131.48368)"
     inkscape:export-xdpi="96"
     inkscape:export-ydpi="96">
    <path
       d="m 375.33898,-12.30508 v 60 h -60 v -60 h 60"
       id="path96"
       inkscape:connector-curvature="0"
       style="fill:#ffffff;stroke:none" />
    <path
       d="m 325.93898,-12.30508 0.2,3.95 0.05,4.2 -0.15,4.15 q -0.1,1.9 0.1,3.55 l 0.3,3.75 q 0.05,2.15 -0.5,3.2 -0.5,1.1 0,3.55 2.85,-0.75 4.4,-0.35 l 3.45,0.1 3,-0.3 q 1.15,0.05 1.55,0.55 0.85,-2.75 0.4,-4.35 -0.4,-1.55 -0.55,-3.9 -0.15,-2.3 0,-3.3 l 0.15,-3.7 q 0,-2.25 -0.4,-3.75 -0.35,-1.45 0.1,-2.85 0.45,-1.35 0.3,-4.5 m 0,11.1 3.6,0.25 4.1,0.15 4.35,-0.7 3.9,-0.1 q 1.95,0.2 2.85,0 0.9,-0.15 2.3,0.4 l -0.15,-3.8 -0.05,-3.15 0.2,-4.15 m 0,11.1 -0.15,4.2 q -0.1,1.95 -0.05,3.85 l 0.35,4.1 q 0.25,2.15 -0.45,4 -0.65,1.9 -0.15,3.8 l 0.7,3.45 q 0.2,1.5 -0.25,2.85 l 3.85,0.5 q 1.95,0.35 3.55,-0.5 1.65,-0.8 2.9,-0.6 l 5.6,0.6 m -15.9,0 -4.15,0.5 q -2.05,0.35 -4.45,-0.5 -2.35,-0.8 -4.1,-0.6 l -3.6,0.35 -2.75,0.45 -2.05,-0.2 q 0.6,3 0.3,4.45 l -0.3,3.2 -0.15,3.2 q -0.1,1.55 0.15,3.9 l 4.25,-0.05 3.4,-0.15 3.95,0.25 q 2.3,0.35 4.35,-0.05 l 3.85,-0.35 3.55,0.25 q 1.75,0.25 4.5,0.05 2.8,-0.15 4.65,0.05 1.9,0.2 2.65,-0.4 0.75,-0.55 1.85,0.4 m -37,-25.75 q 0.85,1.25 0.4,3.65 l -0.55,3.1 q -0.15,0.7 0.15,4.25 m -23,-11 q 1.95,-0.65 4.05,0.05 2.1,0.7 2.55,0.3 l 4,-0.35 m 12.4,25.75 q 0.5,2.05 0.25,2.95 -0.25,0.95 -0.25,4.95"
       id="path98"
       inkscape:connector-curvature="0"
       style="fill:none;stroke:#b2b7bb;stroke-width:2;stroke-linecap:round;stroke-linejoin:round" />
    <path
       d="m 375.33898,-12.30508 q -0.6,1.95 -0.2,4.45 l 0.75,4.4 q 0.3,1.9 -0.15,3.5 -0.4,1.65 -0.4,4.05 l 0.2,3.95 q 0.25,1.6 0,3.5 l -0.4,4.25 q -0.15,2.35 0.1,4 0.3,1.7 0.25,3.65 -0.05,2 0.15,3.7 l 0.4,4.1 q 0.15,2.45 -0.4,4.65 -0.5,2.2 -0.4,3.8 v 2.45 q -0.1,0.85 0.1,5.55 -2.1,0.5 -4.25,0 l -3.95,0.2 -3.85,0.2 -4.05,-0.2 -4.2,0.45 -3.9,-0.2 -4.15,-0.45 h -4.35 l -3.8,0.25 -3.65,-0.25 -3.55,-0.3 -4.2,0.45 -4.25,0.4 -2.55,-0.25 -5.3,-0.3 -0.15,-4.65 q 0,-2 0.3,-3.9 l 0.55,-3.7 q 0.25,-1.8 -0.25,-3.9 l -0.85,-4 q -0.3,-1.9 -0.3,-4.05 0.05,-2.15 0.35,-4 0.35,-1.85 0.1,-3.65 -0.2,-1.75 0.05,-4 l 0.5,-4.5 q 0.25,-2.3 -0.1,-4.2 -0.35,-1.85 -0.35,-3.3 l 0.05,-3.9 0.1,-3.85 v -4.4 l 4.2,-0.05 h 4.05 l 3.75,0.15 4,-0.3 3.7,-0.4 4.1,0.3 4.75,0.5 3.9,0.05 3.55,-0.25 3.95,-0.05 4.25,-0.35 3.7,0.1 3.4,0.2 3.8,-0.2 4.9,0.3"
       id="path100"
       inkscape:connector-curvature="0"
       style="fill:none;stroke:#2a2a2a;stroke-width:2;stroke-linecap:round;stroke-linejoin:round" />
  </g>
  <g
     id="g2308"
     transform="matrix(1.0564062,0,0,1.0443378,535.04083,-131.2226)"
     inkscape:export-xdpi="96"
     inkscape:export-ydpi="96">
    <path
       d="m -142.66102,-12.30508 v 60 h -60 v -60 h 60"
       id="path102"
       inkscape:connector-curvature="0"
       style="fill:#ffffff;stroke:none" />
    <path
       d="m -202.66102,-4.30508 4,0.05 q 1.95,-0.15 3.95,0.05 l 4.5,0.1 4,-0.15 h 3.9 4.3 l 3.2,0.25 3.45,0.1 4.1,-0.5 4,-0.15 4.5,0.15 4.3,-0.05 4.25,0.2 3.35,0.1 4.2,-0.15"
       id="path104"
       inkscape:connector-curvature="0"
       style="fill:none;stroke:#b2b7bb;stroke-width:2;stroke-linecap:round;stroke-linejoin:round" />
    <path
       d="m -202.66102,-12.30508 4.2,-0.05 h 4.05 l 3.75,0.15 4,-0.3 3.7,-0.4 4.1,0.3 4.75,0.5 3.9,0.05 3.55,-0.25 3.95,-0.05 4.25,-0.35 3.7,0.1 3.4,0.2 3.8,-0.2 4.9,0.3 q 0,2 -0.4,3.65 -0.35,1.65 -0.05,4.25 0.35,2.65 0.3,3.85 l 0.2,4.05 0.05,4.5 0.05,3.6 0.45,3.85 q 0.3,1.95 0.15,4.05 l -0.65,4.2 q -0.55,2.15 -0.35,3.75 l 0.3,3.9 q 0.05,2.35 -0.35,4.45 -0.4,2.15 -0.15,4.15 0.25,2 0,2.6 -0.2,0.65 0.45,5.15 l -4.2,0.1 -4,0.3 -4,-0.25 -3.65,-0.2 -4.05,-0.2 -3.9,-0.15 -4.3,0.45 -4.45,0.25 -4.05,-0.25 -3.8,0.3 -3.75,-0.2 -3.9,-0.15 -3.95,0.2 -2.7,-0.2 h -5.3 q -0.5,-1.4 -0.3,-3.5 l -0.05,-4.6 q -0.2,-2.5 0.2,-4.2 l 0.7,-3.4 q 0.3,-1.75 -0.15,-4 -0.4,-2.25 -0.4,-4.75 0,-2.45 -0.4,-3.95 -0.35,-1.45 0.2,-3.55 0.55,-2.05 0.55,-3.95 l -0.1,-3.9 -0.3,-4.15 -0.2,-3.9 q 0,-1.8 0.5,-4 0.55,-2.15 0.15,-2.8 -0.4,-0.6 -0.4,-5.35"
       id="path106"
       inkscape:connector-curvature="0"
       style="fill:none;stroke:#2a2a2a;stroke-width:2;stroke-linecap:round;stroke-linejoin:round" />
  </g>
  <g
     id="g2318"
     transform="matrix(1.0564062,0,0,1.0443378,505.46146,-131.2226)"
     inkscape:export-xdpi="96"
     inkscape:export-ydpi="96">
    <path
       d="m 5.33898,47.69492 h -60 l 30,-60 30,60"
       id="path112"
       inkscape:connector-curvature="0"
       style="fill:#ffffff;stroke:none" />
    <path
       d="m -49.66102,47.69492 1.55,-3.6 q 0.75,-2.3 1.85,-3.4 1.1,-1.1 1.95,-3.4 0.9,-2.3 1.75,-3.8 l 1.6,-3.15 1.9,-3.8 1.65,-4.05 q 0.55,-1.8 1.45,-3.6 l 2,-3.35 2.15,-3.85 q 1.1,-2.3 2.25,-3.9 1.15,-1.6 1.6,-3.15 0.5,-1.5 1.1,-2.3 l 2.2,-4.65 q 0.55,2.2 2.05,3.8 1.5,1.65 2.05,3.45 l 0.95,3.55 q 0.35,1.7 1.5,3.15 1.15,1.5 1.85,3.6 0.7,2.15 2,4.15 l 2.6,4 2.2,3.45 q 0.95,1.5 1.25,3.55 0.35,2.05 1.4,4 l 2.35,3.45 q 1.3,1.55 1.8,3.1 0.55,1.55 1.15,2.55 l 1.85,4.2"
       id="path114"
       inkscape:connector-curvature="0"
       style="fill:none;stroke:#b2b7bb;stroke-width:2;stroke-linecap:round;stroke-linejoin:round" />
    <path
       d="m -24.66102,-12.30508 q 0.15,1.3 1.75,3.55 1.65,2.3 2.05,3.5 0.45,1.25 1.85,3.35 1.4,2.1 1.9,4 0.5,1.95 1.4,3.25 0.95,1.3 1.55,3.4 0.65,2.1 1.7,3.65 l 2.2,3.3 q 1.15,1.75 2.1,3.95 l 1.65,4.4 1.3,3.7 q 0.65,1.5 2,3.2 1.35,1.75 2,3.6 0.65,1.85 1.65,3.25 l 2.1,3.7 q 1.15,2.3 1.35,3.25 0.25,1 1.45,2.95 l -4.25,0.15 -3.7,-0.15 -3.9,-0.2 -4.1,0.2 -4.1,-0.05 -3.95,-0.25 q -2,-0.2 -4,0 l -4.05,0.3 -4,0.05 -4.2,-0.05 -4,0.3 -3.6,0.2 -4.25,-0.5 -2.8,-0.15 -5.1,0.15 1.8,-4.2 1.75,-3.5 1.9,-3.15 2.15,-3.25 1.65,-3.25 1.55,-3.75 1.8,-3.75 2,-3.85 1.8,-3.75 1.7,-3.45 q 1,-1.8 1.35,-3.55 0.35,-1.7 1.35,-3.65 1.05,-1.9 2.4,-3.7 1.35,-1.8 2,-3.6 0.65,-1.8 2,-3.45 1.35,-1.6 1.9,-2.95 l 0.9,-3.2"
       id="path116"
       inkscape:connector-curvature="0"
       style="fill:none;stroke:#2a2a2a;stroke-width:2;stroke-linecap:round;stroke-linejoin:round" />
  </g>
  <g
     id="g2328"
     transform="matrix(1.0564062,0,0,1.0443378,490.88305,-131.58812)"
     inkscape:export-xdpi="96"
     inkscape:export-ydpi="96">
    <path
       d="m 79.33898,-12.30508 v 60 h -60 v -60 h 60"
       id="path118"
       inkscape:connector-curvature="0"
       style="fill:#ffffff;stroke:none" />
    <path
       d="m 67.83898,47.69492 q -0.5,-1.7 0.25,-3.7 0.75,-1.95 0.3,-2.8 -0.4,-0.8 -0.55,-3.5 l -0.35,-3.8 -0.35,-4.35 q -0.25,-2.1 -0.2,-3.95 l 0.35,-4 0.7,-4.1 q 0.35,-1.95 -0.15,-3.15 -0.5,-1.15 0,-0.75 0.65,-1.95 -0.35,-3.9 l -1.55,-3.55 q -0.5,-1.55 -2.1,-3.2 -1.6,-1.65 -3.9,-2.8 l -3.75,-1.2 -3.05,-1 -0.9,-0.2 0.05,0.05 q -0.05,0.55 -0.05,0 v -0.05 q -1.9,-0.75 -3.2,-0.4 l -1.4,0.35 h -0.05 q -2.9,0.1 -3.95,0.8 -1,0.75 -2.45,1.1 l -2.15,0.4 -1.25,0.8 q -1.85,1.35 -2.65,2.6 l -2.15,3.3 q -1.35,2 -1.7,3.15 -0.3,1.2 -0.45,3.75 -0.2,2.6 -0.05,4.35 l 0.2,3.7 0.2,3.65 q 0.1,1.65 -0.2,4.3 -0.25,2.7 -0.15,3.9 l 0.2,2.45 q 0.1,1.25 -0.2,1.75 -0.75,1.65 -0.4,3.75 0.35,2.1 0.2,3.1 -0.1,1.05 0.2,3.15 m 5.85,0 q -0.35,-1.05 -0.2,-3.1 l 0.2,-4.65 -0.15,-4.85 -0.1,-4.1 q 0.1,-1.9 -0.15,-3.2 -0.25,-1.25 0.05,-3.9 0.35,-2.6 -0.1,-4.5 -0.4,-1.9 -0.15,-3.25 l 0.6,-2.4 q 0.4,-1.95 1.1,-3.5 0.7,-1.55 2.5,-3.2 1.8,-1.65 2.95,-2.25 1.15,-0.55 3.75,-0.75 l 4.8,-0.6 q 2.15,-0.4 3.7,0.65 l 2.25,1.75 q 0.7,0.7 1.1,0.7 l 0.05,0.05 q 0.8,2.5 1.45,2.65 0.7,0.2 1.8,4.5 -0.55,1.9 -0.25,4.1 l 0.45,3.9 q 0.2,1.7 0.05,3.85 -0.15,2.15 -0.05,4.2 0.15,2.05 -0.2,4.05 -0.3,2 0.15,3.6 0.5,1.65 0.2,3.65 l -0.3,3.45 -0.05,3.15 m -31.3,-10 -4.4,-0.25 -2.8,0.1 -4.3,0.15 m 38,-7.95 q -1.75,2.2 -2.7,2.4 -0.95,0.25 -2.25,-1.4 -1.3,-1.6 -0.1,-2.95 1.25,-1.35 3.05,-0.9 1.8,0.45 2,2.85 m 22,7.95 -4.65,-0.3 -3,0.3 h -3.85"
       id="path120"
       inkscape:connector-curvature="0"
       style="fill:none;stroke:#b2b7bb;stroke-width:2;stroke-linecap:round;stroke-linejoin:round" />
    <path
       d="m 19.33898,-12.30508 q 1.9,-0.65 3.65,-0.4 l 4.05,-0.15 3.9,0.15 q 1.6,0.55 3.65,0.5 l 4,-0.1 4.35,0.4 4.75,0.45 4,-0.25 3.7,-0.85 q 2.1,-0.6 4.05,0 l 4.15,0.55 4.05,-0.05 3.8,-0.3 3.1,0.15 q 1.2,0.5 4.8,-0.1 l 0.05,3.7 -0.45,3.9 q -0.4,1.9 0,4.15 0.45,2.3 0.25,4.3 -0.2,2 -0.1,4.25 l 0.15,3.9 0.4,4 0.4,3.75 q 0.1,1.4 -0.3,3.7 -0.4,2.35 -0.65,4.65 -0.25,2.3 0,3.95 0.25,1.7 0.65,3.25 0.45,1.55 0.35,4 -0.1,2.45 -0.5,3.25 -0.4,0.8 -0.25,5.25 l -5.4,-0.25 q -0.4,-0.2 -2.3,0.45 l -4.6,0.35 -4.2,-0.5 -3.7,-0.1 -3.8,0.1 -3.45,-0.05 -3.85,0.15 q -1.95,0.2 -4.45,0 -2.5,-0.2 -4.8,-0.05 h -4.35 l -3.5,-0.1 -3.55,0.3 q -2.1,0.35 -4.3,0 l -3.75,-0.3 q -0.4,-2.05 -0.25,-3.7 l 0.3,-4 q 0.15,-2.3 -0.45,-4.3 -0.55,-2 -0.5,-3.9 l 0.35,-4 0.8,-3.95 q 0.5,-1.8 0.45,-4 l -0.15,-4.15 -0.55,-3.95 q -0.4,-1.95 -0.2,-4.1 0.2,-2.1 -0.3,-3.9 -0.5,-1.8 0.2,-3.5 0.7,-1.65 0.6,-4.35 -0.1,-2.65 -0.7,-3.45 -0.55,-0.75 0.4,-4.75"
       id="path122"
       inkscape:connector-curvature="0"
       style="fill:none;stroke:#2a2a2a;stroke-width:2;stroke-linecap:round;stroke-linejoin:round" />
  </g>
  <g
     id="g2288"
     transform="matrix(1.0564062,0,0,1.0443378,461.30368,-116.96739)"
     inkscape:export-xdpi="96"
     inkscape:export-ydpi="96">
    <path
       d="m 227.33898,-86.30508 v 60 h -60 v -60 h 60"
       id="path124"
       inkscape:connector-curvature="0"
       style="fill:#ffffff;stroke:none" />
    <path
       d="m 227.33898,-86.30508 q -0.5,1.65 -0.3,3.75 l 0.25,4.65 0.05,4.35 q 0,1.8 0.5,4 0.5,2.2 0,4 -0.5,1.8 -0.55,3.8 v 3.35 l 0.05,3.75 v 4.8 l 0.05,4.5 q 0.05,2.05 -0.3,3.35 -0.3,1.3 -0.15,3.55 0.15,2.3 0.7,3.95 0.6,1.65 0.1,2.8 -0.5,1.15 -0.4,5.4 l -4.1,0.3 -4,0.55 -3.9,-0.3 -4.1,-0.6 -3.75,-0.45 -3.9,0.15 q -2.25,0.4 -4.35,0.05 l -4,0.25 -3.65,0.3 -3.85,-0.35 -4.55,-0.05 -3.9,0.45 -3.7,0.2 -3.15,-0.3 -5.1,-0.2 q -0.6,-2.6 -0.35,-4.1 l 0.3,-3.6 -0.25,-4.3 -0.4,-4.2 q -0.15,-2 0.4,-4 0.55,-2 0.4,-4.25 l -0.3,-3.9 q -0.1,-1.7 0.1,-3.75 0.2,-2 0,-4.15 l -0.55,-3.95 q -0.35,-1.8 0.05,-3.8 0.45,-2 0.3,-3.5 -0.15,-1.5 0.45,-3.7 0.65,-2.2 0.25,-3.55 -0.4,-1.3 -0.4,-5.25 l 3.7,-0.25 4.25,0.65 4.05,0.35 q 2,-0.2 4.5,0 2.5,0.2 4,0 l 3.45,-0.2 4,-0.65 4.05,-0.25 4,0.8 4.05,0.5 q 2.05,0.05 3.7,-0.65 1.7,-0.7 3.85,-0.45 2.15,0.3 4.7,-0.05 l 3.1,-0.2 4.6,0.4"
       id="path126"
       inkscape:connector-curvature="0"
       style="fill:none;stroke:#2a2a2a;stroke-width:2;stroke-linecap:round;stroke-linejoin:round" />
    <path
       d="m 217.33898,-76.30508 q 0.2,1.6 0,4.2 l -0.35,3.8 q -0.15,1.2 0.1,3.85 l 0.25,3.55 v 4.6 q 0.8,1.9 0.8,3.95 0.05,2.05 -0.4,4.05 -0.45,2 -0.45,4.15 l 0.05,3 v 4.85 q -2.1,0.85 -4,0.4 l -3.6,-0.4 -4.1,0.1 -3.3,-0.2 q -1,-0.3 -5,0.1 l -0.15,-0.05 -3.45,-0.2 q -1.6,0.25 -4.1,0.05 l -4.65,-0.1 -3.3,-0.2 -4.35,0.5 v -3.7 -4.3 l 0.2,-4.1 q 0.25,-2.1 -0.1,-3.45 -0.35,-1.35 -0.1,-4.45 -0.25,-1.75 0.3,-3.85 0.55,-2.1 -0.1,-4.15 -0.65,-2 -0.05,-4.1 0.65,-2.05 0.2,-2.7 -0.4,-0.6 -0.35,-5.2 l 4.1,-0.1 h 4.05 l 3.7,0.2 3,-0.25 5.15,0.15 3.45,-0.15 4.45,0.05 h 4.05 l 2.8,-0.35 5.25,0.45 m -20,0 q 0.45,1.2 2.25,2.65 l 3.25,2.85 2.85,2.8 2.6,2.45 2.8,2.75 3.05,3.15 1.9,2.15 1.3,1.2 m -40,-20 2.9,2.7 2.85,2.8 q 1.45,1.35 2.5,3 1.05,1.65 2.8,2.55 1.8,0.9 3.1,2.6 l 2.6,3.45 2.75,3.2 3.05,2.5 q 1.55,1 2.6,2.4 1.05,1.4 2.35,2.35 1.35,0.95 3,2.8 l 3.05,3.25 2.8,2.35 q 1.45,0.95 2.15,2.3 0.75,1.35 1.5,1.75 m -40,-20 q 1.15,1.65 3.1,2.95 1.95,1.3 2.7,2.65 0.75,1.4 2.75,2.7 2.05,1.35 3,3.1 1,1.8 2.45,2.95 l 3.3,2.5 q 1.85,1.35 2.15,2.3 l 0.4,0.8"
       id="path128"
       inkscape:connector-curvature="0"
       style="fill:none;stroke:#b2b7bb;stroke-width:2;stroke-linecap:round;stroke-linejoin:round" />
  </g>
  <g
     id="g2333"
     transform="matrix(1.0564062,0,0,1.0443378,476.51593,-131.5359)"
     inkscape:export-xdpi="96"
     inkscape:export-ydpi="96">
    <path
       d="m 153.33898,-12.30508 v 60 h -60 v -60 h 60"
       id="path150"
       inkscape:connector-curvature="0"
       style="fill:#ffffff;stroke:none" />
    <path
       d="m 153.33898,37.69492 -3.6,-0.2 -3.6,-0.55 -3.9,0.2 -4.4,0.5 -4.55,-0.1 q -2,-0.2 -4.1,0 l -4.15,0.6 -4,-0.3 q -2,-0.7 -3.6,-0.4 l -3.85,0.75 q -2.25,0.45 -4.5,-0.05 l -4.15,-0.3 -3.75,-0.15 -2.65,-0.65 q -0.8,-0.3 -5.2,0.65"
       id="path152"
       inkscape:connector-curvature="0"
       style="fill:none;stroke:#b2b7bb;stroke-width:2;stroke-linecap:round;stroke-linejoin:round" />
    <path
       d="m 153.33898,-12.30508 v 3.95 q 0,2.9 0.3,4.45 0.3,1.6 0,3.4 -0.3,1.85 -0.2,4.2 l -0.05,4.2 q -0.15,1.85 0.4,3.55 0.55,1.7 0.25,3.95 l -0.8,4.3 q -0.5,2.05 -0.6,3.9 -0.1,1.9 0.45,4 0.6,2.1 0.4,4.3 l -0.5,4.05 q -0.3,1.9 0.25,4 0.55,2.1 0.35,2.9 -0.2,0.85 -0.25,4.85 l -4.95,-0.4 -3.2,0.15 q -2.65,0.4 -3.9,0 -1.25,-0.35 -3.6,0.4 l -4.35,0.5 q -2,-0.2 -4.05,-0.05 l -3.55,-0.4 -3.95,-0.25 -4.45,-0.25 q -1.95,-0.5 -4.25,0 l -4.05,0.1 -4.15,-0.1 q -2.3,0.35 -3.95,0.05 l -3.4,-0.1 -4.2,0.35 q 0.45,-2.15 0.2,-4.35 l -0.6,-3.9 q -0.35,-1.7 -0.05,-4.05 0.35,-2.3 0.15,-3.9 -0.2,-1.6 0.05,-4.1 l 0.25,-4 q 0,-1.5 0.45,-3.75 0.45,-2.25 -0.05,-3.75 -0.45,-1.45 -0.45,-3.6 l 0.05,-3.95 q 0,-1.75 0.35,-4.5 0.35,-2.75 -0.4,-4.4 -0.75,-1.6 -0.1,-4 0.65,-2.35 0.2,-3.15 -0.45,-0.8 -0.05,-4.6 l 4.25,0.2 4.4,-0.4 3.75,0.2 3.65,0.15 4.1,-0.15 4,-0.15 3.65,0.5 q 1.65,0.45 4,-0.4 l 4.45,-0.3 q 2.1,0.55 3.95,-0.05 1.9,-0.55 3.85,0.05 1.95,0.65 3.95,0.5 l 3.6,-0.15 2.95,-0.05 5.45,0.05"
       id="path154"
       inkscape:connector-curvature="0"
       style="fill:none;stroke:#2a2a2a;stroke-width:2;stroke-linecap:round;stroke-linejoin:round" />
  </g>
  <g
     id="g2393"
     transform="matrix(1.0564062,0,0,1.0443378,936.48706,-15.473523)"
     inkscape:export-xdpi="96"
     inkscape:export-ydpi="96">
    <path
       d="m -101.07226,-63.839981 v 60 h -60 v -60 h 60"
       id="path174"
       inkscape:connector-curvature="0"
       style="fill:#ffffff;stroke:none" />
    <path
       d="m -153.57226,-3.839981 q -0.5,-2.2 -0.2,-3.9 0.35,-1.65 0,-3.7 -0.35,-2.05 0,-4.25 l 0.35,-4.2 -0.05,-3.2 -0.1,-3.25 q 0.05,-2 0.5,-3.4 0.45,-1.4 -0.5,-4.1 l 0.45,-4 q 0.2,-2 -0.35,-4.05 -0.5,-2 -0.3,-3.95 l 0.05,-4 -0.15,-4 -0.3,-4.5 q -0.2,-2.5 0.35,-2.8 0.6,-0.25 0.25,-2.7 m 45,0 q -0.1,1.85 -0.05,3.85 l -0.1,4.1 -0.5,4.1 q -0.35,2.1 0.05,3.55 0.4,1.5 0.15,3.95 -0.2,2.5 0.1,4.45 0.35,2 0.15,3 -0.15,1 0.2,3 l -0.45,3.15 q -0.25,1.55 0.45,4.35 -0.3,1.2 -0.25,3.3 l -0.15,4.8 q -0.25,2.75 0.05,4.1 0.35,1.4 -0.1,3.5 -0.4,2.1 -0.15,2.75 l 0.6,4.05 m 0,-30 -4.45,0.15 q -2.25,0.55 -4.05,0.05 l -2.65,-0.35 -2.7,0.15 m 13.85,7.5 q -2.3,-0.8 -4.25,-0.7 l -4.15,0.8 -2.95,0.1 -2.5,-0.2 m -10.8,-0.4 -1.8,-3.2 q -1.05,-1.9 0.25,-3.65 1.35,-1.75 2.65,-1.9 1.3,-0.1 3.45,0.55 2.2,0.7 1.85,2.55 l -0.3,2.7 q 0.05,0.9 -1.7,2.95 v 3.3 2.3 l -3.4,-0.05 -1,0.05 0.1,-3.15 -0.1,-2.45 m -6.45,-7.1 -4,0.1 -4.75,-0.05 h -2.6 l -2.55,-0.05 m 13.9,7.5 -4.05,-0.15 -3.85,0.35 -3.35,-0.1 -2.65,-0.1"
       id="path176"
       inkscape:connector-curvature="0"
       style="fill:none;stroke:#b2b7bb;stroke-width:2;stroke-linecap:round;stroke-linejoin:round" />
    <path
       d="m -161.07226,-63.839981 3.6,-0.35 3.95,0.25 4.3,-0.15 q 2,-0.75 4.2,0.05 l 4.05,0.5 4.05,-0.4 4.45,-0.15 q 2.3,-0.05 4.15,0.05 l 3.35,0.2 3.65,-0.25 4.3,-0.1 3.65,0.45 3.85,0.15 3,-0.4 5.45,0.15 q -0.1,2 0.2,3.95 0.3,1.95 0.05,4 l -0.25,4.15 v 3.7 q 0.05,1.6 -0.3,3.6 -0.3,2.05 0.1,4.3 l 0.75,4.5 q 0.35,2.25 -0.1,4.05 -0.4,1.85 -0.45,3.75 l -0.05,3.95 q 0,2.05 0.25,3.65 0.25,1.6 -0.3,4.1 -0.55,2.5 -0.6,4.2 0,1.75 0.8,2.8 0.8,1.05 -0.1,5.3 l -3.9,0.15 -4.3,0.1 -3.75,-0.15 -3.5,-0.55 q -2.15,-0.45 -4.5,0 l -4.05,0.6 q -1.75,0.2 -4,0 l -3.9,-0.2 h -3.75 l -4.25,0.45 -4,0.2 -4.5,-0.55 -4.1,-0.35 -2.5,0.1 -5,0.2 q -0.5,-1.4 -0.3,-3.5 l -0.05,-4.6 q -0.2,-2.5 0.2,-4.2 l 0.7,-3.4 q 0.3,-1.75 -0.15,-4 -0.4,-2.25 -0.4,-4.75 0,-2.45 -0.4,-3.95 -0.35,-1.45 0.2,-3.55 0.55,-2.05 0.55,-3.95 l -0.1,-3.9 -0.3,-4.15 -0.2,-3.9 q 0,-1.8 0.5,-4 0.55,-2.15 0.15,-2.8 -0.4,-0.6 -0.4,-5.35 m 21.4,22.5 4.1,0.15 3.75,0.15 4.2,-0.65 3,-0.4 q 0.95,-0.05 2.2,0.75 0.45,2.85 0.05,4.85 -0.4,2 -0.3,3.8 l 0.2,3.3 0.05,4.15 q 0,2.6 -0.35,4.6 l -0.3,2.55 q 0.05,0.6 0.65,1.75 -1.95,-1 -4.3,-0.9 -2.35,0.1 -4,0.75 -1.65,0.65 -3.65,0.65 l -3.05,-0.25 -2.25,-0.25 q -0.1,-1.4 0.3,-3.75 0.45,-2.3 0.1,-4.75 -0.3,-2.45 0,-3.75 0.35,-1.25 -0.4,-3.75 -0.7,-2.45 -0.25,-3.9 0.5,-1.4 0,-2.7 -0.5,-1.3 0.25,-2.4"
       id="path178"
       inkscape:connector-curvature="0"
       style="fill:none;stroke:#2a2a2a;stroke-width:2;stroke-linecap:round;stroke-linejoin:round" />
  </g>
  <g
     id="g2343"
     transform="matrix(1.0564062,0,0,1.0443378,447.0422,-131.64033)"
     inkscape:export-xdpi="96"
     inkscape:export-ydpi="96">
    <path
       d="m 241.33898,47.69492 v -60 h 60 v 60 h -60"
       id="path180"
       inkscape:connector-curvature="0"
       style="fill:#ffffff;stroke:none" />
    <path
       d="m 281.33898,-12.30508 q 0,2 -0.4,3.65 -0.35,1.65 -0.05,3.25 l 0.45,3.1 2.95,-0.15 3.35,0.15 h 3.7 4.3 l 2.65,-0.15 3.05,0.15 m 0,10 -4.2,-0.15 -3.3,0.6 q -0.5,0.25 -2.5,-0.45 l -4.2,-0.15 -3.3,0.6 q -0.5,0.25 -2.5,-0.45 0.6,1.55 -0.2,3.85 -0.8,2.35 -0.3,3.6 0.5,1.25 0.5,2.55 l 3.1,-0.05 3.35,0.05 h 3.55 4.45 l 2.65,-0.05 2.9,0.05 m -10,-10 q 0.6,-2.45 -0.2,-4.15 -0.8,-1.65 -0.3,-2.4 0.5,-0.75 0.5,-3.45 m 10,30 -4.25,0.1 -2.7,0.15 -3.05,-0.25 -3.7,0.1 -2.85,-0.7 q -1.15,-0.3 -3.45,0.6 l -0.15,3.75 -0.15,3.05 q -0.05,1.2 0.3,3.2 l 3.2,-0.5 q 1.1,-0.35 2.7,0.3 l 4.1,0.2 3.9,-0.2 3.3,-0.3 2.8,0.5 m -10,-10 0.3,-3.9 0.15,-3.7 -0.45,-2.4 m 0,30 q -0.15,-2 -0.15,-4.15 0,-2.1 -0.4,-3.2 -0.4,-1.1 0.55,-2.65 m -40,-40 q 0.95,2.55 0.45,4.25 -0.45,1.75 -0.45,3.1 v 2.65 l 3.8,-0.15 2.7,0.6 q 1.5,0.25 3.5,-0.45 l 2.85,0.3 h 3.35 l 3.8,-0.3 q 0.55,-1.65 0.2,-3.7 -0.35,-2.05 -0.35,-3 l 0.15,-3.3 -4.85,-0.1 h -2.6 l -2.55,0.1 q -1.85,-0.85 -3.75,-0.35 l -3.1,0.1 -3.15,0.25 -2.8,0.3 -2.7,-0.25 -4.5,-0.05 m 10,10 -4.2,-0.15 -3.3,0.6 q -0.5,0.25 -2.5,-0.45 m 40,-10 -3.9,0.2 -2.65,-0.25 -3.45,0.05 m -10,-10 v 3.65 q 0,1.65 0.45,2.95 0.5,1.35 -0.45,3.4 m 20,10 -4.2,-0.15 -3.3,0.6 q -0.5,0.25 -2.5,-0.45 m 10,10 h -3.7 l -3.35,-0.15 -2.95,0.15 v 3.15 l -0.05,2.3 0.05,4.55 2.7,-0.2 3.15,-0.05 4.15,0.25 m -10,-10 -3.65,-0.7 -3.3,0.15 -3.05,0.55 -4.15,0.75 -3,-0.1 -2.85,-0.65 0.35,3.3 q 0.1,1.85 -0.3,3.15 -0.4,1.3 -0.05,3.55 2,-0.95 3.95,-0.9 2,0.05 3.2,0.6 l 2.85,0.3 3,0.15 q 1,-0.6 2.95,-0.7 l 4.05,0.55 m -10,0 0.3,4.1 0.15,2.3 -0.45,3.6 q 2.2,-0.65 3,-0.35 l 3.35,0.8 q 2.6,0.45 3.65,-0.45 l 3.15,0.15 2.65,-0.1 4.2,-0.05 m -40,-20 4.45,0.25 2.55,0.1 q 1,0.4 3,-0.35 m 0,10 q -2,-0.95 -4.05,-0.9 -2,0.05 -2.8,0.6 l -3.15,0.3 m 20,10 -4.2,0.05 -2.65,0.1 -3.15,-0.15 q -0.75,2 -0.85,3.9 -0.05,1.95 0.4,3 0.5,1.05 0.45,3.1 m -10,-10 3.85,0.05 3,0.15 3.15,-0.2 m 20,10 q -0.5,-1.4 -0.3,-3.5 0.2,-2.1 -0.05,-3.6 -0.2,-1.5 0.35,-2.9 m -10,-30 q 0.35,1.25 -0.25,4.05 -0.55,2.85 -0.3,3.4 l 0.55,2.55"
       id="path182"
       inkscape:connector-curvature="0"
       style="fill:none;stroke:#b2b7bb;stroke-width:2;stroke-linecap:round;stroke-linejoin:round" />
    <path
       d="m 301.33898,-12.30508 -0.15,3.75 -0.15,4.05 0.1,4.2 0.45,4.35 0.15,4.05 -0.35,4.1 q -0.25,2.35 -0.15,3.65 l 0.05,3.55 v 4.3 l -0.2,3.85 -0.3,4 q -0.05,2.2 0.15,4.15 l 0.6,4.35 q 0.35,2.4 0.05,3.35 -0.25,0.95 -0.25,4.3 l -3.95,-0.05 h -3.95 l -4.1,-0.1 -4.2,-0.2 -3.75,-0.15 -3.95,0.35 -4.35,0.2 -3.65,-0.2 -3.55,0.55 -4.55,-0.15 -4.4,-0.35 -3.45,0.1 h -4.35 l -2.8,0.05 -5,-0.05 q -0.35,-1.05 -0.2,-3.1 l 0.2,-4.65 -0.15,-4.85 -0.1,-4.1 q 0.1,-1.9 -0.15,-3.2 -0.25,-1.25 0.05,-3.9 0.35,-2.6 -0.1,-4.5 -0.4,-1.9 -0.15,-4.25 l 0.3,-4 q 0.05,-1.65 0.5,-3.95 0.45,-2.3 0.3,-4 l -0.35,-3.6 -0.5,-3.9 q -0.3,-1.9 0,-2.95 0.3,-1.05 0.35,-5.05 l 4.05,-0.3 3.55,-0.1 4,0.15 4.25,0.3 3.9,0.25 4.15,-0.1 q 2.1,-0.35 4.4,0 l 4.4,-0.25 3.7,-0.3 3.35,0.65 q 1.75,0.3 4,-0.05 l 4.65,-0.75 q 2.45,-0.45 4.35,0 l 2.5,0.25 4.75,0.25"
       id="path184"
       inkscape:connector-curvature="0"
       style="fill:none;stroke:#2a2a2a;stroke-width:2;stroke-linecap:round;stroke-linejoin:round" />
  </g>
  <g
     id="g2388"
     transform="matrix(1.0564062,0,0,1.0443378,447.99296,-223.85536)"
     inkscape:export-xdpi="96"
     inkscape:export-ydpi="96">
    <path
       d="m 301.33898,135.69492 v 60 h -60 v -60 h 60"
       id="path216"
       inkscape:connector-curvature="0"
       style="fill:#ffffff;stroke:none" />
    <path
       d="m 246.33898,185.69492 -0.65,-4 q -0.35,-1.9 0.25,-3.95 0.6,-2.05 0.2,-4.1 -0.4,-2 -0.15,-3.95 l 0.3,-3.7 -0.15,-4.05 q -0.15,-2.2 0.35,-4.25 0.5,-2 0.15,-3.9 -0.3,-1.85 -0.05,-4.1 0.3,-2.2 -0.05,-4.2 -0.3,-1.95 0.1,-2.9 0.45,-0.9 -0.3,-1.9 2.35,-0.35 3.9,0.05 l 3.95,0.2 4.4,-0.1 4.1,0.05 3.85,-0.4 3.85,0.15 3.8,0.25 3.8,-0.15 4.05,0.05 4.25,-0.1 4.25,0.45 2.85,-0.05 q 0.95,-0.6 2.95,-0.4 -0.8,1.95 -0.4,4 0.4,2.05 0.4,3.85 l -0.1,4 q -0.05,2.15 0.05,4.05 l 0.4,4.05 q 0.35,2.2 0.15,3.85 l -0.35,3.95 -0.6,4.1 q -0.45,1.9 0.05,4.15 l 0.7,4.25 q 0.25,2 -0.05,2.55 -0.25,0.6 -0.25,2.2 -2,-0.7 -4,-0.4 l -3.95,0.4 h -4 q -2,-0.05 -3.55,0.05 l -4.2,0.35 -4,-0.1 -4.3,-0.25 -4.3,0.2 -3.5,-0.1 q -2.15,-0.15 -3.9,0 l -4.05,0.1 -3,-0.2 -3.25,-0.05 m 55,5 -3.8,0.2 -4.5,0.3 -4.25,-0.45 -3.6,-0.1 q -1.85,-0.1 -3.55,0.05 l -4.1,0.1 -4.55,-0.1 h -3.75 -3.7 l -4.15,0.25 q -2.05,0.3 -4.2,-0.05 l -4.2,-0.3 -3.85,0.05 h -3.05 l -4.75,0.05"
       id="path218"
       inkscape:connector-curvature="0"
       style="fill:none;stroke:#b2b7bb;stroke-width:2;stroke-linecap:round;stroke-linejoin:round" />
    <path
       d="m 241.33898,195.69492 q -0.65,-2.05 -0.4,-3.7 l 0.7,-3.9 q 0.45,-2.25 0.2,-4.35 l -0.5,-4.2 q -0.2,-2.05 -0.05,-3.95 l 0.2,-3.7 q 0.05,-1.8 -0.45,-4.35 -0.45,-2.55 -0.1,-4.05 l 0.65,-3.75 q 0.3,-2.25 -0.05,-4 -0.3,-1.7 -0.25,-3.8 l -0.05,-4.15 q -0.1,-2 -0.05,-4.25 l 0.15,-3.05 v -4.8 l 3.8,-0.1 4.35,-0.1 4.3,-0.05 3.9,0.1 3.55,0.05 h 3.65 l 4.35,0.3 4.3,0.1 4.05,0.35 3.3,-0.1 4.45,-0.5 4.8,-0.05 3.3,-0.4 2.7,-0.05 5.2,0.45 v 3.5 l -0.3,3.85 q -0.3,2.4 -0.1,4.5 l 0.5,4.1 q 0.35,2 0.1,3.5 l -0.6,4.1 q -0.3,2.55 -0.2,4.5 l 0.5,3.75 q 0.4,1.8 0.3,3.85 -0.1,2.05 0.1,4.25 0.25,2.2 -0.05,4.35 -0.3,2.2 -0.05,4 0.25,1.8 0,3.85 l -0.25,2.9 0.05,5 q -1.25,0.65 -3.15,0.55 l -4.4,-0.25 -4.85,-0.3 q -2.3,-0.1 -3.65,0.05 l -3.65,0.05 -4.2,-0.2 -4.25,0.15 -4.4,-0.35 q -1.95,-0.65 -3.85,0.05 -1.85,0.7 -3.7,0.4 l -3.8,0.1 q -1.9,0.4 -3.95,0.05 l -4.1,-0.8 -2.6,-0.25 -5.45,0.75"
       id="path220"
       inkscape:connector-curvature="0"
       style="fill:none;stroke:#2a2a2a;stroke-width:2;stroke-linecap:round;stroke-linejoin:round" />
  </g>
  <g
     id="g2368"
     transform="matrix(1.0564062,0,0,1.0443378,506.41223,-300.19646)"
     inkscape:export-xdpi="96"
     inkscape:export-ydpi="96">
    <path
       d="m -54.66102,209.69492 h 60 v 20 q -8.3,0 -14.15,5.85 -5.65,5.65 -5.85,13.65 v 20.5 h -20 v -20.5 q -0.2,-8 -5.85,-13.65 -5.85,-5.85 -14.15,-5.85 v -20"
       id="path228"
       inkscape:connector-curvature="0"
       style="fill:#ffffff;stroke:none" />
    <path
       d="m -34.66102,249.69492 q 2.05,-0.75 3.75,-0.45 1.7,0.3 2.7,0.75 l 3.55,-0.3 q -0.1,-1.9 -0.5,-2.8 -0.35,-0.9 0,-3.25 0.4,-2.35 0.9,-4.2 0.5,-1.85 0.4,-3.65 -0.05,-1.8 -0.45,-3.55 -0.35,-1.7 -0.05,-4.35 0.35,-2.65 0.15,-4.45 l -0.45,-3.75 -3.55,-0.25 -4.15,0.45 -3.95,0.35 -3.55,-0.45 -4.4,-0.35 -4.9,0.2 -3,0.25 -2.5,-0.2 m 30,0 4.45,-0.25 q 2.2,-0.2 3.85,0.45 l 4.05,0.35 4.45,-0.45 3.6,-0.35 3.1,0.2 3,0.25 3.5,-0.2 m -30,30 4.25,-0.05 2.35,0.3 3.4,-0.25"
       id="path230"
       inkscape:connector-curvature="0"
       style="fill:none;stroke:#b2b7bb;stroke-width:2;stroke-linecap:round;stroke-linejoin:round" />
    <path
       d="m -54.66102,229.69492 q 0.35,-2 -0.05,-3.8 -0.35,-1.75 0.05,-4.15 0.4,-2.4 0.2,-4.2 l -0.2,-2.6 v -5.25 q 2.05,-0.8 4.15,-0.45 l 3.75,0.5 3.85,0.15 4.25,0.15 h 4 l 3.75,-0.5 4,-0.5 4.3,0.15 3.9,0.3 3.9,0.15 4.15,0.1 3.9,0.05 3.95,-0.05 3.15,-0.1 5,0.05 q 0.8,2.05 -0.05,4.05 -0.85,2.05 -0.6,3.95 0.25,1.95 0.1,3.7 -0.15,1.8 0.45,3.05 0.6,1.3 0.1,5.25 l -4.2,1.05 q -1,0.25 -2.45,0.85 l -3.5,1.55 q -2.05,0.9 -3.5,2.15 -1.4,1.3 -2.55,2.85 -1.1,1.6 -1.7,3.45 l -1.25,3.65 q -0.65,1.8 -0.85,3.95 l 0.2,3.95 q 0.25,2.15 0,4.1 l -0.2,3.95 v 4.05 q 0,2.1 0.35,3.25 0.4,1.15 -0.35,1.2 l -4.8,-0.4 -3.65,-0.35 -3.7,0.7 -3.15,0.1 q -1,-0.5 -4.7,-0.05 -0.75,-1.95 -0.8,-4.4 -0.05,-2.4 0.35,-4.35 0.45,-1.9 0.3,-3.3 l -0.15,-3.9 q 0,-2.5 -0.3,-3.3 -0.25,-0.75 0.6,-1.25 l -0.25,-3.8 q 0.05,-1.8 -1.2,-3.8 -1.25,-1.95 -2.3,-3.05 l -2.55,-2.85 q -1.55,-1.7 -3.25,-2.8 -1.7,-1.1 -3.65,-1.85 l -3.15,-1.25 -3.65,-0.1"
       id="path232"
       inkscape:connector-curvature="0"
       style="fill:none;stroke:#2a2a2a;stroke-width:2;stroke-linecap:round;stroke-linejoin:round" />
  </g>
  <g
     id="g2373"
     transform="matrix(1.0564062,0,0,1.0443378,491.62254,-300.19646)"
     inkscape:export-xdpi="96"
     inkscape:export-ydpi="96">
    <path
       d="m 19.33898,209.69492 h 60 v 20 h -60 v -20"
       id="path234"
       inkscape:connector-curvature="0"
       style="fill:#ffffff;stroke:none" />
    <path
       d="m 79.33898,219.69492 -4.3,0.2 q -2.3,0.45 -4,-0.35 -1.7,-0.8 -3.8,-0.55 l -4.3,0.3 -3.9,0.2 -3.7,0.3 -3.85,0.4 -3.95,-0.3 -3.9,-0.15 -4.2,-0.2 -4.1,-0.2 -3.7,0.35 -4,0.4 -2.8,-0.2 -5.5,-0.2"
       id="path236"
       inkscape:connector-curvature="0"
       style="fill:none;stroke:#b2b7bb;stroke-width:2;stroke-linecap:round;stroke-linejoin:round" />
    <path
       d="m 19.33898,229.69492 q 0.65,-2.6 0.15,-4.15 -0.5,-1.55 -0.35,-3.65 0.2,-2.1 0.65,-4.3 0.5,-2.15 -0.2,-2.75 -0.65,-0.6 -0.25,-5.15 l 3.45,-0.1 3.7,-0.2 4.5,-0.15 4.35,0.25 3.9,0.45 3.75,0.2 4.05,-0.3 4.2,-0.55 4.5,-0.4 3.8,0.35 3.1,0.55 h 4.3 l 4.3,0.1 3.15,0.35 4.95,-0.55 q -0.1,2.6 0.25,4.15 0.4,1.6 0.2,3.7 l -0.15,4 q 0.05,1.9 -0.25,3.1 -0.25,1.2 -0.05,5.05 l -4.75,0.15 h -4.15 l -3.45,-0.25 -3.5,-0.1 -4.55,0.4 -3.95,-0.2 -3.6,-0.55 -3.75,-0.15 -4.15,0.35 q -2.45,0.4 -4.25,-0.05 -1.8,-0.4 -4,-0.05 l -4,0.55 -4.05,0.35 -2.9,0.3 -4.95,-0.75"
       id="path238"
       inkscape:connector-curvature="0"
       style="fill:none;stroke:#2a2a2a;stroke-width:2;stroke-linecap:round;stroke-linejoin:round" />
  </g>
  <g
     id="g2358"
     transform="matrix(1.0564062,0,0,1.0443378,535.04083,-300.24867)"
     inkscape:export-xdpi="96"
     inkscape:export-ydpi="96">
    <path
       d="m -192.66102,249.19492 v 20.5 h -10 v -60 h 60 v 60 h -10 v -20.5 q -0.2,-8 -5.85,-13.65 -5.85,-5.85 -14.15,-5.85 -8.3,0 -14.15,5.85 -5.65,5.65 -5.85,13.65"
       id="path240"
       inkscape:connector-curvature="0"
       style="fill:#ffffff;stroke:none" />
    <path
       d="m -142.66102,219.69492 -3.6,0.15 -4.25,0.3 -4,-0.25 -4.2,-0.35 -3.75,0.25 -3.9,0.1 -3.05,-0.15 q -0.8,-0.1 -3.25,-0.05 -0.8,1.15 -0.9,3.7 -0.1,2.6 0.7,3.5 0.85,0.9 0.2,2.8 m 20,20 4.05,0.25 2.8,-0.5 3.15,0.25 m -60,-30 q 1.2,-0.85 3.1,-0.3 l 4.7,0.5 4.45,-0.25 q 1.65,-0.15 3.4,-0.05 l 3.8,0.1 4.15,0.1 3.3,0.1 3.1,-0.2 m -20,30 -4,-0.4 -2.95,0.4 h -3.05"
       id="path242"
       inkscape:connector-curvature="0"
       style="fill:none;stroke:#b2b7bb;stroke-width:2;stroke-linecap:round;stroke-linejoin:round" />
    <path
       d="m -192.51102,245.34492 q -0.7,1.85 -0.15,3.85 -0.75,2 -0.5,4.1 l 0.45,3.95 0.1,3.6 q 0,1.8 0.4,4.3 0.45,2.5 0.05,3.35 l -0.5,1.2 -3.9,-0.25 -2.85,0.75 q -1.25,0.45 -3.25,-0.5 0,-2.05 0.15,-4.1 l -0.05,-4.25 -0.2,-3.95 -0.2,-3.55 q -0.25,-1.8 0.2,-4.1 0.45,-2.3 0.25,-4.2 -0.2,-1.85 0.25,-3.7 0.45,-1.8 0.05,-3.75 -0.4,-1.95 -0.15,-4.3 0.25,-2.35 -0.1,-4.55 -0.3,-2.2 -0.3,-4.1 l 0.05,-3.7 q 0.05,-1.75 -0.3,-3.75 -0.35,-2 0,-3.35 0.4,-1.35 0.35,-4.65 l 3.3,-0.65 3.95,0.15 4.7,0.35 4.25,-0.2 q 1.8,-0.05 3.75,0.6 l 3.75,0.25 q 1.85,-0.4 4.05,-0.05 l 3.95,0.3 3.95,-0.35 4.3,-0.55 4.15,0.1 4.05,0.65 4.2,-0.3 2.95,-0.4 4.7,0.1 q 0.4,1.05 0.25,3.5 l -0.3,4.45 -0.1,3.95 -0.2,4.25 q -0.25,2.3 0.2,3.65 0.5,1.35 0.15,3.65 -0.35,2.3 -0.2,4.4 l 0.2,4 0.15,4 -0.05,4.5 q -0.2,2.35 0.35,4 0.55,1.65 -0.1,3.65 -0.6,2.05 0,4 0.6,1.95 0,3.35 -0.55,1.45 -0.35,4.65 l -4.8,-0.4 -2.65,-0.35 -2.55,0.75 -0.1,-3.3 q 0.1,-1.9 -0.35,-4.3 l -0.5,-4.1 q -0.05,-1.7 0.35,-4.25 l 0.4,-3.3 0.2,-1.25 q -0.15,-1.55 -0.8,-2.95 -0.65,-1.35 -1.2,-3.3 l -0.95,-3.7 q -0.4,-1.75 -2.15,-2.75 -1.7,-1 -3.25,-2.6 -1.55,-1.55 -2.85,-2.4 -1.3,-0.85 -3.85,-1.35 l -4.3,-0.4 -4.15,0.1 q -2.4,-0.05 -3.8,1.05 l -2.7,2.25 q -1.3,1.2 -3.15,2.05 -1.85,0.85 -2.95,2.65 -1.1,1.8 -2.1,3.75 l -1.65,3.75"
       id="path244"
       inkscape:connector-curvature="0"
       style="fill:none;stroke:#2a2a2a;stroke-width:2;stroke-linecap:round;stroke-linejoin:round" />
  </g>
  <g
     id="g2383"
     transform="matrix(1.0564062,0,0,1.0443378,462.78265,-301.13636)"
     inkscape:export-xdpi="96"
     inkscape:export-ydpi="96">
    <path
       d="m 227.33898,209.69492 v 60 h -60 v -60 h 10 v 10 h 10 v -10 h 20 v 10 h 10 v -10 h 10"
       id="path246"
       inkscape:connector-curvature="0"
       style="fill:#ffffff;stroke:none" />
    <path
       d="m 207.33898,219.69492 -3.45,0.1 -4.75,-0.25 -4.1,-0.25 -2.55,0.25 -5.15,0.15 m 8.95,21 q 0.2,-2.4 -0.15,-3.15 -0.3,-0.75 0.15,-4.35 l 3.85,-0.55 2.95,-0.3 q 0.8,0.15 1.45,0.85 l -0.05,-2.85 0.05,-4.65 4.35,0.3 3.95,-0.55 3.75,0.15 3.05,-0.1 q 1,-0.5 1.4,0.2 l -0.25,3 q -0.2,1 0.25,4.5 l -4.3,0.25 q -1.7,-0.25 -2.8,0 l -1.1,-0.1 0.45,2.55 -0.5,4.8 -3.45,-0.5 q -2.4,-0.45 -4.5,0.35 -2.05,0.85 -4.05,0.55 l -3.05,-0.4 h -1.45 m -18.95,-21 -3.55,-0.25 q -1.8,-0.2 -3.15,0.45 l -3.3,-0.2 m 21.25,36 -4.05,-0.1 -3.6,-0.15 q -1.5,-0.6 -3.75,0 l -3.35,0.65 q -1.05,0 -1.75,-0.4 l 0.1,-3.35 -0.1,-4.15 3.95,-0.5 3.65,0.15 4.6,0.9 3.2,-0.15 q 0.9,-0.45 1.1,-0.4 l 0.65,3.25 q 0.15,1 -0.65,4.25 m -21.25,4 4.1,-0.3 3.9,0.2 3.85,0.35 4.35,-0.15 3.5,-0.15 4,-0.35 3.9,-0.5 3.9,0.45 4.6,0.4 4.05,-0.2 3.85,0.1 4.1,-0.05 q 2.25,-0.15 4.05,0.05 l 3,0.35 4.85,-0.2 m 0,-40 -4.9,-0.3 -2.3,0.5 -2.8,-0.2 m -4.5,13.65 -0.05,-0.15 -3.5,-0.3 q -1.9,-0.25 -3.2,0 l -1.55,0.3"
       id="path248"
       inkscape:connector-curvature="0"
       style="fill:none;stroke:#b2b7bb;stroke-width:2;stroke-linecap:round;stroke-linejoin:round" />
    <path
       d="m 177.33898,219.69492 4.45,-0.25 q 2.2,-0.2 2.85,0.45 l 2.7,-0.2 q -0.3,-2 0.05,-4.25 l 0.25,-2.9 -0.3,-2.85 3.75,0.25 4.7,-0.2 h 3.5 l 2.2,0.05 5.85,-0.1 q 0.05,3 -0.4,4.95 l -0.4,2.1 0.8,2.95 4.55,0.1 2.25,-0.25 3.2,0.15 q 0.75,-1.65 0.55,-3.6 -0.15,-1.95 -0.7,-3.25 -0.55,-1.3 0.15,-3.15 l 3.75,-0.3 2.8,0.35 3.45,-0.05 v 4.05 q 0,1.95 -0.4,3.8 -0.4,1.85 -0.4,3.9 0.05,2.1 0.5,4.3 0.45,2.25 0.35,3.9 l -0.15,4.05 q -0.1,2.4 0.2,4.2 0.35,1.8 0.05,3.7 -0.3,1.9 -0.2,3.6 l 0.1,4.05 q -0.05,2.4 -0.55,4.5 -0.5,2.15 -0.35,4.25 l 0.4,3.6 q 0.3,1.5 0.2,2.8 -0.05,1.3 0.25,5.3 l -3.9,0.05 -4.15,0.05 -3.8,-0.05 -3.95,0.3 -4.2,0.1 -3.6,-0.75 q -1.55,-0.35 -4,-0.05 l -4.35,0.7 -3.7,-0.15 -4.1,-0.35 -4.45,0.2 -4,0.2 q -1.9,0.2 -3.55,-0.4 l -2.95,-0.3 -5.3,0.45 -0.1,-3.3 q 0.1,-1.9 -0.35,-4.3 l -0.5,-4.1 q -0.05,-1.7 0.35,-4.25 0.45,-2.55 0.4,-4.3 v -3.75 l 0.15,-4.15 0.3,-4.3 q 0.1,-2.15 -0.2,-4.15 l -0.35,-3.7 -0.2,-3.6 q -0.2,-1.9 -0.15,-3.8 0.05,-1.85 0.85,-4.2 0.8,-2.3 0.3,-3.55 -0.5,-1.25 -0.5,-4.55 1.45,0.75 3.65,0.4 l 3.3,-0.55 3.05,0.15 q 0.05,2 0.4,3.95 0.4,2 0,2.95 -0.4,0.95 -0.4,3.1"
       id="path250"
       inkscape:connector-curvature="0"
       style="fill:none;stroke:#2a2a2a;stroke-width:2;stroke-linecap:round;stroke-linejoin:round" />
  </g>
  <g
     id="g2323"
     transform="matrix(1.0564062,0,0,1.0443378,852.38347,37.817634)"
     inkscape:export-xdpi="96"
     inkscape:export-ydpi="96">
    <path
       d="m 39.440675,-55.118639 h -60 v -33 h 0.05 q 0.35,-10.95 7.85,-18.800001 l 1.35,-1.25 q 7.6000002,-6.95 17.9000002,-6.95 l 7.5499998,0.05 v 0.05 q 9.15,0.6 15.95,6.85 l 1.3,1.25 q 7.65,7.850001 8.05,18.800001 v 33"
       id="path264"
       inkscape:connector-curvature="0"
       style="fill:#ffffff;stroke:none" />
    <path
       d="m -11.159325,-87.368639 q 0.2,-2.1 0.65,-4 0.45,-1.85 1.2000002,-3.65 0.75,-1.8 2.2,-3.75 1.5,-1.900001 3.1,-2.950001 1.6,-1 3.44999997,-1.8 1.85000003,-0.75 4.15000003,-1.15 l 4.05,-0.35 4.3499998,-0.35 q 2.65,-0.35 4.3,0.4 l 3.55,1.65 q 1.85,0.85 3.35,2.2 l 2.9,2.900001 2.65,3.35 q 1.35,1.8 1.45,3.25 l -0.1,4.25 m -6.35,9.2 q -0.4,2.2 -2.2,3 -1.8,0.8 -2.95,-0.45 -1.1,-1.2 -1.8,-2.65 -0.65,-1.4 1.05,-2.1 l 3.15,-0.2 q 1.45,0.45 1.95,1.4 l 0.8,1 m 6.35,-7.95 v 3.65 q -0.1,1.75 0.3,3.7 0.45,2 0.15,4.15 l -0.4,4.3 -0.1,4.25 -0.05,4.3 q -0.1,2.2 0.35,2.9 0.5,0.75 -0.25,3.75 m -41.25,0 -0.25,-3.95 q -0.1,-1.95 0.3,-4.35 0.45,-2.4 0.15,-4.05 -0.3,-1.65 -0.15,-3.7 l 0.05,-3.9 v -3.95 -3.45 l -0.1,-3.65"
       id="path266"
       inkscape:connector-curvature="0"
       style="fill:none;stroke:#b2b7bb;stroke-width:2;stroke-linecap:round;stroke-linejoin:round" />
    <path
       d="m 39.440675,-87.618639 q -1.05,-1.75 -1.1,-4.1 0,-2.35 -0.65,-3.95 l -1.55,-3.4 -1.75,-3.700001 q -0.9,-1.85 -2.75,-2.9 -1.8,-1 -2.6,-2.6 -0.8,-1.55 -2.65,-2.25 -1.85,-0.65 -3.5,-1.85 -1.6,-1.2 -3.9,-1.95 l -3.3,-0.6 -1.55,-0.1 q 0.55,0 0,-0.05 -1.15,0.8 -3.6,0.4 l -3.8999998,-0.25 -3.55,0.4 q -2.15000003,0.25 -4.05000003,0.85 l -3.99999997,1.35 q -2.15,0.8 -3.75,2.3 -1.6000002,1.5 -2.7000002,3 l -2.7,2.7 q -1.6,1.25 -2.65,3 l -1.9,3.350001 q -0.8,1.6 -0.9,4.1 -0.05,2.5 -0.8,3.95 -0.7,1.45 -0.2,2.3 -0.95,2 -0.6,3.8 0.35,1.8 0.25,4.2 -0.1,2.45 0.1,4.2 l 0.25,3.95 q 0.05,2.2 -0.25,4.05 -0.25,1.85 -0.25,3.75 0.05,1.95 0.5,4.1 l 0.45,2.7 -0.45,1.75 4.15,-0.25 3.75,0.2 3.9000002,0.05 3.9,-0.05 4.54999997,0.15 q 2.20000003,0.2 3.55000003,0 l 3.85,-0.2 4.0499998,0.05 3.9,0.05 4.7,0.15 4.4,-0.2 q 2,-0.35 3.7,0.05 l 3.75,0.45 2.95,-0.05 4.9,-0.4 q 0,-2.45 0.15,-3.95 0.15,-1.5 -0.1,-3.9 -0.2,-2.4 0,-4.2 0.2,-1.75 0.05,-3.85 l -0.05,-4.05 q 0.1,-2 -0.35,-4.05 -0.4,-2.05 0,-2.95 0.4,-0.9 0.3,-4.05"
       id="path268"
       inkscape:connector-curvature="0"
       style="fill:none;stroke:#2a2a2a;stroke-width:2;stroke-linecap:round;stroke-linejoin:round" />
  </g>
  <g
     id="g2293"
     transform="matrix(1.0564062,0,0,1.0443378,446.51399,-116.96739)"
     inkscape:export-xdpi="96"
     inkscape:export-ydpi="96">
    <path
       d="m 301.33898,-86.30508 v 60 h -60 v -60 h 60"
       id="path270"
       inkscape:connector-curvature="0"
       style="fill:#ffffff;stroke:none" />
    <path
       d="m 286.33898,-86.30508 q 1.45,0.95 2.85,2.65 l 2.7,3.2 2.7,2.95 q 1.35,1.5 3.1,2.55 1.8,1.1 2,1.85 0.25,0.8 1.65,1.8 m -30,-15 2.4,2.4 q 1.5,1.65 3.15,2.7 1.65,1.05 2.95,3.15 1.3,2.1 2.7,3.2 l 2.8,2.5 3.05,3 3.1,2.8 2.6,2.6 2.25,2.45 2,1.8 q 1,0.75 3,3.4 m -45,-30 2.5,2.55 3.05,3.45 q 1.45,2 2.85,3.15 l 3.3,2.8 2.8,2.8 2.25,2.6 q 1.4,1.4 2.8,2.15 1.45,0.8 2.85,2.55 l 2.8,3.6 2.85,3.3 q 1.45,1.45 2.5,2.15 l 2.65,2.35 q 1.55,1.7 3.5,2.75 2,1.05 2.9,2.6 0.9,1.55 2.1,2.7 1.25,1.2 2.2,1.75 0.95,0.6 1.1,1.75 m -60,-45 2.65,3.05 3,2.7 2.95,2.9 q 1.15,1.6 2.45,2.75 l 2.5,2.25 3.05,3.2 3,3.25 2.7,2.6 q 1.5,1.5 3.15,2.55 l 3.2,2.5 2.75,3 2.55,2.95 3.05,2.65 2.9,2.45 q 1.15,1.1 2.05,2.9 0.95,1.85 2.3,3.2 l 2.95,3 q 1.6,1.7 3.25,2.55 1.65,0.9 2.85,2.05 l 2.75,3.3 q 1.55,2.2 2.5,2.15 0.95,0 1.45,2.05 m -60,-45 q 1.45,2.3 2.75,3.25 l 2.6,2.05 2.7,2.7 3,2.8 3.2,2.9 q 1.75,1.7 2.75,3.3 l 2.3,2.75 3.3,2.75 q 2.05,1.65 3,2.95 l 2.35,2.7 2.8,2.65 2.35,2.7 q 1,1.45 2.7,3 l 3.05,3.1 q 1.35,1.55 3.35,2.65 2.05,1.15 2.3,1.8 l 0.5,0.95 m -45,-30 3.25,3.2 2.75,2.45 2.65,2.8 2.1,3 q 0.95,1.55 2.65,2.75 l 3.15,2.4 2.85,2.75 3.1,3.35 2.8,2.7 1.95,1.7 2.75,2.9 m -30,-15 q 2.4,0.6 3.5,2.3 l 2.15,3.05 2.65,2.75 3.2,2.95 2.05,2.15 1.45,1.8"
       id="path272"
       inkscape:connector-curvature="0"
       style="fill:none;stroke:#b2b7bb;stroke-width:2;stroke-linecap:round;stroke-linejoin:round" />
    <path
       d="m 301.33898,-86.30508 -0.1,4.05 q 0,2.1 0.5,4.05 0.5,1.95 0.2,4.2 -0.3,2.25 -0.15,3.95 0.2,1.75 0,4.1 l -0.15,3.75 -0.2,3.6 q -0.2,2.25 0,4.25 0.25,2.05 -0.05,4.25 l -0.45,4.05 q -0.2,1.8 0.1,4.1 0.3,2.35 0.2,4.4 -0.05,2.1 0.3,3.5 0.4,1.4 0.05,2.45 -0.35,1.1 -0.25,5.3 -2.2,-0.9 -4.45,-0.45 l -3.9,0.45 h -3.85 l -3.85,0.05 h -3.35 l -3.8,0.4 -4.9,0.25 -4.45,-0.3 -3.55,0.15 -3.6,-0.15 -4.35,-0.45 -4.15,-0.45 q -1.35,-0.45 -3.7,0.05 l -3,0.1 -5.1,0.35 q -0.35,-1.95 0,-4.25 0.4,-2.3 0.15,-3.8 -0.2,-1.45 0.3,-3.6 0.5,-2.15 -0.3,-4.2 -0.8,-2.05 -0.9,-4.05 -0.05,-2 0.3,-4.05 0.4,-2.05 0.3,-4.35 l -0.3,-4 q -0.15,-1.7 0.2,-3.95 l 0.35,-4 -0.2,-4 q -0.15,-2.25 0,-4 l 0.35,-4 q 0.2,-2.2 -0.05,-2.95 -0.25,-0.7 -0.2,-4.8 l 3.85,0.25 4.2,-0.1 4.15,0.1 3.65,-0.05 3.7,-0.55 q 1.8,-0.35 4.25,0.4 l 4.2,0.45 3.9,-0.2 4.35,-0.25 4.4,-0.3 3.95,0.2 3.75,0.15 4.25,-0.15 3.1,-0.35 4.3,0.4"
       id="path274"
       inkscape:connector-curvature="0"
       style="fill:none;stroke:#2a2a2a;stroke-width:2;stroke-linecap:round;stroke-linejoin:round" />
  </g>
  <g
     id="g2378"
     transform="matrix(1.0564062,0,0,1.0443378,476.25183,-301.03193)"
     inkscape:export-xdpi="96"
     inkscape:export-ydpi="96">
    <path
       d="m 133.33898,209.69492 v 60 h -20 v -60 h 20"
       id="path280"
       inkscape:connector-curvature="0"
       style="fill:#ffffff;stroke:none" />
    <path
       d="m 133.33898,234.69492 -4,0.1 -4.15,-0.15 -4.25,-0.1 -3,0.35 -4.6,-0.2 m 20,10 q -1.4,-0.85 -3.55,-0.8 l -4.3,0.25 -4.45,0.35 -3.1,0.3 -4.6,-0.1"
       id="path282"
       inkscape:connector-curvature="0"
       style="fill:none;stroke:#b2b7bb;stroke-width:2;stroke-linecap:round;stroke-linejoin:round" />
    <path
       d="m 133.33898,209.69492 q -0.05,1.6 0.45,3.7 0.5,2.1 -0.1,4.2 -0.55,2.15 -0.4,4.2 0.2,2.05 -0.4,4.15 -0.55,2.15 0.2,4 0.75,1.85 0.75,3.8 0.05,2 -0.25,3.75 -0.25,1.8 -0.25,4.25 v 4.1 l 0.2,3.8 0.35,4.1 q 0.15,1.95 -0.2,3.7 -0.35,1.75 0.05,4.2 0.4,2.5 -0.45,3.25 -0.85,0.8 0.05,4.8 -2.45,-0.1 -4.25,0.05 l -3.35,-0.35 q -1.55,-0.45 -4.3,-0.05 l -3.5,0.65 -4.6,-0.3 q -0.45,-2.1 -0.25,-3.95 l 0.65,-4.35 q 0.45,-2.45 -0.3,-4.05 -0.75,-1.55 -0.5,-3.35 l 0.3,-3.85 q 0.05,-2.05 0.45,-4.25 0.45,-2.2 -0.1,-4.45 -0.55,-2.25 -0.75,-3.7 -0.15,-1.4 0.1,-3.55 l 0.75,-4.75 q 0.55,-2.6 -0.25,-3.9 -0.75,-1.25 -0.7,-3.6 0.1,-2.3 0.45,-4.25 0.35,-1.95 -0.15,-3.45 -0.45,-1.5 0.3,-4.55 l 4.4,-0.05 4,-0.05 3.1,0.15 2.95,0.4 5.55,-0.45"
       id="path284"
       inkscape:connector-curvature="0"
       style="fill:none;stroke:#2a2a2a;stroke-width:2;stroke-linecap:round;stroke-linejoin:round" />
  </g>
  <g
     id="g2338"
     transform="matrix(1.0564062,0,0,1.0443378,461.30368,-131.58812)"
     inkscape:export-xdpi="96"
     inkscape:export-ydpi="96">
    <path
       d="m 227.33898,-12.30508 v 60 h -60 v -60 h 60"
       id="path286"
       inkscape:connector-curvature="0"
       style="fill:#ffffff;stroke:none" />
    <path
       d="m 181.63898,13.74492 0.9,-4.65 q 0.3,-2.15 1.1,-3.85 0.85,-1.65 2.3,-2.75 1.5,-1.05 2.95,-1.75 l 3.35,-1.85 q 1.9,-1.15 3.7,-1.05 l 4.05,0.4 q 2.25,0.3 3.6,1.5 1.4,1.25 3.2,2.25 l 3.25,1.95 q 1.45,0.95 2.55,3.2 1.1,2.3 0.65,3.8 -0.45,1.55 0.3,2.8 -0.55,1.9 -0.25,4.1 l 0.45,3.9 0.05,2.85 -0.25,4.25 q -1.5,2.6 -1.95,2.25 -0.45,-0.35 -2,1.6 l -4.7,0.3 -2.9,0.2 -4,-0.25 -4.5,-0.2 h -4.2 l -3.65,-0.05 q -2.7,-0.3 -3,-1.25 l -1,-2.6 -0.55,-3.9 q -0.2,-1.9 0.25,-4 0.5,-2.05 0.35,-2.7 -0.1,-0.65 -0.05,-4.5 m 5.6,0 1.3,-4.5 q 0.6,-2.05 1.85,-3.4 1.25,-1.35 3.15,-1.8 l 3.75,-0.15 3.7,0.55 q 1.9,0.2 3.15,1.85 l 2.35,3.45 q 1.1,1.85 0.85,3.25 -0.2,1.45 0.65,0.75 0.05,2.75 -0.45,3.9 -0.5,1.15 -0.1,3.5 l 0.45,3.35 0.1,2.6 -4.8,-0.4 -4.05,0.4 -3.55,0.3 -4.05,-0.25 -2.6,0.3 -1.7,-0.35 q 0.55,-2.35 0.2,-4.2 -0.35,-1.8 -0.4,-3.8 l 0.1,-2.8 0.1,-2.55 m 40.1,23.95 h -4.65 -3.55 l -3.9,0.05 -4.2,-0.1 -3.95,-0.1 -3.75,0.35 -3.95,0.4 q -2.05,0.15 -3.9,-0.65 -1.85,-0.75 -4.1,-0.7 l -4.15,0.35 -4.1,0.1 q -2.2,-0.2 -4.1,0 l -3.8,0.35 -2.95,-0.05 q -1.05,-0.15 -4.95,0"
       id="path288"
       inkscape:connector-curvature="0"
       style="fill:none;stroke:#b2b7bb;stroke-width:2;stroke-linecap:round;stroke-linejoin:round" />
    <path
       d="m 227.33898,-12.30508 q -0.1,1.85 -0.05,3.85 l -0.1,4.1 -0.5,4.1 q -0.35,2.1 0.05,3.55 0.4,1.5 0.15,3.95 -0.2,2.5 0.1,4.45 0.35,2 0.15,4 -0.15,2 0.15,4.05 l 0.65,4 q 0.3,1.95 0.2,4.4 -0.05,2.45 -0.9,4.25 -0.85,1.85 -0.45,3.7 0.4,1.85 0.45,4.15 0.05,2.3 0.4,2.85 0.4,0.55 -0.3,4.6 l -5.1,-0.15 -2.65,0.55 -3.95,-0.15 -4.4,-0.9 q -2.1,-0.3 -3.7,0.65 -1.6,0.95 -3.9,0.55 l -4.3,-0.45 -4.1,0.05 -3.65,-0.1 -3.7,0.4 -4.25,-0.15 -4.2,-0.5 -3.75,-0.3 q -1.6,-0.45 -3.8,0.45 -2.2,0.95 -4.55,0.05 0.35,-1.1 0.55,-4.05 0.2,-2.9 -0.2,-4.45 -0.4,-1.55 -0.25,-3.7 l 0.2,-3.5 0.25,-3.85 q 0.2,-2.5 -0.3,-4.4 -0.45,-1.85 -0.35,-3.9 l 0.1,-4.05 q 0,-1.95 0.3,-3.55 0.3,-1.6 -0.1,-4.55 -0.4,-2.95 -0.3,-4.65 l 0.4,-3.1 q 0.35,-1.4 -0.05,-3.85 -0.4,-2.4 -0.35,-3.55 l 0.1,-4.85 3.7,-0.15 4.05,0.1 4.25,-0.05 h 3.9 3.6 l 4,-0.3 4.75,0.5 q 2.45,0.75 3.85,0.05 1.45,-0.65 3.5,-0.7 l 3.75,0.3 4.15,0.35 4.75,0.35 q 2.25,0.35 3.95,-0.45 1.7,-0.75 2.95,-0.4 l 4.85,0.4"
       id="path290"
       inkscape:connector-curvature="0"
       style="fill:none;stroke:#2a2a2a;stroke-width:2;stroke-linecap:round;stroke-linejoin:round" />
  </g>
  <g
     id="g2363"
     transform="matrix(1.0564062,0,0,1.0443378,521.20191,-300.19646)"
     inkscape:export-xdpi="96"
     inkscape:export-ydpi="96">
    <path
       d="m -118.66102,209.69492 v 60 h -10 v -60 h 10 m 40,0 h 10 v 60 h -10 v -60"
       id="path302"
       inkscape:connector-curvature="0"
       style="fill:#ffffff;stroke:none" />
    <path
       d="m -118.66102,244.69492 q -1.1,0.75 -3.6,0.35 l -3.5,-0.5 -2.9,0.15 m 10,-10 q -1,-0.8 -3.5,-0.8 l -3.5,0.4 -3,0.4 m 60,10 q -1.4,-0.85 -3.55,-0.8 l -3.3,0.25 -3.15,0.55 m 10,-10 -4,-0.25 -3.05,0.25 h -2.95"
       id="path304"
       inkscape:connector-curvature="0"
       style="fill:none;stroke:#b2b7bb;stroke-width:2;stroke-linecap:round;stroke-linejoin:round" />
    <path
       d="m -128.66102,269.69492 -0.1,-3.3 q 0.1,-1.9 -0.35,-4.3 l -0.5,-4.1 q -0.05,-1.7 0.35,-4.25 0.45,-2.55 0.4,-4.3 v -3.75 l 0.15,-4.15 0.3,-4.3 q 0.1,-2.15 -0.2,-4.15 l -0.35,-3.7 -0.2,-3.6 q -0.2,-1.9 -0.15,-3.8 0.05,-1.85 0.85,-4.2 0.8,-2.3 0.3,-3.55 -0.5,-1.25 -0.5,-4.55 l 4,0.05 2.6,-0.2 3.4,0.15 q 0.4,1.45 -0.25,3.7 -0.6,2.3 -0.2,4.35 0.45,2.05 0.35,3.9 -0.05,1.9 0.2,4.1 l 0.2,3.95 -0.15,3.7 -0.3,4.35 q -0.1,2.5 0.3,4.15 0.45,1.65 0.5,3.75 0.05,2.1 -0.5,4.05 -0.55,2 -0.6,3.95 l -0.25,4.05 q -0.2,2.05 0.1,3.6 l 0.3,2.95 0.3,5.45 -4.8,-0.4 -2.65,-0.35 -2.55,0.75 m 50,-60 4.4,-0.05 3,-0.05 2.6,0.1 q -0.5,2.4 -0.25,4.25 l 0.7,3.8 q 0.4,1.95 -0.5,4 -0.9,2.1 -0.8,4.05 l 0.5,3.9 0.4,3.85 -0.2,3.9 q -0.25,2.05 0.15,4.25 0.45,2.25 0.25,3.7 l -0.55,3.75 q -0.35,2.3 -0.4,4.45 0,2.15 0.35,4.1 0.35,2 0.35,4 l 0.05,3.25 -0.05,4.75 q -1.95,0.95 -4.1,0.35 l -2.95,-0.6 -2.95,0.25 q -0.45,-2.1 -0.25,-3.95 l 0.65,-4.35 q 0.45,-2.45 -0.3,-4.05 -0.75,-1.55 -0.5,-3.35 l 0.3,-3.85 q 0.05,-2.05 0.45,-4.25 0.45,-2.2 -0.1,-4.45 -0.55,-2.25 -0.75,-3.7 -0.15,-1.4 0.1,-3.55 l 0.75,-4.75 q 0.55,-2.6 -0.25,-3.9 -0.75,-1.25 -0.7,-3.6 0.1,-2.3 0.45,-4.25 0.35,-1.95 -0.15,-3.45 -0.45,-1.5 0.3,-4.55"
       id="path306"
       inkscape:connector-curvature="0"
       style="fill:none;stroke:#2a2a2a;stroke-width:2;stroke-linecap:round;stroke-linejoin:round" />
  </g>
  <g
     id="g2353"
     transform="matrix(1.0564062,0,0,1.0443378,417.72693,-132.11029)"
     inkscape:export-xdpi="96"
     inkscape:export-ydpi="96">
    <path
       d="m 449.33898,7.69492 h -10 v 20 h 10 v 20 h -60 v -20 h 10 v -20 h -10 v -20 h 60 v 20"
       id="path308"
       inkscape:connector-curvature="0"
       style="fill:#ffffff;stroke:none" />
    <path
       d="m 449.33898,40.69492 -4.15,0.1 -3.9,0.05 -4.35,0.3 -4.2,0.1 -4,-0.55 -4.05,-0.05 -3.55,0.2 -4,-0.05 -4.1,-0.15 -3.45,0.05 h -4.05 -4.35 -3.65 l -2.75,-0.15 -5.45,0.15 m 10,-13 3.4,0.2 1.6,-0.2 q 0.85,-2 0.7,-3.9 l -0.45,-4 q -0.25,-2.1 -0.15,-4.25 l 0.15,-2.85 -0.25,-5 q -1.85,-0.65 -2.75,-0.5 l -2.25,0.5 m 25,0 -3.8,0.3 h -3.35 l -2.85,-0.3 q 0.2,3.55 0,4.8 -0.15,1.25 -0.05,3.3 0.1,2.1 0.5,3.85 0.45,1.8 -0.05,3.6 -0.45,1.8 -0.4,4.45 l 4.4,-0.45 3.05,0.4 2.55,0.05 q -0.15,-4.8 -0.45,-5.4 -0.25,-0.55 0,-2.4 l 0.3,-3.9 q 0,-2.05 0.35,-4 0.35,-1.95 -0.2,-4.3 l 2.5,0.45 3.3,-0.6 4.2,0.15 2.25,0.25 2.75,-0.25 m -25,0 -3.55,0.4 -3.05,-0.35 -3.4,-0.05 m 30,0 q 0.6,1.55 -0.2,3.85 -0.8,2.35 -0.3,4.6 0.5,2.25 0.5,3.95 l 0.2,2.6 q 0.25,0.95 -0.2,5 l 2.85,-0.1 2.15,0.1 m -15,0 3.85,-0.1 2.95,-0.2 3.2,0.3 m -30,0 4.7,0.1 h 2.55 l 2.75,-0.1"
       id="path310"
       inkscape:connector-curvature="0"
       style="fill:none;stroke:#b2b7bb;stroke-width:2;stroke-linecap:round;stroke-linejoin:round" />
    <path
       d="m 449.33898,-12.30508 0.05,3.7 q 0,2 -0.45,3.9 -0.4,1.9 0,4.15 0.45,2.3 0.25,3.3 -0.2,1 0.15,4.95 l -3.8,0.3 h -3.35 l -2.85,-0.3 q 0.5,2.1 0.25,4.25 l -0.25,3.95 -0.1,3.8 q -0.1,2 0.35,3 0.5,1 -0.25,5 l 4.4,-0.45 3.05,0.4 2.55,0.05 -0.1,3.55 0.05,4.5 0.1,4 q -0.05,1.1 0.25,2.4 0.35,1.3 -0.3,5.55 l -4,0.35 -4.15,-0.35 q -2.5,-0.75 -4.5,-0.85 l -3.45,0.4 -3.9,0.45 h -3.75 l -3.9,-0.3 -4.45,-0.15 -3.75,-0.1 -4.5,0.35 -4.2,-0.1 -3.15,-0.2 -3.95,0.95 q -2.35,0.5 -3.55,0 l -4.8,-0.45 -0.1,-4.45 0.3,-3.4 q 0.2,-1.6 -0.45,-4 l -0.7,-3.05 q -0.05,-0.65 0.95,-5.1 1.25,0.65 3.55,0.5 l 3.4,-0.35 3.05,-0.15 q 0.85,-1.85 0.4,-3.8 -0.4,-1.95 -0.3,-4.55 l 0.05,-4.25 q 0,-1.65 -0.4,-2.3 -0.35,-0.6 0.25,-5.1 -1.85,0.5 -3.95,0.05 -2.05,-0.45 -3.05,0 l -3,-0.05 0.4,-4.2 q 0.35,-2.4 -0.3,-4.1 -0.6,-1.65 -0.35,-3.7 l 0.35,-3.1 q 0.15,-1 -0.1,-4.9 l 4.85,0.55 3.6,-0.25 3.15,-0.3 4.35,0.05 4.35,0.05 3.8,-0.2 3.75,0.15 3.6,-0.35 q 2.05,-0.65 4.15,0.05 l 4.3,0.4 4.2,0.1 q 2.1,0.4 4.05,0.05 l 3.9,-0.8 3.4,-0.25 4.55,0.75"
       id="path312"
       inkscape:connector-curvature="0"
       style="fill:none;stroke:#2a2a2a;stroke-width:2;stroke-linecap:round;stroke-linejoin:round" />
  </g>
</svg>
