<?xml version="1.0" standalone="no"?>
<!DOCTYPE svg PUBLIC "-//W3C//DTD SVG 20010904//EN"
 "http://www.w3.org/TR/2001/REC-SVG-20010904/DTD/svg10.dtd">
<svg version="1.0" xmlns="http://www.w3.org/2000/svg"
 width="768.000000pt" height="768.000000pt" viewBox="0 0 768.000000 768.000000"
 preserveAspectRatio="xMidYMid meet">
<metadata>
Created by potrace 1.11, written by Peter Selinger 2001-2013
</metadata>
<g transform="translate(0.000000,768.000000) scale(0.100000,-0.100000)"
fill="#000000" stroke="none">
<path d="M5405 7641 c-124 -52 -260 -122 -608 -309 l-297 -161 -213 49 c-379
87 -570 109 -1027 117 -524 9 -675 -13 -1040 -149 -867 -322 -1519 -968 -1928
-1908 -138 -318 -231 -670 -274 -1035 -17 -146 -17 -597 0 -750 85 -771 376
-1488 845 -2088 609 -779 1446 -1268 2352 -1377 517 -61 1068 -30 1485 86 542
150 956 342 1316 609 287 213 618 544 851 851 398 524 663 1158 762 1824 38
257 46 378 45 695 0 331 -15 528 -58 785 -25 148 -84 362 -98 354 -4 -3 -8
-42 -8 -87 0 -194 -42 -744 -80 -1067 -69 -573 -142 -839 -319 -1175 -229
-433 -506 -779 -778 -973 -274 -196 -665 -387 -973 -475 -251 -73 -420 -92
-800 -92 -417 1 -606 24 -1010 125 -129 33 -273 66 -320 74 -80 14 -88 13
-145 -6 -97 -32 -302 -137 -575 -292 -140 -80 -258 -146 -262 -146 -13 0 -9
188 7 325 9 72 27 203 41 293 24 157 25 163 7 185 -10 13 -132 145 -271 294
l-253 270 -272 6 c-273 5 -394 18 -403 42 -12 31 77 150 249 332 227 242 243
274 297 608 83 517 279 838 602 984 89 41 289 107 378 126 99 21 253 21 365 0
164 -30 420 -126 851 -316 364 -160 518 -213 739 -251 100 -17 147 -19 280
-15 191 6 297 31 439 104 307 155 363 216 629 685 90 158 129 301 147 532 8
102 13 129 39 180 39 79 119 179 317 396 238 262 269 305 244 335 -32 38 -228
63 -590 73 l-244 7 -227 278 c-125 153 -226 284 -224 290 8 25 96 490 110 583
19 124 20 214 3 214 -7 0 -53 -18 -103 -39z"/>
</g>
</svg>
