<svg id="Pouting_Face" height="512" viewBox="0 0 512 512" width="512" xmlns="http://www.w3.org/2000/svg" data-name="Pouting Face"><g id="Flat"><path d="m256 512a256 256 0 0 1 -181.02-437.02 256 256 0 0 1 362.04 362.04 254.331 254.331 0 0 1 -181.02 74.98z" fill="#ffcc80"/><path d="m437.02 74.98q-6.261-6.26-12.878-12.02a256.574 256.574 0 0 1 -59.122 270.06 256 256 0 0 1 -349.162 12.02 256.057 256.057 0 1 0 421.162-270.06z" fill="#ffb74d"/><circle cx="56" cy="264" fill="#ffe4c0" r="24"/><circle cx="456" cy="264" fill="#ffe4c0" r="24"/><path d="m199.991 216a8 8 0 0 1 -7.836-6.433c-5.495-27.467-59.726-33.546-80.155-33.567a8 8 0 0 1 0-16c3.534 0 86.664.527 95.845 46.431a8 8 0 0 1 -6.276 9.414 8.11 8.11 0 0 1 -1.578.155z" fill="#424242"/><path d="m312.009 216a8.11 8.11 0 0 1 -1.578-.157 8 8 0 0 1 -6.276-9.414c9.181-45.902 92.311-46.429 95.845-46.429a8 8 0 0 1 0 16c-20.433.021-74.664 6.095-80.159 33.569a8 8 0 0 1 -7.832 6.431z" fill="#424242"/><circle cx="328" cy="216" fill="#616161" r="24"/><circle cx="320" cy="208" fill="#fff" r="8"/><circle cx="184" cy="216" fill="#616161" r="24"/><circle cx="176" cy="208" fill="#fff" r="8"/><g fill="#ef5350"><path d="m376 360a8 8 0 0 1 -7.66-5.7c-.051-.169-5.932-19-22.739-37.451-22.275-24.449-52.42-36.849-89.601-36.849-37.449 0-67.747 12.567-90.054 37.352-16.607 18.453-22.228 36.764-22.283 36.947a8 8 0 1 1 -15.326-4.6c.267-.887 6.734-21.961 25.717-43.053 17.51-19.454 49.411-42.646 101.946-42.646s84.436 23.192 101.946 42.648c18.983 21.092 25.45 42.166 25.717 43.053a8.005 8.005 0 0 1 -7.663 10.299z"/><path d="m400 64h-24a8 8 0 0 1 0-16h24a16.061 16.061 0 0 0 16-16v-24a8 8 0 0 1 16 0v24a31.991 31.991 0 0 1 -32 32z"/><path d="m504 64h-24a31.991 31.991 0 0 1 -32-32v-24a8 8 0 0 1 16 0v24a16.054 16.054 0 0 0 16 16h24.05a8 8 0 0 1 -.05 16z"/><path d="m424 144a8.011 8.011 0 0 1 -8-8v-24a16.06 16.06 0 0 0 -16-16h-24a8 8 0 0 1 0-16h24a31.991 31.991 0 0 1 32 32v24a8.011 8.011 0 0 1 -8 8z"/><path d="m456 144a8.011 8.011 0 0 1 -8-8v-24a31.991 31.991 0 0 1 32-32h24a8 8 0 0 1 0 16h-24a16.059 16.059 0 0 0 -16 16v24a8.011 8.011 0 0 1 -8 8z"/></g><path d="m343.915 198.057c.051.641.085 1.288.085 1.943a23.983 23.983 0 0 1 -39.915 17.943 24 24 0 1 0 39.83-19.886z" fill="#424242"/><path d="m199.915 198.057c.051.641.085 1.288.085 1.943a23.983 23.983 0 0 1 -39.915 17.943 24 24 0 1 0 39.83-19.886z" fill="#424242"/></g></svg>