<svg height="512" viewBox="0 0 512 512" width="512" xmlns="http://www.w3.org/2000/svg"><g id="Loudly_Crying_Face" data-name="Loudly Crying Face"><g id="Flat"><path d="m256 464c-68.228 0-132.411-24.033-180.725-67.671-48.542-43.845-75.275-102.204-75.275-164.329s26.733-120.484 75.275-164.329c48.314-43.638 112.497-67.671 180.725-67.671s132.411 24.033 180.725 67.671c48.542 43.845 75.275 102.204 75.275 164.329s-26.733 120.484-75.275 164.329c-48.314 43.638-112.497 67.671-180.725 67.671z" fill="#ffcc80"/><path d="m436.725 67.671q-8.923-8.06-18.549-15.216a212.763 212.763 0 0 1 13.824 75.545c0 62.125-26.733 120.484-75.275 164.329-48.314 43.638-112.497 67.671-180.725 67.671-59.827 0-116.541-18.483-162.176-52.455 12.523 33.074 33.315 63.37 61.451 88.784 48.314 43.638 112.497 67.671 180.725 67.671s132.411-24.033 180.725-67.671c48.542-43.845 75.275-102.204 75.275-164.329s-26.733-120.484-75.275-164.329z" fill="#ffb74d"/><path d="m392 128c-37.073 0-71.643-2.8-87.264-36.647a8 8 0 0 1 14.528-6.706c10.672 23.123 32.867 27.353 72.736 27.353a8 8 0 0 1 0 16z" fill="#616161"/><path d="m120 128a8 8 0 0 1 0-16c39.869 0 62.064-4.23 72.736-27.353a8 8 0 1 1 14.528 6.706c-15.621 33.847-50.191 36.647-87.264 36.647z" fill="#616161"/><path d="m200 176h-80a8 8 0 0 1 0-16h80a8 8 0 0 1 0 16z" fill="#424242"/><path d="m392 176h-80a8 8 0 0 1 0-16h80a8 8 0 0 1 0 16z" fill="#424242"/><path d="m392 512h-80a40 40 0 0 1 0-80 8.009 8.009 0 0 0 8-8v-248h64v248a8.009 8.009 0 0 0 8 8 40 40 0 0 1 0 80z" fill="#2196f3"/><path d="m200 512h-80a40 40 0 0 1 0-80 8.009 8.009 0 0 0 8-8v-248h64v248a8.009 8.009 0 0 0 8 8 40 40 0 0 1 0 80z" fill="#2196f3"/><path d="m296 272a8 8 0 0 1 -8-8 24.027 24.027 0 0 0 -24-24h-16a24.027 24.027 0 0 0 -24 24 8 8 0 0 1 -16 0 40.045 40.045 0 0 1 40-40h16a40.045 40.045 0 0 1 40 40 8 8 0 0 1 -8 8z" fill="#ef5350"/><path d="m200 432a7.945 7.945 0 0 1 -1.414-.133 121.085 121.085 0 0 1 -100.43 73.616 39.748 39.748 0 0 0 21.844 6.517h80a40 40 0 0 0 0-80z" fill="#1e88e5"/><path d="m392 432a7.945 7.945 0 0 1 -1.414-.133 121.085 121.085 0 0 1 -100.43 73.616 39.748 39.748 0 0 0 21.844 6.517h80a40 40 0 0 0 0-80z" fill="#1e88e5"/><circle cx="88" cy="248" fill="#ffe4c0" r="24"/><circle cx="424" cy="248" fill="#ffe4c0" r="24"/><g fill="#90caf9"><circle cx="120" cy="464" r="16"/><circle cx="312" cy="464" r="16"/></g></g></g></svg>