<svg height="512" viewBox="0 0 512 512" width="512" xmlns="http://www.w3.org/2000/svg"><g id="Smirking_Face" data-name="Smirking Face"><g id="Flat"><path d="m240 512c-66.7 0-128.262-27.927-173.341-78.636-42.359-47.652-66.659-112.299-66.659-177.364s24.3-129.712 66.659-177.364c45.079-50.709 106.641-78.636 173.341-78.636 72.332 0 139.1 19.218 188.009 54.112 54.948 39.205 83.991 95.188 83.991 161.888 0 64.3-30.883 138.063-82.611 197.311-54.76 62.718-123.789 98.689-189.389 98.689z" fill="#ffcc80"/><path d="m479.656 106.364c-7.505 163.436-142.368 293.636-307.656 293.636a306.575 306.575 0 0 1 -150.819-39.414 261.639 261.639 0 0 0 45.478 72.778c45.079 50.709 106.641 78.636 173.341 78.636 65.6 0 134.629-35.971 189.389-98.689 51.728-59.248 82.611-133.011 82.611-197.311 0-41.089-11.037-78.1-32.344-109.636z" fill="#ffb74d"/><path d="m344 320h-104a8 8 0 0 1 0-16h104a16.019 16.019 0 0 0 16-16 8 8 0 0 1 16 0 32.036 32.036 0 0 1 -32 32z" fill="#ef5350"/><circle cx="208" cy="200" fill="#616161" r="24"/><circle cx="352" cy="200" fill="#616161" r="24"/><circle cx="216" cy="200" fill="#fff" r="8"/><circle cx="360" cy="200" fill="#fff" r="8"/><path d="m424 184a8 8 0 0 1 -8-8 48.054 48.054 0 0 0 -48-48 8 8 0 0 1 0-16 64.072 64.072 0 0 1 64 64 8 8 0 0 1 -8 8z" fill="#616161"/><path d="m88 184a8 8 0 0 1 -8-8 64.072 64.072 0 0 1 64-64 8 8 0 0 1 0 16 48.054 48.054 0 0 0 -48 48 8 8 0 0 1 -8 8z" fill="#616161"/><path d="m216 208a24.027 24.027 0 0 1 -24-24c0-.655.034-1.3.085-1.943a23.992 23.992 0 1 0 39.83 19.886 23.9 23.9 0 0 1 -15.915 6.057z" fill="#424242"/><path d="m360 208a24.027 24.027 0 0 1 -24-24c0-.655.034-1.3.085-1.943a23.992 23.992 0 1 0 39.83 19.886 23.9 23.9 0 0 1 -15.915 6.057z" fill="#424242"/><path d="m160.007 200a8 8 0 0 1 -4.444-14.657c25.719-17.143 66.705-17.343 68.437-17.343a8 8 0 0 1 0 16c-.376 0-37.91.218-59.567 14.656a7.968 7.968 0 0 1 -4.426 1.344z" fill="#ffb74d"/><path d="m304.007 200a8 8 0 0 1 -4.444-14.657c25.719-17.143 66.705-17.343 68.437-17.343a8 8 0 0 1 0 16c-.376 0-37.91.218-59.567 14.656a7.968 7.968 0 0 1 -4.426 1.344z" fill="#ffb74d"/><g fill="#ffe4c0"><circle cx="120" cy="248" r="24"/><circle cx="424" cy="248" r="24"/></g></g></g></svg>