<svg id="Capa_1" enable-background="new 0 0 511.997 511.997" height="512" viewBox="0 0 511.997 511.997" width="512" xmlns="http://www.w3.org/2000/svg"><g><g><circle cx="151.495" cy="141.803" fill="#f9f6f9" r="129.303"/><path d="m171.897 269.501c-6.647 1.059-13.462 1.604-20.402 1.604-71.408 0-129.303-57.894-129.303-129.302 0-71.409 57.894-129.303 129.303-129.303 6.941 0 13.755.545 20.402 1.604-61.721 9.771-108.911 63.23-108.911 127.699 0 64.468 47.19 117.927 108.911 127.698z" fill="#dddaec"/><g><path d="m190.107 199.022h-9.585v-46.861-16.268c0-8.249-6.687-14.935-14.936-14.935h-52.704c-8.617 0-15.602 6.985-15.602 15.602 0 8.617 6.985 15.602 15.602 15.602h13.5v46.861h-13.5c-8.617 0-15.602 6.985-15.602 15.602 0 8.617 6.985 15.602 15.602 15.602h77.224c8.617 0 15.602-6.985 15.602-15.602 0-8.618-6.985-15.603-15.601-15.603z" fill="#9dc6fb"/><path d="m144.156 152.158v46.854h-13.504c-8.618 0-15.601 6.993-15.601 15.611 0 4.299 1.751 8.199 4.571 11.029 2.82 2.82 6.72 4.571 11.029 4.571h-17.771c-4.309 0-8.209-1.751-11.029-4.571-2.831-2.831-4.571-6.731-4.571-11.029 0-8.618 6.982-15.611 15.601-15.611h13.504v-46.854h-13.504c-4.309 0-8.209-1.74-11.029-4.571-2.831-2.82-4.571-6.72-4.571-11.029 0-8.618 6.982-15.601 15.601-15.601h17.771c-8.618 0-15.601 6.983-15.601 15.601 0 4.309 1.751 8.209 4.571 11.029 2.82 2.831 6.72 4.571 11.029 4.571z" fill="#80b4fb"/><circle cx="153.453" cy="69.966" fill="#9dc6fb" r="27.07"/><path d="m162.732 95.401c-2.894 1.059-6.018 1.636-9.279 1.636-14.951 0-27.07-12.12-27.07-27.07 0-14.951 12.12-27.07 27.07-27.07 3.261 0 6.385.577 9.279 1.636-10.379 3.785-17.792 13.745-17.792 25.435 0 11.688 7.412 21.648 17.792 25.433z" fill="#80b4fb"/></g><path d="m353.808 350.817c-62.053 0-112.358 50.304-112.358 112.357v41.326h224.715v-41.326c.001-62.053-50.303-112.357-112.357-112.357z" fill="#dd5790"/><path d="m377.783 353.385c-50.528 10.974-88.382 55.962-88.382 109.785v41.33h-47.951v-41.33c0-62.048 50.304-112.352 112.352-112.352 8.226 0 16.259.888 23.981 2.567z" fill="#da387d"/><path d="m390.831 367.033-37.679-37.679-26.913 26.913-10.765 10.765c-7.432 7.432-7.432 19.482 0 26.913 7.432 7.432 19.482 7.432 26.913 0l10.765-10.765 10.765 10.765c7.432 7.432 19.481 7.432 26.913 0 7.433-7.43 7.433-19.48.001-26.912z" fill="#f9f6f9"/><path d="m353.152 368.181c-57.652 0-104.388-46.736-104.388-104.388v-55.041c0-57.652 46.736-104.388 104.388-104.388 57.652 0 104.388 46.736 104.388 104.388v55.041c0 57.652-46.736 104.388-104.388 104.388z" fill="#ffddce"/><path d="m383.713 363.633c-9.67 2.96-19.93 4.55-30.56 4.55-57.65 0-104.389-46.73-104.389-104.389v-55.04c0-57.65 46.74-104.389 104.389-104.389 10.63 0 20.89 1.59 30.56 4.55-42.74 13.07-73.82 52.83-73.82 99.839v55.04c.001 47.019 31.081 86.769 73.82 99.839z" fill="#ffcbbe"/><path d="m450.701 7.5c-10.961 0-19.846 8.885-19.846 19.846 0 12.091-9.801 21.892-21.892 21.892h-29.68c-21.921 0-39.692 17.771-39.692 39.692 0 21.921 17.771 39.692 39.692 39.692h32.194c32.624 0 59.071-26.447 59.071-59.071v-42.205c-.001-10.961-8.886-19.846-19.847-19.846z" fill="#5e54ac"/><path d="m469.95 22.47c-.39 1.56-.6 3.2-.6 4.88 0 6.05-2.45 11.52-6.41 15.48s-9.43 6.41-15.48 6.41h-29.68c-21.92 0-39.7 17.77-39.7 39.69 0 10.96 4.45 20.88 11.63 28.07 6.55 6.55 15.4 10.82 25.23 11.51-1.14.08-2.3.11-3.46.11h-32.2c-10.96 0-20.88-4.44-28.07-11.62-7.18-7.19-11.62-17.11-11.62-28.07 0-21.92 17.77-39.69 39.69-39.69h29.68c6.05 0 11.52-2.45 15.48-6.41 3.97-3.96 6.42-9.43 6.42-15.48 0-10.97 8.88-19.85 19.84-19.85 9.28 0 17.08 6.37 19.25 14.97z" fill="#524798"/><path d="m299.899 49.238h-5.771c-21.921 0-39.692 17.771-39.692 39.692 0 21.921 17.771 39.692 39.692 39.692h5.771c21.921 0 39.692-17.771 39.692-39.692 0-21.921-17.771-39.692-39.692-39.692z" fill="#5e54ac"/><path d="m299.056 116.999c4.05 4.05 8.97 7.23 14.45 9.22-4.25 1.56-8.83 2.4-13.61 2.4h-5.77c-10.96 0-20.88-4.44-28.07-11.62-7.18-7.19-11.62-17.11-11.62-28.07 0-21.92 17.77-39.69 39.69-39.69h5.77c4.78 0 9.36.84 13.61 2.4-15.22 5.55-26.08 20.15-26.08 37.29.001 10.961 4.44 20.881 11.63 28.07z" fill="#524798"/><path d="m353.151 504.5h-45.37l-12.49-18.54-1-1.49 13.49-25.34c12.53 0 23.87 5.08 32.08 13.29 3.89 3.88 7.07 8.46 9.34 13.54 2.54 5.66 3.95 11.93 3.95 18.54z" fill="#ffddce"/><path d="m349.201 485.96c2.54 5.66 3.95 11.93 3.95 18.54h-45.37l-12.49-18.54z" fill="#ffcbbe"/><path d="m307.782 459.13v45.37h-59.82c-6.27 0-11.94-2.54-16.04-6.65-4.11-4.1-6.65-9.77-6.65-16.04 0-12.52 10.16-22.68 22.69-22.68z" fill="#dd5790"/><path d="m307.782 485.96v18.54h-59.82c-6.27 0-11.94-2.54-16.04-6.65-4.11-4.1-6.65-9.77-6.65-16.04 0-3.3.71-6.44 1.98-9.27 1.13 2.54 2.73 4.83 4.67 6.77 4.1 4.1 9.77 6.65 16.04 6.65z" fill="#da387d"/><path d="m405.381 481.81-1.25 4.15-5.61 18.54h-45.37c0-6.61 1.41-12.88 3.95-18.54 2.27-5.08 5.45-9.66 9.34-13.54 8.21-8.21 19.55-13.29 32.08-13.29z" fill="#ffddce"/><path d="m404.131 485.96-5.61 18.54h-45.37c0-6.61 1.41-12.88 3.95-18.54z" fill="#ffcbbe"/><path d="m481.021 481.81c0 6.27-2.54 11.94-6.64 16.04-4.11 4.11-9.77 6.65-16.04 6.65h-59.82v-45.37h59.82c12.53 0 22.68 10.16 22.68 22.68z" fill="#dd5790"/><path d="m398.521 485.96v18.54h59.82c6.27 0 11.94-2.54 16.04-6.65 4.11-4.1 6.65-9.77 6.65-16.04 0-3.3-.71-6.44-1.98-9.27-1.13 2.54-2.73 4.83-4.67 6.77-4.1 4.1-9.77 6.65-16.04 6.65z" fill="#da387d"/></g><g><path d="m188.022 69.966c0-19.062-15.508-34.57-34.569-34.57-19.062 0-34.57 15.508-34.57 34.57s15.508 34.569 34.57 34.569c19.061.001 34.569-15.507 34.569-34.569zm-54.139 0c0-10.791 8.779-19.57 19.57-19.57s19.569 8.779 19.569 19.57-8.779 19.569-19.569 19.569c-10.791.001-19.57-8.778-19.57-19.569z"/><path d="m326.818 238.903c4.142 0 7.5-3.358 7.5-7.5v-28.789c0-4.142-3.358-7.5-7.5-7.5s-7.5 3.358-7.5 7.5v28.789c0 4.142 3.358 7.5 7.5 7.5z"/><path d="m377.221 195.114c-4.142 0-7.5 3.358-7.5 7.5v28.789c0 4.142 3.358 7.5 7.5 7.5s7.5-3.358 7.5-7.5v-28.789c0-4.142-3.358-7.5-7.5-7.5z"/><path d="m382.15 299.294c-2.929-2.93-7.678-2.929-10.606 0-10.142 10.14-26.643 10.141-36.783 0-2.929-2.929-7.678-2.929-10.606 0-2.929 2.929-2.929 7.678 0 10.606 7.996 7.996 18.495 11.992 28.998 11.992 10.5 0 21.004-3.999 28.998-11.992 2.928-2.928 2.928-7.677-.001-10.606z"/><path d="m473.428 455.688c-.881-14.317-4.262-28.176-10.091-41.26-1.685-3.783-6.119-5.484-9.903-3.799-3.784 1.686-5.485 6.119-3.799 9.903 4.416 9.913 7.223 20.34 8.397 31.099h-31.45l-2.815-15.208c-.754-4.072-4.668-6.764-8.74-6.009-4.073.754-6.763 4.667-6.009 8.74l2.31 12.478h-12.809c-14.86 0-28.299 6.172-37.913 16.076v-66.654c10.416 8.498 25.83 7.898 35.523-1.796 5.013-5 7.773-11.662 7.773-18.76 0-3.709-.762-7.299-2.199-10.599 12.776 6.583 24.203 15.802 33.336 26.969 1.483 1.813 3.637 2.752 5.81 2.752 1.67 0 3.35-.555 4.744-1.694 3.207-2.622 3.68-7.347 1.058-10.554-9.503-11.619-21.185-21.39-34.224-28.727 25.733-16.141 44.463-42.454 50.51-73.263 20.672-13.557 34.363-36.922 34.363-63.437 0-31.992-19.926-59.399-48.01-70.517-4.146-6.927-9.076-13.44-14.738-19.436 25.367-9.405 43.495-33.844 43.495-62.442v-42.204c0-15.079-12.267-27.346-27.346-27.346s-27.346 12.267-27.346 27.346c0 7.936-6.457 14.392-14.393 14.392h-29.68c-16.641 0-31.287 8.666-39.692 21.714-8.405-13.048-23.05-21.714-39.691-21.714h-5.771c-13.887 0-26.39 6.032-35.033 15.611-25.864-32.956-65.336-52.349-107.599-52.349-30.634 0-59.6 9.901-83.765 28.632-3.274 2.538-3.871 7.249-1.333 10.522 2.537 3.274 7.248 3.871 10.522 1.333 21.512-16.674 47.3-25.487 74.576-25.487 39.426 0 76.133 18.95 99.029 50.896-2.308 5.56-3.589 11.649-3.589 18.034 0 18.317 10.497 34.218 25.784 42.036-6.044 6.239-11.29 13.106-15.679 20.452-22.909 9.058-40.375 28.955-46.05 53.343-3.707-7.818-11.674-13.239-20.885-13.239h-2.084v-55.629c0-12.371-10.064-22.436-22.436-22.436h-52.704c-12.738 0-23.102 10.364-23.102 23.102s10.363 23.102 23.102 23.102h6v31.861h-6c-12.738 0-23.102 10.363-23.102 23.102s10.363 23.102 23.102 23.102h77.224c7.947 0 14.969-4.034 19.128-10.162.493 6.693 1.854 13.145 3.978 19.246-18.665 10.998-39.87 16.8-61.716 16.8-67.161 0-121.8-54.644-121.8-121.81 0-27.824 9.62-55.023 27.088-76.589 2.607-3.219 2.111-7.941-1.107-10.549-3.219-2.607-7.942-2.111-10.549 1.107-19.624 24.229-30.432 54.781-30.432 86.031 0 75.438 61.368 136.81 136.8 136.81 24.044 0 47.4-6.261 68.061-18.14 5.931 10.011 14.096 18.542 23.807 24.911 6.096 31.054 25.076 57.542 51.128 73.647-34.601 19.762-57.503 55.922-60.249 95.914-9.763 5.005-16.465 15.167-16.465 26.872 0 16.643 13.54 30.183 30.183 30.183h210.38c16.643 0 30.183-13.54 30.183-30.183.001-11.15-6.081-20.9-15.096-26.126zm-283.322-232.962h-77.224c-4.467 0-8.102-3.635-8.102-8.102s3.634-8.102 8.102-8.102h13.5c4.142 0 7.5-3.358 7.5-7.5v-46.861c0-4.142-3.358-7.5-7.5-7.5h-13.5c-4.467 0-8.102-3.634-8.102-8.102s3.634-8.102 8.102-8.102h52.704c4.1 0 7.436 3.335 7.436 7.436v63.129c0 4.142 3.358 7.5 7.5 7.5h9.584c4.467 0 8.102 3.634 8.102 8.102s-3.634 8.102-8.102 8.102zm130.67 149.615 1.113-1.113c7.605 2.217 15.542 3.644 23.717 4.192v4.699l-8.526 8.525c-4.495 4.495-11.809 4.495-16.304 0-4.494-4.495-4.494-11.808 0-16.303zm64.754 16.303c-4.495 4.495-11.815 4.493-16.311.002l-8.613-8.621v-4.6c8.208-.542 16.177-1.972 23.812-4.197l1.111 1.111c2.175 2.176 3.374 5.073 3.374 8.157 0 3.086-1.195 5.976-3.373 8.148zm64.506-179.894v55.04c0 4.142-.262 8.225-.769 12.232-8.337 4.302-17.781 6.748-27.791 6.748-33.539 0-60.824-27.286-60.824-60.824s27.286-60.824 60.824-60.824c6.081 0 11.952.908 17.496 2.577 7.228 13.727 11.064 29.093 11.064 45.051zm14.993 55.593c.001-.185.007-.368.007-.553v-34.345h16.785c-1.667 13.492-7.762 25.624-16.792 34.898zm16.792-49.898h-16.785v-5.695c0-11.711-1.795-23.145-5.239-33.995 11.886 9.671 20.052 23.733 22.024 39.69zm-102.538-157.707h29.68c16.207 0 29.393-13.185 29.393-29.392 0-6.808 5.538-12.346 12.346-12.346s12.346 5.538 12.346 12.346v42.205c0 28.436-23.135 51.571-51.571 51.571h-32.193c-17.75 0-32.192-14.441-32.192-32.192s14.44-32.192 32.191-32.192zm-117.346 32.192c0-17.75 14.441-32.192 32.192-32.192h5.771c17.75 0 32.191 14.441 32.191 32.192s-14.441 32.192-32.191 32.192h-5.771c-17.751 0-32.192-14.442-32.192-32.192zm27.369 46.947c1.586.162 3.195.245 4.823.245h5.771c16.641 0 31.287-8.666 39.691-21.714 8.405 13.048 23.051 21.714 39.692 21.714h32.193c1.858 0 3.694-.096 5.514-.247 1.597 1.401 3.163 2.859 4.673 4.368 1.971 1.971 3.841 4.017 5.619 6.123-1.919-.146-3.851-.245-5.806-.245-30.042 0-56.058 17.562-68.324 42.958-12.266-25.396-38.283-42.958-68.324-42.958-1.958 0-3.893.099-5.815.245 3.138-3.721 6.573-7.23 10.293-10.489zm-33.04 127.913v-55.04c0-15.95 3.883-31.349 11.088-45.059 5.538-1.664 11.401-2.57 17.473-2.57 33.539 0 60.824 27.286 60.824 60.824s-27.286 60.824-60.824 60.824c-10.011 0-19.455-2.446-27.792-6.749-.506-4.006-.769-8.088-.769-12.23zm-9.734-89.054c-3.454 10.857-5.266 22.307-5.266 34.014v5.695h-16.783c1.974-15.968 10.149-30.038 22.049-39.709zm-22.049 54.709h16.783v34.345c0 .184.006.367.007.551-9.029-9.273-15.123-21.405-16.79-34.896zm36.591 64.493c7.477 2.473 15.457 3.832 23.753 3.832 30.042 0 56.058-17.562 68.324-42.958 12.266 25.396 38.283 42.958 68.324 42.958 8.295 0 16.275-1.358 23.752-3.832-12.704 38.709-49.173 66.742-92.072 66.742-42.902 0-79.376-28.033-92.081-66.742zm-28.295 187.875c0-8.372 6.811-15.183 15.183-15.183h52.324v30.366h-52.324c-8.372.001-15.183-6.81-15.183-15.183zm82.507 15.184v-29.611c14.873 3.001 26.62 14.737 29.62 29.611zm-7.5-45.367h-11.497l2.31-12.478c.754-4.073-1.937-7.986-6.009-8.74-4.079-.755-7.986 1.936-8.74 6.009l-2.815 15.208h-31.432c3.791-34.129 24.354-64.569 54.648-80.855-3.735 9.526-1.765 20.79 5.92 28.475 5.172 5.172 11.964 7.758 18.758 7.758 5.916-.001 11.833-1.964 16.678-5.887v66.489c-9.608-9.847-23.009-15.979-37.821-15.979zm83.233 15.755v29.611h-29.621c3-14.873 14.747-26.609 29.621-29.611zm67.323 29.612h-52.323v-30.367h52.323c8.372 0 15.183 6.811 15.183 15.183s-6.811 15.184-15.183 15.184z"/></g></g></svg>