<?xml version="1.0" encoding="UTF-8" standalone="no"?>
<!-- Generator: Adobe Illustrator 16.0.0, SVG Export Plug-In . SVG Version: 6.00 Build 0)  -->

<svg
   xmlns:dc="http://purl.org/dc/elements/1.1/"
   xmlns:cc="http://creativecommons.org/ns#"
   xmlns:rdf="http://www.w3.org/1999/02/22-rdf-syntax-ns#"
   xmlns:svg="http://www.w3.org/2000/svg"
   xmlns="http://www.w3.org/2000/svg"
   xmlns:sodipodi="http://sodipodi.sourceforge.net/DTD/sodipodi-0.dtd"
   xmlns:inkscape="http://www.inkscape.org/namespaces/inkscape"
   version="1.1"
   x="0px"
   y="0px"
   width="671.82764"
   height="694.48828"
   viewBox="0 0 671.82764 694.48828"
   enable-background="new 0 0 1700.79004 1700.79004"
   xml:space="preserve"
   id="svg16"
   sodipodi:docname="C3logo-monochrome-darkBG-RGB.svg"
   inkscape:version="0.92.3 (2405546, 2018-03-11)"><metadata
   id="metadata22"><rdf:RDF><cc:Work
       rdf:about=""><dc:format>image/svg+xml</dc:format><dc:type
         rdf:resource="http://purl.org/dc/dcmitype/StillImage" /></cc:Work></rdf:RDF></metadata><defs
   id="defs20">
	

		
		
	</defs><sodipodi:namedview
   pagecolor="#ffffff"
   bordercolor="#666666"
   borderopacity="1"
   objecttolerance="10"
   gridtolerance="10"
   guidetolerance="10"
   inkscape:pageopacity="0"
   inkscape:pageshadow="2"
   inkscape:window-width="1920"
   inkscape:window-height="1017"
   id="namedview18"
   showgrid="false"
   inkscape:zoom="0.13875904"
   inkscape:cx="-607.64856"
   inkscape:cy="225.00048"
   inkscape:window-x="-8"
   inkscape:window-y="-8"
   inkscape:window-maximized="1"
   inkscape:current-layer="svg16" />

<g
   id="g11"
   transform="translate(-503.15087,-380.90722)">
			<path
   d="m 1146.6348,642.46973 -120.0586,69.31543 c -12.5489,7.24512 -12.5489,25.48633 0,32.73145 l 120.0586,69.31543 c 12.5683,7.25684 28.3437,-1.85254 28.3437,-16.36523 V 658.83496 c 0,-14.51269 -15.7754,-23.62109 -28.3437,-16.36523 z m -9.4492,122.26562 -63.3653,-36.58398 63.3652,-36.58398 v 73.16796 z"
   id="path7"
   inkscape:connector-curvature="0"
   style="fill:#ffffff" />
			<path
   d="M 1140.2617,887.3252 979.69336,794.61817 c -7.51367,-4.33789 -17.13867,-2.14355 -22.00586,5.13379 -24.02539,35.92578 -64.13477,57.375 -107.29248,57.375 -71.11914,0 -128.97656,-57.85742 -128.97656,-128.97559 0,-71.11817 57.85742,-128.97657 128.97656,-128.97657 43.15771,0 83.26709,21.44922 107.29443,57.37695 4.86328,7.26953 14.49805,9.46484 22.00195,5.13184 l 160.5703,-92.70605 c 8.086,-4.66602 10.7031,-15.07617 5.8008,-23.0127 -61.6426,-99.83008 -171.71681,-165.05762 -295.66749,-165.05762 -195.38281,0 -347.24414,159.10059 -347.24414,347.24414 0,190.21875 153.74414,347.24414 347.24414,347.24414 123.95459,0 234.02489,-65.2305 295.66749,-165.05762 4.8984,-7.93358 2.2754,-18.3496 -5.8008,-23.01268 z m -6.2597,15.56445 c -61.2168,99.14255 -167.23833,158.33205 -283.60698,158.33205 -183.65625,0 -333.07031,-149.41506 -333.07031,-333.07033 0,-60.61035 16.28125,-117.48633 44.68945,-166.49805 l 67.98242,39.25 c 4.39453,2.53809 10.01563,1.15039 12.71875,-3.14648 43.38867,-68.9668 120.18164,-114.80274 207.67969,-114.80274 88.21436,0 165.53658,46.59082 208.73198,116.50195 l -86.52153,49.95313 c -1.06055,0.61426 -2.46875,0.26074 -3.13672,-0.7373 -26.66016,-39.86816 -71.17578,-63.66992 -119.07373,-63.66992 -78.93359,0 -143.15039,64.21582 -143.15039,143.14941 0,26.04883 6.99805,50.49316 19.20703,71.55859 l -67.79102,39.13965 c -4.64453,2.67969 -6.14453,8.70898 -3.24023,13.26465 41.00586,64.36426 113.00195,107.06152 194.97461,107.06152 82.96826,0 155.71438,-43.74219 196.45268,-109.41895 l 86.3281,49.8418 c 1.1445,0.66211 1.5234,2.16309 0.8262,3.29102 z"
   id="path9"
   inkscape:connector-curvature="0"
   style="fill:#ffffff" />
		</g>
</svg>