<svg height="512" viewBox="0 0 512 512" width="512" xmlns="http://www.w3.org/2000/svg"><g id="Sleeping_Face" data-name="Sleeping Face"><g id="Flat"><path d="m256 512c-68.28 0-132.5-24.9-180.828-70.109-48.472-45.348-75.172-105.683-75.172-169.891s26.7-124.543 75.172-169.891c48.328-45.209 112.548-70.109 180.828-70.109s132.5 24.9 180.828 70.109c48.472 45.348 75.172 105.683 75.172 169.891s-26.7 124.543-75.172 169.891c-48.328 45.209-112.548 70.109-180.828 70.109z" fill="#ffcc80"/><path d="m436.828 102.109a255.647 255.647 0 0 0 -25.521-20.933 226.7 226.7 0 0 1 20.693 94.824c0 64.208-26.7 124.543-75.172 169.891-48.328 45.209-112.548 70.109-180.828 70.109-56.867 0-110.908-17.284-155.307-49.176a239.666 239.666 0 0 0 54.479 75.067c48.328 45.209 112.548 70.109 180.828 70.109s132.5-24.9 180.828-70.109c48.472-45.348 75.172-105.683 75.172-169.891s-26.7-124.543-75.172-169.891z" fill="#ffb74d"/><path d="m136 320h-64a8 8 0 0 1 0-16h64a8 8 0 0 1 0 16z" fill="#424242"/><path d="m440 320h-64a8 8 0 0 1 0-16h64a8 8 0 0 1 0 16z" fill="#424242"/><ellipse cx="256" cy="448" fill="#e27484" rx="48" ry="32"/><ellipse cx="256" cy="448" fill="#ef5350" rx="32" ry="16"/><g fill="#2196f3"><path d="m272 240h-45.586a9 9 0 0 1 -6.364-15.364l32.637-32.636h-28.687a8 8 0 0 1 0-16h45.586a9 9 0 0 1 6.364 15.364l-32.637 32.636h28.687a8 8 0 0 1 0 16z"/><path d="m376 176h-69.586a9 9 0 0 1 -6.364-15.364l.361-.339 54.674-48.297h-51.085a8 8 0 0 1 0-16h69.586a9 9 0 0 1 6.364 15.364l-.361.339-54.674 48.297h51.085a8 8 0 0 1 0 16z"/><path d="m504 112h-92.781a9.342 9.342 0 0 1 -8.486-5.541 9.633 9.633 0 0 1 1.567-10.333l.341-.361 80.259-79.765h-76.9a8 8 0 0 1 0-16h92.781a9.342 9.342 0 0 1 8.486 5.541 9.633 9.633 0 0 1 -1.567 10.333l-.341.361-80.259 79.765h76.9a8 8 0 0 1 0 16z"/></g><path d="m240 456c0-7.553 13.685-16 32-16a55.591 55.591 0 0 1 12.781 1.452c-5.087-5.182-15.762-9.452-28.781-9.452-18.315 0-32 8.447-32 16 0 5.656 7.674 11.812 19.219 14.548-2.069-2.107-3.219-4.364-3.219-6.548z" fill="#e53935"/><circle cx="72" cy="360" fill="#ffe4c0" r="24"/><circle cx="440" cy="360" fill="#ffe4c0" r="24"/></g></g></svg>