<svg height="512" viewBox="0 0 512 512" width="512" xmlns="http://www.w3.org/2000/svg"><g id="Hugging_Face" data-name="Hugging Face"><g id="Flat"><path d="m267.109 511.236a231 231 0 0 1 -60.322-8.177c-32.373-8.74-63.3-24.014-91.911-45.4-56.908-42.523-96.853-103.446-109.593-167.142-12.592-62.961 1.754-127.36 40.394-181.335 38.523-53.81 96.613-90.82 163.567-104.211s134.809-1.571 191.066 33.285c56.428 34.96 94.439 88.888 107.031 151.849 12.739 63.7-.7 135.3-36.876 196.44-18.189 30.744-40.859 56.736-67.381 77.254-28.39 21.964-59.824 36.509-93.429 43.23a216.662 216.662 0 0 1 -42.546 4.207z" fill="#ffcc80"/><path d="m507.341 190.105a226.769 226.769 0 0 0 -43.351-94.883c0 .26.01.518.01.778 0 167.9-136.1 304-304 304a302.958 302.958 0 0 1 -120.951-25.036 299.846 299.846 0 0 0 75.827 82.7c28.614 21.382 59.538 36.656 91.911 45.4a231 231 0 0 0 60.322 8.177 216.662 216.662 0 0 0 42.546-4.207c33.605-6.721 65.039-21.266 93.429-43.23 26.522-20.518 49.192-46.51 67.381-77.254 36.174-61.15 49.615-132.75 36.876-196.445z" fill="#ffb74d"/><path d="m416 512h-71.55a24.654 24.654 0 0 1 -16.7-6.49 23.817 23.817 0 0 1 -7.72-16.32c-.02-.39-.03-.78-.03-1.19a23.847 23.847 0 0 1 1.72-8.93 24.891 24.891 0 0 1 -9.97-5.56 23.837 23.837 0 0 1 -7.72-16.32c-.02-.36-.03-.74-.03-1.19a23.854 23.854 0 0 1 1.37-8h-9.37a24 24 0 0 1 -24-24c0-.35.01-.71.03-1.15a23.783 23.783 0 0 1 7.72-16.36 24.891 24.891 0 0 1 9.97-5.56 23.847 23.847 0 0 1 -1.72-8.93c0-.34.01-.71.03-1.15a23.8 23.8 0 0 1 7.72-16.36 24.691 24.691 0 0 1 16.7-6.49h59.83a32.035 32.035 0 0 1 -4.27-15.33c-.01-.27-.01-.49-.01-.65a31.138 31.138 0 0 1 2.64-12.56 31.985 31.985 0 0 1 7.06-10.15 32.927 32.927 0 0 1 10.32-6.81 32.544 32.544 0 0 1 12.47-2.5h15.51a96 96 0 1 1 0 192z" fill="#f5f5f5"/><path d="m183.55 512h-87.55a96 96 0 1 1 0-192h31.51a32.544 32.544 0 0 1 12.47 2.5 32.927 32.927 0 0 1 10.32 6.81 31.985 31.985 0 0 1 7.06 10.15 31.138 31.138 0 0 1 2.64 12.56v.55l-.01.05a32.034 32.034 0 0 1 -4.27 15.38h59.83a24.691 24.691 0 0 1 16.7 6.49 23.786 23.786 0 0 1 7.72 16.37q.03.555.03 1.14a23.847 23.847 0 0 1 -1.72 8.93 24.958 24.958 0 0 1 9.97 5.56 23.789 23.789 0 0 1 7.72 16.38c.02.38.03.76.03 1.13a24 24 0 0 1 -24 24h-9.37a23.811 23.811 0 0 1 1.37 8c0 .34-.01.7-.02 1.12l-.01.03a23.783 23.783 0 0 1 -7.72 16.36 24.891 24.891 0 0 1 -9.97 5.56 23.847 23.847 0 0 1 1.72 8.93c0 .37-.01.73-.03 1.12v.03a23.783 23.783 0 0 1 -7.72 16.36 24.654 24.654 0 0 1 -16.7 6.49z" fill="#f5f5f5"/><path d="m113.531 187.124a8 8 0 0 1 -7.836-6.433 40 40 0 1 1 78.446-15.691 8 8 0 1 1 -15.689 3.138 24 24 0 0 0 -47.068 9.414 8.008 8.008 0 0 1 -7.853 9.57z" fill="#424242"/><path d="m301.8 149.47a8 8 0 0 1 -7.836-6.433 40 40 0 0 1 78.447-15.689 8 8 0 0 1 -15.69 3.137 24 24 0 1 0 -47.067 9.414 8.008 8.008 0 0 1 -7.854 9.571z" fill="#424242"/><path d="m431.248 176.769a8 8 0 0 0 -9.414-6.276c-24.846 4.966-35.612-14.641-36.034-15.43a8 8 0 0 0 -14.223 7.327 45.5 45.5 0 0 0 10.4 12.845c10.594 55.972-39.936 113.2-113.113 127.833s-141.831-18.754-153.578-74.5a45.5 45.5 0 0 0 4.659-15.856 8 8 0 0 0 -15.945-1.343c-.089.945-2.486 23.188-27.331 28.157a8 8 0 1 0 3.138 15.69 50.772 50.772 0 0 0 23.3-10.961c9.154 25.883 29.141 47.451 57.469 61.615 22.037 11.019 47.388 16.66 73.765 16.66a192.222 192.222 0 0 0 37.659-3.773c39.453-7.89 74.221-27.335 97.9-54.752 20.7-23.969 30.856-51.565 29.351-78.977a48.35 48.35 0 0 0 14.764 2.271 55.851 55.851 0 0 0 10.958-1.116 8 8 0 0 0 6.275-9.414z" fill="#ef5350"/><g fill="#cfcfcf"><path d="m400 408a8.011 8.011 0 0 1 -8 8h-118.6a23.944 23.944 0 0 1 6.35-9.51 24.891 24.891 0 0 1 9.97-5.56c-.12-.31-.24-.62-.35-.93h102.63a8.011 8.011 0 0 1 8 8z"/><path d="m440 360a8.011 8.011 0 0 1 -8 8h-59.72a32.035 32.035 0 0 1 -4.27-15.33c-.01-.27-.01-.49-.01-.65v-.02h64a8.011 8.011 0 0 1 8 8z"/><path d="m160 352v.57l-.01.05a32.034 32.034 0 0 1 -4.27 15.38h-59.72a8 8 0 0 1 0-16z"/><path d="m400 456a8.011 8.011 0 0 1 -8 8h-86.59a23.18 23.18 0 0 1 -1.38-6.81c-.02-.36-.03-.74-.03-1.19a23.854 23.854 0 0 1 1.37-8h86.63a8.011 8.011 0 0 1 8 8z"/><path d="m400 488a8.011 8.011 0 0 1 -8 8h-70.59a23.311 23.311 0 0 1 -1.38-6.81c-.02-.39-.03-.78-.03-1.19a23.811 23.811 0 0 1 1.37-8h70.63a8.011 8.011 0 0 1 8 8z"/><path d="m254.6 416h-126.6a8 8 0 0 1 0-16h110.63c-.11.31-.23.62-.35.93a24.958 24.958 0 0 1 9.97 5.56 23.944 23.944 0 0 1 6.35 9.51z"/><path d="m224 456c0 .34-.01.7-.02 1.12l-.01.03a23.172 23.172 0 0 1 -1.37 6.85h-94.6a8 8 0 0 1 0-16h94.63a23.811 23.811 0 0 1 1.37 8z"/><path d="m208 488c0 .37-.01.73-.03 1.12v.03a23.172 23.172 0 0 1 -1.37 6.85h-78.6a8 8 0 0 1 0-16h78.63a23.811 23.811 0 0 1 1.37 8z"/></g><path d="m504.45 378.63a95.454 95.454 0 0 0 -20.57-30.51q-3.346-3.351-6.97-6.329a148.2 148.2 0 0 1 -96.81 170.209h35.9a96.044 96.044 0 0 0 88.45-133.37z" fill="#e5e5e5"/><path d="m7.55 378.63a95.454 95.454 0 0 1 20.57-30.51q3.346-3.351 6.97-6.329a148.2 148.2 0 0 0 96.81 170.209h-35.9a96.044 96.044 0 0 1 -88.45-133.37z" fill="#e5e5e5"/><circle cx="64" cy="200" fill="#ffe4c0" r="24"/><circle cx="416" cy="128" fill="#ffe4c0" r="24"/></g></g></svg>