<?xml version="1.0"?>
<svg xmlns="http://www.w3.org/2000/svg" viewBox="0 0 512 512" width="512" height="512"><g id="Face_With_Tears_of_Joy" data-name="Face With Tears of Joy"><g id="Flat"><path d="M256,512c-34.271,0-67.946-8.1-100.092-24.067-30.031-14.919-57.358-35.96-81.223-62.539C27.222,372.532,0,304.958,0,240,0,175.792,26.7,115.457,75.172,70.109,123.5,24.9,187.72,0,256,0S388.5,24.9,436.828,70.109C485.3,115.457,512,175.792,512,240c0,64.958-27.222,132.532-74.685,185.394-23.865,26.579-51.192,47.62-81.223,62.539C323.946,503.9,290.271,512,256,512Z" style="fill:#ffcc80"/><path d="M463.422,99.266C453.446,271.445,310.68,408,136,408a328.469,328.469,0,0,1-83.746-10.806,304.57,304.57,0,0,0,22.431,28.2c23.865,26.579,51.192,47.62,81.223,62.539C188.054,503.9,221.729,512,256,512s67.946-8.1,100.092-24.067c30.031-14.919,57.358-35.96,81.223-62.539C484.778,372.532,512,304.958,512,240,512,188.73,494.962,139.938,463.422,99.266Z" style="fill:#ffb74d"/><path d="M256,448A120.136,120.136,0,0,1,136,328V196.727a24.143,24.143,0,0,1,18.854-23.443C177.476,168.323,220.7,160,256,160s78.524,8.323,101.146,13.284A24.143,24.143,0,0,1,376,196.727V328A120.136,120.136,0,0,1,256,448Z" style="fill:#e27484"/><path d="M364,208c4.028,0,8.027.123,12,.345V196.727a24.143,24.143,0,0,0-18.854-23.443C334.524,168.323,291.305,160,256,160s-78.524,8.323-101.146,13.284A24.143,24.143,0,0,0,136,196.727V328a119.267,119.267,0,0,0,17.97,63.093C168.071,287.686,256.723,208,364,208Z" style="fill:#d8667c"/><path d="M452.676,250.142a58.935,58.935,0,0,1-41.949-17.376c-21.58-21.578-26.252-93.988-26.714-102.173l-.5-8.943,8.942.5c8.186.462,80.6,5.135,102.175,26.714h0a59.325,59.325,0,0,1-41.949,101.273Z" style="fill:#2196f3"/><path d="M59.324,250.142A59.325,59.325,0,0,1,17.375,148.869h0c21.58-21.579,93.989-26.252,102.175-26.714l8.942-.5-.5,8.943c-.462,8.185-5.134,80.6-26.714,102.173A58.935,58.935,0,0,1,59.324,250.142Z" style="fill:#2196f3"/><path d="M216,128a8,8,0,0,1-8-8,24,24,0,0,0-48,0,8,8,0,0,1-16,0,40,40,0,0,1,80,0A8,8,0,0,1,216,128Z" style="fill:#424242"/><path d="M360,128a8,8,0,0,1-8-8,24,24,0,0,0-48,0,8,8,0,0,1-16,0,40,40,0,0,1,80,0A8,8,0,0,1,360,128Z" style="fill:#424242"/><path d="M320,224H192a24.218,24.218,0,0,1-24-24.375V169.663l6.5-1.259c22.15-4.29,54.27-9.4,81.5-9.4s59.349,5.114,81.5,9.4l6.5,1.259v29.962A24.218,24.218,0,0,1,320,224Z" style="fill:#f5f5f5"/><path d="M256,448a119.146,119.146,0,0,1-85.363-35.669l-2.7-2.733.445-3.817C172.488,370.56,210.156,344,256,344s83.512,26.56,87.619,61.781l.445,3.817-2.7,2.733A119.146,119.146,0,0,1,256,448Z" style="fill:#ef5350"/><path d="M495.313,149.593A67.982,67.982,0,0,1,394.5,199.165c3.889,13.964,9.15,26.52,16.232,33.6a59.316,59.316,0,0,0,84.586-83.173Z" style="fill:#1e88e5"/><path d="M88,208a72.006,72.006,0,0,1-70.8-58.949,59.322,59.322,0,0,0,84.071,83.715c6.59-6.59,11.6-17.923,15.4-30.716A71.734,71.734,0,0,1,88,208Z" style="fill:#1e88e5"/><circle cx="424" cy="168" r="16" style="fill:#90caf9"/><circle cx="88" cy="168" r="16" style="fill:#90caf9"/><circle cx="224" cy="384" r="16" style="fill:#ff8f8f"/><path d="M192,224h4.813A171.415,171.415,0,0,1,316,176a173.193,173.193,0,0,1,28,2.281v-8.618l-6.5-1.259c-22.15-4.29-54.27-9.4-81.5-9.4s-59.349,5.114-81.5,9.4l-6.5,1.259v29.962A24.218,24.218,0,0,0,192,224Z" style="fill:#e5e5e5"/><path d="M343.619,405.781c-3.1-26.551-25.268-48.173-55.633-57.213a75.982,75.982,0,0,1-119.037,62.055l1.688,1.708a119.98,119.98,0,0,0,170.726,0l2.7-2.733Z" style="fill:#e53935"/></g></g></svg>
