<?xml version="1.0"?>
<svg xmlns="http://www.w3.org/2000/svg" viewBox="0 0 512 512" width="512" height="512"><g id="Smiling_Face_With_Heart-Eyes" data-name="Smiling Face With Heart-Eyes"><g id="Flat"><path d="M256,512c-68.28,0-132.5-24.9-180.828-70.109C26.7,396.543,0,336.208,0,272S26.7,147.457,75.172,102.109C123.5,56.9,187.72,32,256,32s132.5,24.9,180.828,70.109C485.3,147.457,512,207.792,512,272s-26.7,124.543-75.172,169.891C388.5,487.1,324.28,512,256,512Z" style="fill:#ffcc80"/><path d="M436.828,102.109a255.471,255.471,0,0,0-20.56-17.278A226.742,226.742,0,0,1,432,168c0,64.208-26.7,124.543-75.172,169.891C308.5,383.1,244.28,408,176,408c-59,0-114.964-18.606-160.268-52.831a238.053,238.053,0,0,0,59.44,86.722C123.5,487.1,187.72,512,256,512s132.5-24.9,180.828-70.109C485.3,396.543,512,336.208,512,272S485.3,147.457,436.828,102.109Z" style="fill:#ffb74d"/><path d="M256,464A112.127,112.127,0,0,1,144,352V248a24.027,24.027,0,0,1,24-24H344a24.027,24.027,0,0,1,24,24V352A112.127,112.127,0,0,1,256,464Z" style="fill:#e27484"/><path d="M362.755,204.071l-2-1.174a229.623,229.623,0,0,1-49.382-41.413C280.2,126.544,268.66,88.685,278,52,287.493,14.72,326.876-7.548,365.8,2.364a73.967,73.967,0,0,1,41.336,27.422,73.955,73.955,0,0,1,49.417-4.315h0c38.918,9.908,62.859,48.3,53.368,85.575-9.341,36.687-37.582,64.418-81.67,80.2A229.647,229.647,0,0,1,365.072,204Z" style="fill:#ef5350"/><path d="M149.245,204.071,146.928,204a229.647,229.647,0,0,1-63.174-12.755c-44.088-15.777-72.329-43.508-81.67-80.2-9.491-37.277,14.45-75.667,53.368-85.575a73.956,73.956,0,0,1,49.417,4.315A73.967,73.967,0,0,1,146.205,2.364C185.125-7.545,224.507,14.72,234,52c9.341,36.688-2.2,74.547-33.374,109.487A229.623,229.623,0,0,1,151.243,202.9Z" style="fill:#ef5350"/><path d="M489.027,43.086A136.053,136.053,0,0,1,360,136a135.37,135.37,0,0,1-79.571-25.706c5.823,17.429,16.177,34.637,30.946,51.19A229.623,229.623,0,0,0,360.757,202.9l2,1.174,2.317-.075a229.647,229.647,0,0,0,63.174-12.755c44.088-15.777,72.329-43.508,81.67-80.2C516.331,85.851,507.459,60.161,489.027,43.086Z" style="fill:#e53935"/><path d="M234,52c-6.344-24.914-26.045-43.1-50.031-49.483A136,136,0,0,1,48,136a136,136,0,0,1-38.858-5.643c13.212,27.169,38.632,48.009,74.612,60.884A229.647,229.647,0,0,0,146.928,204l2.317.075,2-1.174a229.623,229.623,0,0,0,49.382-41.413C231.8,126.544,243.34,88.685,234,52Z" style="fill:#e53935"/><circle cx="48" cy="80" r="24" style="fill:#ffb6b6"/><circle cx="328" cy="48" r="24" style="fill:#ffb6b6"/><path d="M360,272c2.68,0,5.344.066,8,.163V248a24.027,24.027,0,0,0-24-24H168a24.027,24.027,0,0,0-24,24V352a111.308,111.308,0,0,0,15.2,56.274A216.07,216.07,0,0,1,360,272Z" style="fill:#d8667c"/><path d="M256,464a111.65,111.65,0,0,1-94.214-51.42l-1.588-2.464.38-2.906C165.885,366.614,206.908,336,256,336s90.115,30.614,95.422,71.21l.38,2.906-1.588,2.464A111.65,111.65,0,0,1,256,464Z" style="fill:#ef5350"/><circle cx="56" cy="240" r="24" style="fill:#ffe4c0"/><circle cx="456" cy="240" r="24" style="fill:#ffe4c0"/><path d="M351.422,407.21c-3.407-26.063-21.549-47.995-47.082-60.369A179.71,179.71,0,0,1,181.6,435.75a112.049,112.049,0,0,0,168.611-23.17l1.588-2.464Z" style="fill:#e53935"/><circle cx="216" cy="384" r="24" style="fill:#ff8f8f"/></g></g></svg>
