<svg height="512" viewBox="0 0 512 512" width="512" xmlns="http://www.w3.org/2000/svg"><g id="Grinning_Face" data-name="Grinning Face"><g id="Flat"><path d="m256 512a256 256 0 0 1 -180.828-437.217 256 256 0 0 1 361.656 362.434 254.352 254.352 0 0 1 -180.828 74.783z" fill="#ffcc80"/><path d="m436.828 74.783a257.826 257.826 0 0 0 -47.511-37.426 257.015 257.015 0 0 1 10.683 73.576 255.989 255.989 0 0 1 -256 256 254.39 254.39 0 0 1 -133.317-37.357 256.108 256.108 0 0 0 426.145 107.641 256.016 256.016 0 0 0 0-362.434z" fill="#ffb74d"/><path d="m336 416h-160a128.144 128.144 0 0 1 -128-128v-72a24.027 24.027 0 0 1 24-24h368a24.027 24.027 0 0 1 24 24v72a128.144 128.144 0 0 1 -128 128z" fill="#e27484"/><path d="m336 416h-160a128.318 128.318 0 0 1 -80.28-28.31l-3.687-2.973 9.71-54.345a31.965 31.965 0 0 1 31.501-26.372h245.512a31.969 31.969 0 0 1 31.5 26.372l9.709 54.345-3.687 2.973a128.318 128.318 0 0 1 -80.278 28.31z" fill="#f5f5f5"/><path d="m171.253 415.905a354.518 354.518 0 0 1 224.747-79.905q7.7 0 15.322.33l-1.064-5.958a31.969 31.969 0 0 0 -31.502-26.372h-245.512a31.965 31.965 0 0 0 -31.5 26.372l-9.71 54.345 3.687 2.973a128.334 128.334 0 0 0 75.532 28.215z" fill="#e5e5e5"/><path d="m280 360a8 8 0 0 1 -8-8v-40a8 8 0 0 1 16 0v40a8 8 0 0 1 -8 8z" fill="#cfcfcf"/><path d="m232 360a8 8 0 0 1 -8-8v-40a8 8 0 0 1 16 0v40a8 8 0 0 1 -8 8z" fill="#cfcfcf"/><path d="m184 360a8 8 0 0 1 -8-8v-40a8 8 0 0 1 16 0v40a8 8 0 0 1 -8 8z" fill="#cfcfcf"/><path d="m328 360a8 8 0 0 1 -8-8v-40a8 8 0 0 1 16 0v40a8 8 0 0 1 -8 8z" fill="#cfcfcf"/><path d="m76.524 288.232a37.18 37.18 0 0 0 36.627 31.768h285.7a37.182 37.182 0 0 0 36.628-31.768l13.5-94.485a23.88 23.88 0 0 0 -8.979-1.747h-368a23.88 23.88 0 0 0 -8.974 1.747z" fill="#f5f5f5"/><circle cx="184" cy="152" fill="#616161" r="24"/><circle cx="328" cy="152" fill="#616161" r="24"/><circle cx="176" cy="144" fill="#fff" r="8"/><circle cx="320" cy="144" fill="#fff" r="8"/><path d="m199.915 134.057c.051.641.085 1.288.085 1.943a23.983 23.983 0 0 1 -39.915 17.943 24 24 0 1 0 39.83-19.886z" fill="#424242"/><path d="m343.915 134.057c.051.641.085 1.288.085 1.943a23.983 23.983 0 0 1 -39.915 17.943 24 24 0 1 0 39.83-19.886z" fill="#424242"/><path d="m78.36 295.538a445.066 445.066 0 0 1 365.408-65.347l5.206-36.444a23.88 23.88 0 0 0 -8.974-1.747h-368a23.88 23.88 0 0 0 -8.974 1.747l13.5 94.485a36.466 36.466 0 0 0 1.834 7.306z" fill="#e5e5e5"/><g fill="#cfcfcf"><path d="m160 320a8 8 0 0 1 -8-8v-64a8 8 0 0 1 16 0v64a8 8 0 0 1 -8 8z"/><path d="m208 320a8 8 0 0 1 -8-8v-40a8 8 0 0 1 16 0v40a8 8 0 0 1 -8 8z"/><path d="m352 320a8 8 0 0 1 -8-8v-64a8 8 0 0 1 16 0v64a8 8 0 0 1 -8 8z"/><path d="m304 320a8 8 0 0 1 -8-8v-40a8 8 0 0 1 16 0v40a8 8 0 0 1 -8 8z"/><path d="m256 320a8 8 0 0 1 -8-8v-64a8 8 0 0 1 16 0v64a8 8 0 0 1 -8 8z"/></g><circle cx="88" cy="152" fill="#ffe4c0" r="24"/><circle cx="424" cy="152" fill="#ffe4c0" r="24"/></g></g></svg>